<?xml version="1.0" encoding="UTF-8" standalone="no"?>
<!DOCTYPE svg PUBLIC "-//W3C//DTD SVG 1.1//EN"
 "http://www.w3.org/Graphics/SVG/1.1/DTD/svg11.dtd">
<!-- Generated by graphviz version 2.38.0 (20140413.2041)
 -->
<!-- Title: src/tds/iconv.c Pages: 1 -->
<svg width="1092pt" height="252pt"
 viewBox="0.00 0.00 1091.50 252.00" xmlns="http://www.w3.org/2000/svg" xmlns:xlink="http://www.w3.org/1999/xlink">
<g id="graph0" class="graph" transform="scale(1 1) rotate(0) translate(4 248)">
<title>src/tds/iconv.c</title>
<polygon fill="white" stroke="none" points="-4,4 -4,-248 1087.5,-248 1087.5,4 -4,4"/>
<!-- Node1 -->
<g id="node1" class="node"><title>Node1</title>
<polygon fill="#bfbfbf" stroke="black" points="830,-224.5 830,-243.5 913,-243.5 913,-224.5 830,-224.5"/>
<text text-anchor="middle" x="871.5" y="-231.5" font-family="Helvetica,sans-Serif" font-size="10.00">src/tds/iconv.c</text>
</g>
<!-- Node2 -->
<g id="node2" class="node"><title>Node2</title>
<polygon fill="white" stroke="#bfbfbf" points="405,-168.5 405,-187.5 458,-187.5 458,-168.5 405,-168.5"/>
<text text-anchor="middle" x="431.5" y="-175.5" font-family="Helvetica,sans-Serif" font-size="10.00">config.h</text>
</g>
<!-- Node1&#45;&gt;Node2 -->
<g id="edge1" class="edge"><title>Node1&#45;&gt;Node2</title>
<path fill="none" stroke="midnightblue" d="M829.947,-229.744C757.192,-223.725 602.136,-209.479 472.5,-188 471.206,-187.786 469.891,-187.557 468.565,-187.317"/>
<polygon fill="midnightblue" stroke="midnightblue" points="468.816,-183.799 458.329,-185.307 467.467,-190.668 468.816,-183.799"/>
</g>
<!-- Node3 -->
<g id="node3" class="node"><title>Node3</title>
<polygon fill="white" stroke="#bfbfbf" points="750,-56.5 750,-75.5 805,-75.5 805,-56.5 750,-56.5"/>
<text text-anchor="middle" x="777.5" y="-63.5" font-family="Helvetica,sans-Serif" font-size="10.00">stdarg.h</text>
</g>
<!-- Node1&#45;&gt;Node3 -->
<g id="edge2" class="edge"><title>Node1&#45;&gt;Node3</title>
<path fill="none" stroke="midnightblue" d="M866.446,-224.075C851.522,-197.719 807.443,-119.878 787.501,-84.6608"/>
<polygon fill="midnightblue" stroke="midnightblue" points="790.325,-82.5452 782.352,-75.5681 784.234,-85.9945 790.325,-82.5452"/>
</g>
<!-- Node4 -->
<g id="node4" class="node"><title>Node4</title>
<polygon fill="white" stroke="#bfbfbf" points="0,-112.5 0,-131.5 47,-131.5 47,-112.5 0,-112.5"/>
<text text-anchor="middle" x="23.5" y="-119.5" font-family="Helvetica,sans-Serif" font-size="10.00">stdio.h</text>
</g>
<!-- Node1&#45;&gt;Node4 -->
<g id="edge3" class="edge"><title>Node1&#45;&gt;Node4</title>
<path fill="none" stroke="midnightblue" d="M829.902,-232.591C760.957,-230.881 619.326,-222.973 505.5,-188 486.879,-182.279 485.214,-173.407 466.5,-168 292.891,-117.842 239.884,-160.899 61.5,-132 60.036,-131.763 58.5448,-131.5 57.0416,-131.219"/>
<polygon fill="midnightblue" stroke="midnightblue" points="57.6151,-127.763 47.1111,-129.147 56.1856,-134.616 57.6151,-127.763"/>
</g>
<!-- Node5 -->
<g id="node5" class="node"><title>Node5</title>
<polygon fill="white" stroke="#bfbfbf" points="937.5,-168.5 937.5,-187.5 991.5,-187.5 991.5,-168.5 937.5,-168.5"/>
<text text-anchor="middle" x="964.5" y="-175.5" font-family="Helvetica,sans-Serif" font-size="10.00">assert.h</text>
</g>
<!-- Node1&#45;&gt;Node5 -->
<g id="edge4" class="edge"><title>Node1&#45;&gt;Node5</title>
<path fill="none" stroke="midnightblue" d="M886.442,-224.324C901.085,-215.822 923.634,-202.729 940.738,-192.797"/>
<polygon fill="midnightblue" stroke="midnightblue" points="942.705,-195.703 949.595,-187.655 939.19,-189.649 942.705,-195.703"/>
</g>
<!-- Node6 -->
<g id="node6" class="node"><title>Node6</title>
<g id="a_node6"><a xlink:href="a00196.html" target="_top" xlink:title="Main include file for libtds. ">
<polygon fill="white" stroke="black" points="515,-168.5 515,-187.5 590,-187.5 590,-168.5 515,-168.5"/>
<text text-anchor="middle" x="552.5" y="-175.5" font-family="Helvetica,sans-Serif" font-size="10.00">freetds/tds.h</text>
</a>
</g>
</g>
<!-- Node1&#45;&gt;Node6 -->
<g id="edge5" class="edge"><title>Node1&#45;&gt;Node6</title>
<path fill="none" stroke="midnightblue" d="M829.796,-225.94C770.604,-215.92 662.509,-197.622 600.202,-187.075"/>
<polygon fill="midnightblue" stroke="midnightblue" points="600.682,-183.606 590.238,-185.388 599.513,-190.508 600.682,-183.606"/>
</g>
<!-- Node19 -->
<g id="node19" class="node"><title>Node19</title>
<g id="a_node19"><a xlink:href="a00187_source.html" target="_top" xlink:title="freetds/iconv.h">
<polygon fill="white" stroke="black" points="861.5,-56.5 861.5,-75.5 947.5,-75.5 947.5,-56.5 861.5,-56.5"/>
<text text-anchor="middle" x="904.5" y="-63.5" font-family="Helvetica,sans-Serif" font-size="10.00">freetds/iconv.h</text>
</a>
</g>
</g>
<!-- Node1&#45;&gt;Node19 -->
<g id="edge27" class="edge"><title>Node1&#45;&gt;Node19</title>
<path fill="none" stroke="midnightblue" d="M874.561,-224.476C877.687,-215.501 882.495,-200.91 885.5,-188 893.827,-152.225 899.567,-109.639 902.42,-85.7214"/>
<polygon fill="midnightblue" stroke="midnightblue" points="905.92,-85.926 903.588,-75.591 898.966,-85.1245 905.92,-85.926"/>
</g>
<!-- Node20 -->
<g id="node20" class="node"><title>Node20</title>
<g id="a_node20"><a xlink:href="a00303_source.html" target="_top" xlink:title="encodings.h">
<polygon fill="white" stroke="black" points="1009.5,-168.5 1009.5,-187.5 1083.5,-187.5 1083.5,-168.5 1009.5,-168.5"/>
<text text-anchor="middle" x="1046.5" y="-175.5" font-family="Helvetica,sans-Serif" font-size="10.00">encodings.h</text>
</a>
</g>
</g>
<!-- Node1&#45;&gt;Node20 -->
<g id="edge30" class="edge"><title>Node1&#45;&gt;Node20</title>
<path fill="none" stroke="midnightblue" d="M899.229,-224.444C928.926,-215.28 976.216,-200.688 1009.17,-190.519"/>
<polygon fill="midnightblue" stroke="midnightblue" points="1010.38,-193.809 1018.9,-187.516 1008.31,-187.121 1010.38,-193.809"/>
</g>
<!-- Node6&#45;&gt;Node3 -->
<g id="edge6" class="edge"><title>Node6&#45;&gt;Node3</title>
<path fill="none" stroke="midnightblue" d="M590.006,-172.902C641.233,-166.601 729.478,-153.013 753.5,-132 766.92,-120.261 772.846,-100.326 775.456,-85.6211"/>
<polygon fill="midnightblue" stroke="midnightblue" points="778.936,-86.0103 776.876,-75.6177 772.005,-85.0268 778.936,-86.0103"/>
</g>
<!-- Node6&#45;&gt;Node4 -->
<g id="edge7" class="edge"><title>Node6&#45;&gt;Node4</title>
<path fill="none" stroke="midnightblue" d="M514.786,-170.064C509.987,-169.302 505.135,-168.59 500.5,-168 306.301,-143.282 254.852,-162.646 61.5,-132 60.0352,-131.768 58.5433,-131.51 57.0396,-131.232"/>
<polygon fill="midnightblue" stroke="midnightblue" points="57.6093,-127.775 47.107,-129.173 56.1885,-134.63 57.6093,-127.775"/>
</g>
<!-- Node7 -->
<g id="node7" class="node"><title>Node7</title>
<g id="a_node7"><a xlink:href="a00198_source.html" target="_top" xlink:title="time.h">
<polygon fill="white" stroke="black" points="317.5,-112.5 317.5,-131.5 361.5,-131.5 361.5,-112.5 317.5,-112.5"/>
<text text-anchor="middle" x="339.5" y="-119.5" font-family="Helvetica,sans-Serif" font-size="10.00">time.h</text>
</a>
</g>
</g>
<!-- Node6&#45;&gt;Node7 -->
<g id="edge8" class="edge"><title>Node6&#45;&gt;Node7</title>
<path fill="none" stroke="midnightblue" d="M518.75,-168.444C478.369,-158.206 411.259,-141.192 371.616,-131.142"/>
<polygon fill="midnightblue" stroke="midnightblue" points="372.238,-127.689 361.685,-128.624 370.518,-134.475 372.238,-127.689"/>
</g>
<!-- Node8 -->
<g id="node8" class="node"><title>Node8</title>
<g id="a_node8"><a xlink:href="a00200_source.html" target="_top" xlink:title="freetds/version.h">
<polygon fill="white" stroke="black" points="505,-112.5 505,-131.5 600,-131.5 600,-112.5 505,-112.5"/>
<text text-anchor="middle" x="552.5" y="-119.5" font-family="Helvetica,sans-Serif" font-size="10.00">freetds/version.h</text>
</a>
</g>
</g>
<!-- Node6&#45;&gt;Node8 -->
<g id="edge10" class="edge"><title>Node6&#45;&gt;Node8</title>
<path fill="none" stroke="midnightblue" d="M552.5,-168.083C552.5,-161.006 552.5,-150.861 552.5,-141.986"/>
<polygon fill="midnightblue" stroke="midnightblue" points="556,-141.751 552.5,-131.751 549,-141.751 556,-141.751"/>
</g>
<!-- Node9 -->
<g id="node9" class="node"><title>Node9</title>
<polygon fill="white" stroke="#bfbfbf" points="618,-112.5 618,-131.5 729,-131.5 729,-112.5 618,-112.5"/>
<text text-anchor="middle" x="673.5" y="-119.5" font-family="Helvetica,sans-Serif" font-size="10.00">tds_sysdep_public.h</text>
</g>
<!-- Node6&#45;&gt;Node9 -->
<g id="edge11" class="edge"><title>Node6&#45;&gt;Node9</title>
<path fill="none" stroke="midnightblue" d="M571.673,-168.444C591.409,-159.636 622.385,-145.812 644.993,-135.722"/>
<polygon fill="midnightblue" stroke="midnightblue" points="646.711,-138.788 654.417,-131.516 643.859,-132.396 646.711,-138.788"/>
</g>
<!-- Node10 -->
<g id="node10" class="node"><title>Node10</title>
<g id="a_node10"><a xlink:href="a00195_source.html" target="_top" xlink:title="freetds/sysdep_private.h">
<polygon fill="white" stroke="black" points="599,-56.5 599,-75.5 732,-75.5 732,-56.5 599,-56.5"/>
<text text-anchor="middle" x="665.5" y="-63.5" font-family="Helvetica,sans-Serif" font-size="10.00">freetds/sysdep_private.h</text>
</a>
</g>
</g>
<!-- Node6&#45;&gt;Node10 -->
<g id="edge12" class="edge"><title>Node6&#45;&gt;Node10</title>
<path fill="none" stroke="midnightblue" d="M590.142,-173.263C638.825,-167.563 719.526,-154.87 737.5,-132 753.626,-111.481 723.844,-91.9856 697.826,-79.7933"/>
<polygon fill="midnightblue" stroke="midnightblue" points="699.061,-76.5122 688.502,-75.6434 696.215,-82.9074 699.061,-76.5122"/>
</g>
<!-- Node11 -->
<g id="node11" class="node"><title>Node11</title>
<g id="a_node11"><a xlink:href="a00197_source.html" target="_top" xlink:title="freetds/thread.h">
<polygon fill="white" stroke="black" points="103.5,-112.5 103.5,-131.5 195.5,-131.5 195.5,-112.5 103.5,-112.5"/>
<text text-anchor="middle" x="149.5" y="-119.5" font-family="Helvetica,sans-Serif" font-size="10.00">freetds/thread.h</text>
</a>
</g>
</g>
<!-- Node6&#45;&gt;Node11 -->
<g id="edge13" class="edge"><title>Node6&#45;&gt;Node11</title>
<path fill="none" stroke="midnightblue" d="M514.762,-170.239C509.967,-169.447 505.123,-168.681 500.5,-168 372.59,-149.165 337.401,-150.619 205.76,-132.127"/>
<polygon fill="midnightblue" stroke="midnightblue" points="206.084,-128.638 195.692,-130.7 205.102,-135.569 206.084,-128.638"/>
</g>
<!-- Node12 -->
<g id="node12" class="node"><title>Node12</title>
<g id="a_node12"><a xlink:href="a00205_source.html" target="_top" xlink:title="replacements.h">
<polygon fill="white" stroke="black" points="398,-112.5 398,-131.5 487,-131.5 487,-112.5 398,-112.5"/>
<text text-anchor="middle" x="442.5" y="-119.5" font-family="Helvetica,sans-Serif" font-size="10.00">replacements.h</text>
</a>
</g>
</g>
<!-- Node6&#45;&gt;Node12 -->
<g id="edge14" class="edge"><title>Node6&#45;&gt;Node12</title>
<path fill="none" stroke="midnightblue" d="M534.827,-168.324C517.106,-159.625 489.597,-146.12 469.212,-136.113"/>
<polygon fill="midnightblue" stroke="midnightblue" points="470.649,-132.919 460.13,-131.655 467.564,-139.203 470.649,-132.919"/>
</g>
<!-- Node15 -->
<g id="node15" class="node"><title>Node15</title>
<g id="a_node15"><a xlink:href="a00191_source.html" target="_top" xlink:title="freetds/pushvis.h">
<polygon fill="white" stroke="black" points="653.5,-0.5 653.5,-19.5 749.5,-19.5 749.5,-0.5 653.5,-0.5"/>
<text text-anchor="middle" x="701.5" y="-7.5" font-family="Helvetica,sans-Serif" font-size="10.00">freetds/pushvis.h</text>
</a>
</g>
</g>
<!-- Node6&#45;&gt;Node15 -->
<g id="edge24" class="edge"><title>Node6&#45;&gt;Node15</title>
<path fill="none" stroke="midnightblue" d="M590.359,-177.37C636.991,-176.112 716.96,-168.228 773.5,-132 799.472,-115.358 804.914,-105.319 814.5,-76 817.262,-67.5512 819.489,-63.3568 814.5,-56 801.915,-37.4425 780.33,-26.5377 759.375,-20.1298"/>
<polygon fill="midnightblue" stroke="midnightblue" points="760.075,-16.6924 749.505,-17.4112 758.216,-23.4411 760.075,-16.6924"/>
</g>
<!-- Node16 -->
<g id="node16" class="node"><title>Node16</title>
<g id="a_node16"><a xlink:href="a00189_source.html" target="_top" xlink:title="freetds/popvis.h">
<polygon fill="white" stroke="black" points="315.5,-0.5 315.5,-19.5 407.5,-19.5 407.5,-0.5 315.5,-0.5"/>
<text text-anchor="middle" x="361.5" y="-7.5" font-family="Helvetica,sans-Serif" font-size="10.00">freetds/popvis.h</text>
</a>
</g>
</g>
<!-- Node6&#45;&gt;Node16 -->
<g id="edge26" class="edge"><title>Node6&#45;&gt;Node16</title>
<path fill="none" stroke="midnightblue" d="M514.782,-170.094C509.984,-169.327 505.133,-168.605 500.5,-168 455.594,-162.133 125.077,-165.408 94.5,-132 76.3617,-112.182 94.5176,-74.108 116.5,-56 144.641,-32.8188 241.997,-20.6523 305.183,-15.0473"/>
<polygon fill="midnightblue" stroke="midnightblue" points="305.736,-18.5129 315.4,-14.1715 305.138,-11.5385 305.736,-18.5129"/>
</g>
<!-- Node18 -->
<g id="node18" class="node"><title>Node18</title>
<g id="a_node18"><a xlink:href="a00190_source.html" target="_top" xlink:title="freetds/proto.h">
<polygon fill="white" stroke="black" points="213.5,-112.5 213.5,-131.5 299.5,-131.5 299.5,-112.5 213.5,-112.5"/>
<text text-anchor="middle" x="256.5" y="-119.5" font-family="Helvetica,sans-Serif" font-size="10.00">freetds/proto.h</text>
</a>
</g>
</g>
<!-- Node6&#45;&gt;Node18 -->
<g id="edge25" class="edge"><title>Node6&#45;&gt;Node18</title>
<path fill="none" stroke="midnightblue" d="M514.711,-170.106C462.703,-160.618 368.805,-143.488 309.713,-132.708"/>
<polygon fill="midnightblue" stroke="midnightblue" points="310.287,-129.255 299.821,-130.903 309.031,-136.141 310.287,-129.255"/>
</g>
<!-- Node7&#45;&gt;Node7 -->
<g id="edge9" class="edge"><title>Node7&#45;&gt;Node7</title>
<path fill="none" stroke="midnightblue" d="M356.768,-131.575C368.287,-134.27 379.5,-131.078 379.5,-122 379.5,-115.759 374.2,-112.3 367.145,-111.623"/>
<polygon fill="midnightblue" stroke="midnightblue" points="366.469,-108.165 356.768,-112.425 367.008,-115.144 366.469,-108.165"/>
</g>
<!-- Node12&#45;&gt;Node3 -->
<g id="edge15" class="edge"><title>Node12&#45;&gt;Node3</title>
<path fill="none" stroke="midnightblue" d="M487.021,-113.364C489.889,-112.895 492.734,-112.437 495.5,-112 601.445,-95.2548 631.363,-97.2867 739.632,-76.2242"/>
<polygon fill="midnightblue" stroke="midnightblue" points="740.517,-79.6172 749.654,-74.2528 739.166,-72.7488 740.517,-79.6172"/>
</g>
<!-- Node12&#45;&gt;Node10 -->
<g id="edge17" class="edge"><title>Node12&#45;&gt;Node10</title>
<path fill="none" stroke="midnightblue" d="M477.835,-112.444C516.411,-103.102 578.285,-88.1194 620.353,-77.9326"/>
<polygon fill="midnightblue" stroke="midnightblue" points="621.435,-81.2717 630.33,-75.5164 619.787,-74.4683 621.435,-81.2717"/>
</g>
<!-- Node13 -->
<g id="node13" class="node"><title>Node13</title>
<g id="a_node13"><a xlink:href="a00213_source.html" target="_top" xlink:title="tds_sysdep_public.h">
<polygon fill="white" stroke="black" points="126,-56.5 126,-75.5 237,-75.5 237,-56.5 126,-56.5"/>
<text text-anchor="middle" x="181.5" y="-63.5" font-family="Helvetica,sans-Serif" font-size="10.00">tds_sysdep_public.h</text>
</a>
</g>
</g>
<!-- Node12&#45;&gt;Node13 -->
<g id="edge16" class="edge"><title>Node12&#45;&gt;Node13</title>
<path fill="none" stroke="midnightblue" d="M401.144,-112.444C355.422,-102.984 281.736,-87.7384 232.478,-77.5472"/>
<polygon fill="midnightblue" stroke="midnightblue" points="233.164,-74.1152 222.663,-75.5164 231.746,-80.97 233.164,-74.1152"/>
</g>
<!-- Node14 -->
<g id="node14" class="node"><title>Node14</title>
<g id="a_node14"><a xlink:href="a00206_source.html" target="_top" xlink:title="replacements/readpassphrase.h">
<polygon fill="white" stroke="black" points="374,-56.5 374,-75.5 543,-75.5 543,-56.5 374,-56.5"/>
<text text-anchor="middle" x="458.5" y="-63.5" font-family="Helvetica,sans-Serif" font-size="10.00">replacements/readpassphrase.h</text>
</a>
</g>
</g>
<!-- Node12&#45;&gt;Node14 -->
<g id="edge18" class="edge"><title>Node12&#45;&gt;Node14</title>
<path fill="none" stroke="midnightblue" d="M445.142,-112.083C447.286,-104.849 450.379,-94.4087 453.049,-85.3968"/>
<polygon fill="midnightblue" stroke="midnightblue" points="456.422,-86.3334 455.907,-75.7511 449.71,-84.3447 456.422,-86.3334"/>
</g>
<!-- Node12&#45;&gt;Node15 -->
<g id="edge22" class="edge"><title>Node12&#45;&gt;Node15</title>
<path fill="none" stroke="midnightblue" d="M464.891,-112.461C487.113,-103.822 522.021,-89.8063 551.5,-76 568.784,-67.9053 572.178,-64.0126 589.5,-56 615.676,-43.8915 646.079,-31.7957 668.598,-23.1989"/>
<polygon fill="midnightblue" stroke="midnightblue" points="669.926,-26.4387 678.038,-19.6236 667.447,-19.8925 669.926,-26.4387"/>
</g>
<!-- Node12&#45;&gt;Node16 -->
<g id="edge23" class="edge"><title>Node12&#45;&gt;Node16</title>
<path fill="none" stroke="midnightblue" d="M403.46,-112.452C359.082,-102.344 291.804,-85.6742 284.5,-76 268.282,-54.518 299.372,-35.3788 326.763,-23.526"/>
<polygon fill="midnightblue" stroke="midnightblue" points="328.293,-26.6816 336.214,-19.6455 325.634,-20.2062 328.293,-26.6816"/>
</g>
<!-- Node17 -->
<g id="node17" class="node"><title>Node17</title>
<g id="a_node17"><a xlink:href="a00181.html" target="_top" xlink:title="Provide poll call where missing. ">
<polygon fill="white" stroke="red" points="293.5,-56.5 293.5,-75.5 355.5,-75.5 355.5,-56.5 293.5,-56.5"/>
<text text-anchor="middle" x="324.5" y="-63.5" font-family="Helvetica,sans-Serif" font-size="10.00">fakepoll.h</text>
</a>
</g>
</g>
<!-- Node12&#45;&gt;Node17 -->
<g id="edge21" class="edge"><title>Node12&#45;&gt;Node17</title>
<path fill="none" stroke="midnightblue" d="M423.803,-112.444C404.556,-103.636 374.348,-89.8116 352.3,-79.722"/>
<polygon fill="midnightblue" stroke="midnightblue" points="353.66,-76.4951 343.11,-75.5164 350.747,-82.8603 353.66,-76.4951"/>
</g>
<!-- Node14&#45;&gt;Node15 -->
<g id="edge19" class="edge"><title>Node14&#45;&gt;Node15</title>
<path fill="none" stroke="midnightblue" d="M497.004,-56.4435C539.306,-47.0431 607.319,-31.9291 653.173,-21.7393"/>
<polygon fill="midnightblue" stroke="midnightblue" points="654.173,-25.1025 663.176,-19.5164 652.655,-18.2692 654.173,-25.1025"/>
</g>
<!-- Node14&#45;&gt;Node16 -->
<g id="edge20" class="edge"><title>Node14&#45;&gt;Node16</title>
<path fill="none" stroke="midnightblue" d="M442.915,-56.324C427.501,-47.7428 403.688,-34.486 385.79,-24.5224"/>
<polygon fill="midnightblue" stroke="midnightblue" points="387.486,-21.4606 377.046,-19.6545 384.081,-27.5767 387.486,-21.4606"/>
</g>
<!-- Node19&#45;&gt;Node15 -->
<g id="edge28" class="edge"><title>Node19&#45;&gt;Node15</title>
<path fill="none" stroke="midnightblue" d="M872.334,-56.4435C837.441,-47.1616 781.607,-32.3093 743.329,-22.127"/>
<polygon fill="midnightblue" stroke="midnightblue" points="744.079,-18.7048 733.515,-19.5164 742.28,-25.4696 744.079,-18.7048"/>
</g>
<!-- Node19&#45;&gt;Node16 -->
<g id="edge29" class="edge"><title>Node19&#45;&gt;Node16</title>
<path fill="none" stroke="midnightblue" d="M861.468,-60.6911C846.591,-59.2028 829.813,-57.5262 814.5,-56 671.67,-41.7643 503.501,-25.0786 417.833,-16.584"/>
<polygon fill="midnightblue" stroke="midnightblue" points="418.099,-13.0933 407.802,-15.5894 417.408,-20.0591 418.099,-13.0933"/>
</g>
</g>
</svg>
