<?xml version="1.0" encoding="UTF-8" standalone="no"?>
<!DOCTYPE svg PUBLIC "-//W3C//DTD SVG 1.1//EN"
 "http://www.w3.org/Graphics/SVG/1.1/DTD/svg11.dtd">
<!-- Generated by graphviz version 2.38.0 (20140413.2041)
 -->
<!-- Title: src/tds/data.c Pages: 1 -->
<svg width="1475pt" height="252pt"
 viewBox="0.00 0.00 1475.00 252.00" xmlns="http://www.w3.org/2000/svg" xmlns:xlink="http://www.w3.org/1999/xlink">
<g id="graph0" class="graph" transform="scale(1 1) rotate(0) translate(4 248)">
<title>src/tds/data.c</title>
<polygon fill="white" stroke="none" points="-4,4 -4,-248 1471,-248 1471,4 -4,4"/>
<!-- Node1 -->
<g id="node1" class="node"><title>Node1</title>
<polygon fill="#bfbfbf" stroke="black" points="268.5,-224.5 268.5,-243.5 348.5,-243.5 348.5,-224.5 268.5,-224.5"/>
<text text-anchor="middle" x="308.5" y="-231.5" font-family="Helvetica,sans-Serif" font-size="10.00">src/tds/data.c</text>
</g>
<!-- Node2 -->
<g id="node2" class="node"><title>Node2</title>
<polygon fill="white" stroke="#bfbfbf" points="0,-168.5 0,-187.5 53,-187.5 53,-168.5 0,-168.5"/>
<text text-anchor="middle" x="26.5" y="-175.5" font-family="Helvetica,sans-Serif" font-size="10.00">config.h</text>
</g>
<!-- Node1&#45;&gt;Node2 -->
<g id="edge1" class="edge"><title>Node1&#45;&gt;Node2</title>
<path fill="none" stroke="midnightblue" d="M268.341,-225.901C220.443,-217.341 137.993,-202.315 67.5,-188 66.2145,-187.739 64.907,-187.47 63.5871,-187.196"/>
<polygon fill="midnightblue" stroke="midnightblue" points="63.8897,-183.682 53.3806,-185.027 62.4349,-190.529 63.8897,-183.682"/>
</g>
<!-- Node3 -->
<g id="node3" class="node"><title>Node3</title>
<polygon fill="white" stroke="#bfbfbf" points="420,-56.5 420,-75.5 475,-75.5 475,-56.5 420,-56.5"/>
<text text-anchor="middle" x="447.5" y="-63.5" font-family="Helvetica,sans-Serif" font-size="10.00">stdarg.h</text>
</g>
<!-- Node1&#45;&gt;Node3 -->
<g id="edge2" class="edge"><title>Node1&#45;&gt;Node3</title>
<path fill="none" stroke="midnightblue" d="M302.424,-224.363C288.202,-202.987 255.894,-146.834 282.5,-112 284.488,-109.398 362.122,-89.0045 410.179,-76.5815"/>
<polygon fill="midnightblue" stroke="midnightblue" points="411.139,-79.9486 419.947,-74.0609 409.39,-73.1706 411.139,-79.9486"/>
</g>
<!-- Node4 -->
<g id="node4" class="node"><title>Node4</title>
<polygon fill="white" stroke="#bfbfbf" points="292,-112.5 292,-131.5 339,-131.5 339,-112.5 292,-112.5"/>
<text text-anchor="middle" x="315.5" y="-119.5" font-family="Helvetica,sans-Serif" font-size="10.00">stdio.h</text>
</g>
<!-- Node1&#45;&gt;Node4 -->
<g id="edge3" class="edge"><title>Node1&#45;&gt;Node4</title>
<path fill="none" stroke="midnightblue" d="M309.049,-224.368C310.179,-206.617 312.785,-165.666 314.317,-141.597"/>
<polygon fill="midnightblue" stroke="midnightblue" points="317.811,-141.794 314.953,-131.591 310.825,-141.349 317.811,-141.794"/>
</g>
<!-- Node5 -->
<g id="node5" class="node"><title>Node5</title>
<polygon fill="white" stroke="#bfbfbf" points="147.5,-168.5 147.5,-187.5 201.5,-187.5 201.5,-168.5 147.5,-168.5"/>
<text text-anchor="middle" x="174.5" y="-175.5" font-family="Helvetica,sans-Serif" font-size="10.00">assert.h</text>
</g>
<!-- Node1&#45;&gt;Node5 -->
<g id="edge4" class="edge"><title>Node1&#45;&gt;Node5</title>
<path fill="none" stroke="midnightblue" d="M287.267,-224.444C265.116,-215.517 230.181,-201.439 205.064,-191.317"/>
<polygon fill="midnightblue" stroke="midnightblue" points="206.217,-188.008 195.633,-187.516 203.6,-194.501 206.217,-188.008"/>
</g>
<!-- Node6 -->
<g id="node6" class="node"><title>Node6</title>
<g id="a_node6"><a xlink:href="a00196.html" target="_top" xlink:title="Main include file for libtds. ">
<polygon fill="white" stroke="black" points="518,-168.5 518,-187.5 593,-187.5 593,-168.5 518,-168.5"/>
<text text-anchor="middle" x="555.5" y="-175.5" font-family="Helvetica,sans-Serif" font-size="10.00">freetds/tds.h</text>
</a>
</g>
</g>
<!-- Node1&#45;&gt;Node6 -->
<g id="edge5" class="edge"><title>Node1&#45;&gt;Node6</title>
<path fill="none" stroke="midnightblue" d="M347.638,-224.444C391.107,-214.94 461.285,-199.598 507.9,-189.407"/>
<polygon fill="midnightblue" stroke="midnightblue" points="508.739,-192.806 517.76,-187.251 507.243,-185.967 508.739,-192.806"/>
</g>
<!-- Node15 -->
<g id="node15" class="node"><title>Node15</title>
<g id="a_node15"><a xlink:href="a00191_source.html" target="_top" xlink:title="freetds/pushvis.h">
<polygon fill="white" stroke="black" points="1058.5,-0.5 1058.5,-19.5 1154.5,-19.5 1154.5,-0.5 1058.5,-0.5"/>
<text text-anchor="middle" x="1106.5" y="-7.5" font-family="Helvetica,sans-Serif" font-size="10.00">freetds/pushvis.h</text>
</a>
</g>
</g>
<!-- Node1&#45;&gt;Node15 -->
<g id="edge40" class="edge"><title>Node1&#45;&gt;Node15</title>
<path fill="none" stroke="midnightblue" d="M348.785,-231.705C478.521,-227.336 884.492,-212.046 1013.5,-188 1095.03,-172.804 1112.87,-158.38 1191.5,-132 1261.74,-108.435 1305.81,-136.549 1348.5,-76 1353.62,-68.7351 1354.18,-62.8358 1348.5,-56 1325.6,-28.4493 1228.89,-17.6841 1164.88,-13.5352"/>
<polygon fill="midnightblue" stroke="midnightblue" points="1164.7,-10.0181 1154.51,-12.902 1164.28,-17.0051 1164.7,-10.0181"/>
</g>
<!-- Node16 -->
<g id="node16" class="node"><title>Node16</title>
<g id="a_node16"><a xlink:href="a00189_source.html" target="_top" xlink:title="freetds/popvis.h">
<polygon fill="white" stroke="black" points="458.5,-0.5 458.5,-19.5 550.5,-19.5 550.5,-0.5 458.5,-0.5"/>
<text text-anchor="middle" x="504.5" y="-7.5" font-family="Helvetica,sans-Serif" font-size="10.00">freetds/popvis.h</text>
</a>
</g>
</g>
<!-- Node1&#45;&gt;Node16 -->
<g id="edge41" class="edge"><title>Node1&#45;&gt;Node16</title>
<path fill="none" stroke="midnightblue" d="M268.366,-228.731C220.462,-222.711 144.652,-209.938 127.5,-188 89.8983,-139.905 116.317,-92.1663 165.5,-56 209.235,-23.8403 363.474,-14.6638 448.024,-12.0454"/>
<polygon fill="midnightblue" stroke="midnightblue" points="448.332,-15.5381 458.227,-11.7508 448.13,-8.54101 448.332,-15.5381"/>
</g>
<!-- Node19 -->
<g id="node19" class="node"><title>Node19</title>
<g id="a_node19"><a xlink:href="a00182_source.html" target="_top" xlink:title="freetds/bytes.h">
<polygon fill="white" stroke="black" points="336.5,-168.5 336.5,-187.5 422.5,-187.5 422.5,-168.5 336.5,-168.5"/>
<text text-anchor="middle" x="379.5" y="-175.5" font-family="Helvetica,sans-Serif" font-size="10.00">freetds/bytes.h</text>
</a>
</g>
</g>
<!-- Node1&#45;&gt;Node19 -->
<g id="edge27" class="edge"><title>Node1&#45;&gt;Node19</title>
<path fill="none" stroke="midnightblue" d="M319.907,-224.324C330.609,-216.185 346.841,-203.839 359.663,-194.087"/>
<polygon fill="midnightblue" stroke="midnightblue" points="362.044,-196.673 367.885,-187.834 357.807,-191.102 362.044,-196.673"/>
</g>
<!-- Node20 -->
<g id="node20" class="node"><title>Node20</title>
<g id="a_node20"><a xlink:href="a00187_source.html" target="_top" xlink:title="freetds/iconv.h">
<polygon fill="white" stroke="black" points="1253.5,-56.5 1253.5,-75.5 1339.5,-75.5 1339.5,-56.5 1253.5,-56.5"/>
<text text-anchor="middle" x="1296.5" y="-63.5" font-family="Helvetica,sans-Serif" font-size="10.00">freetds/iconv.h</text>
</a>
</g>
</g>
<!-- Node1&#45;&gt;Node20 -->
<g id="edge28" class="edge"><title>Node1&#45;&gt;Node20</title>
<path fill="none" stroke="midnightblue" d="M348.537,-233.047C450.455,-232.554 727.705,-227.382 954.5,-188 1045.03,-172.281 1067.21,-163.546 1153.5,-132 1195.43,-116.673 1242.21,-94.3692 1270.49,-80.2786"/>
<polygon fill="midnightblue" stroke="midnightblue" points="1272.32,-83.2774 1279.68,-75.6621 1269.17,-77.0217 1272.32,-83.2774"/>
</g>
<!-- Node21 -->
<g id="node21" class="node"><title>Node21</title>
<g id="a_node21"><a xlink:href="a00323_source.html" target="_top" xlink:title="tds_checks.h">
<polygon fill="white" stroke="black" points="174.5,-56.5 174.5,-75.5 252.5,-75.5 252.5,-56.5 174.5,-56.5"/>
<text text-anchor="middle" x="213.5" y="-63.5" font-family="Helvetica,sans-Serif" font-size="10.00">tds_checks.h</text>
</a>
</g>
</g>
<!-- Node1&#45;&gt;Node21 -->
<g id="edge31" class="edge"><title>Node1&#45;&gt;Node21</title>
<path fill="none" stroke="midnightblue" d="M268.395,-228.024C223.283,-221.506 154.236,-208.443 138.5,-188 110.665,-151.838 161.997,-104.895 192.778,-81.5344"/>
<polygon fill="midnightblue" stroke="midnightblue" points="194.858,-84.3494 200.832,-75.5994 190.705,-78.7143 194.858,-84.3494"/>
</g>
<!-- Node22 -->
<g id="node22" class="node"><title>Node22</title>
<g id="a_node22"><a xlink:href="a00193_source.html" target="_top" xlink:title="freetds/stream.h">
<polygon fill="white" stroke="black" points="309,-56.5 309,-75.5 402,-75.5 402,-56.5 309,-56.5"/>
<text text-anchor="middle" x="355.5" y="-63.5" font-family="Helvetica,sans-Serif" font-size="10.00">freetds/stream.h</text>
</a>
</g>
</g>
<!-- Node1&#45;&gt;Node22 -->
<g id="edge34" class="edge"><title>Node1&#45;&gt;Node22</title>
<path fill="none" stroke="midnightblue" d="M291.879,-224.386C278.972,-216.718 261.902,-204.211 253.5,-188 237.935,-157.97 230.832,-140.206 249.5,-112 260.827,-94.8855 280.115,-84.2608 299.158,-77.6731"/>
<polygon fill="midnightblue" stroke="midnightblue" points="300.253,-80.9978 308.749,-74.668 298.16,-74.318 300.253,-80.9978"/>
</g>
<!-- Node23 -->
<g id="node23" class="node"><title>Node23</title>
<g id="a_node23"><a xlink:href="a00185_source.html" target="_top" xlink:title="freetds/data.h">
<polygon fill="white" stroke="black" points="1153.5,-56.5 1153.5,-75.5 1235.5,-75.5 1235.5,-56.5 1153.5,-56.5"/>
<text text-anchor="middle" x="1194.5" y="-63.5" font-family="Helvetica,sans-Serif" font-size="10.00">freetds/data.h</text>
</a>
</g>
</g>
<!-- Node1&#45;&gt;Node23 -->
<g id="edge37" class="edge"><title>Node1&#45;&gt;Node23</title>
<path fill="none" stroke="midnightblue" d="M348.832,-231.319C493.449,-224.787 984.831,-198.1 1125.5,-132 1148.91,-121 1169.58,-99.0099 1182.05,-83.6682"/>
<polygon fill="midnightblue" stroke="midnightblue" points="1185.01,-85.5712 1188.41,-75.5369 1179.49,-81.2605 1185.01,-85.5712"/>
</g>
<!-- Node24 -->
<g id="node24" class="node"><title>Node24</title>
<g id="a_node24"><a xlink:href="a00324_source.html" target="_top" xlink:title="tds_types.h">
<polygon fill="white" stroke="black" points="1396,-168.5 1396,-187.5 1467,-187.5 1467,-168.5 1396,-168.5"/>
<text text-anchor="middle" x="1431.5" y="-175.5" font-family="Helvetica,sans-Serif" font-size="10.00">tds_types.h</text>
</a>
</g>
</g>
<!-- Node1&#45;&gt;Node24 -->
<g id="edge42" class="edge"><title>Node1&#45;&gt;Node24</title>
<path fill="none" stroke="midnightblue" d="M348.597,-233.282C490.261,-233.86 980.279,-232.315 1381.5,-188 1382.81,-187.856 1384.13,-187.698 1385.47,-187.528"/>
<polygon fill="midnightblue" stroke="midnightblue" points="1386.41,-190.928 1395.81,-186.034 1385.41,-184 1386.41,-190.928"/>
</g>
<!-- Node6&#45;&gt;Node3 -->
<g id="edge6" class="edge"><title>Node6&#45;&gt;Node3</title>
<path fill="none" stroke="midnightblue" d="M517.842,-169.65C496.137,-163.388 470.298,-152.075 455.5,-132 445.705,-118.712 444.447,-99.5894 445.194,-85.5241"/>
<polygon fill="midnightblue" stroke="midnightblue" points="448.682,-85.8111 446.097,-75.5364 441.71,-85.1805 448.682,-85.8111"/>
</g>
<!-- Node6&#45;&gt;Node4 -->
<g id="edge7" class="edge"><title>Node6&#45;&gt;Node4</title>
<path fill="none" stroke="midnightblue" d="M517.864,-168.773C477.27,-159.863 410.752,-145.156 353.5,-132 352.055,-131.668 350.579,-131.327 349.088,-130.981"/>
<polygon fill="midnightblue" stroke="midnightblue" points="349.74,-127.539 339.205,-128.666 348.144,-134.354 349.74,-127.539"/>
</g>
<!-- Node7 -->
<g id="node7" class="node"><title>Node7</title>
<g id="a_node7"><a xlink:href="a00198_source.html" target="_top" xlink:title="time.h">
<polygon fill="white" stroke="black" points="575.5,-112.5 575.5,-131.5 619.5,-131.5 619.5,-112.5 575.5,-112.5"/>
<text text-anchor="middle" x="597.5" y="-119.5" font-family="Helvetica,sans-Serif" font-size="10.00">time.h</text>
</a>
</g>
</g>
<!-- Node6&#45;&gt;Node7 -->
<g id="edge8" class="edge"><title>Node6&#45;&gt;Node7</title>
<path fill="none" stroke="midnightblue" d="M562.435,-168.083C568.429,-160.377 577.252,-149.033 584.548,-139.653"/>
<polygon fill="midnightblue" stroke="midnightblue" points="587.317,-141.793 590.694,-131.751 581.791,-137.496 587.317,-141.793"/>
</g>
<!-- Node8 -->
<g id="node8" class="node"><title>Node8</title>
<g id="a_node8"><a xlink:href="a00200_source.html" target="_top" xlink:title="freetds/version.h">
<polygon fill="white" stroke="black" points="656,-112.5 656,-131.5 751,-131.5 751,-112.5 656,-112.5"/>
<text text-anchor="middle" x="703.5" y="-119.5" font-family="Helvetica,sans-Serif" font-size="10.00">freetds/version.h</text>
</a>
</g>
</g>
<!-- Node6&#45;&gt;Node8 -->
<g id="edge10" class="edge"><title>Node6&#45;&gt;Node8</title>
<path fill="none" stroke="midnightblue" d="M578.951,-168.444C603.633,-159.438 642.685,-145.189 670.477,-135.049"/>
<polygon fill="midnightblue" stroke="midnightblue" points="671.964,-138.232 680.159,-131.516 669.565,-131.656 671.964,-138.232"/>
</g>
<!-- Node9 -->
<g id="node9" class="node"><title>Node9</title>
<polygon fill="white" stroke="#bfbfbf" points="769,-112.5 769,-131.5 880,-131.5 880,-112.5 769,-112.5"/>
<text text-anchor="middle" x="824.5" y="-119.5" font-family="Helvetica,sans-Serif" font-size="10.00">tds_sysdep_public.h</text>
</g>
<!-- Node6&#45;&gt;Node9 -->
<g id="edge11" class="edge"><title>Node6&#45;&gt;Node9</title>
<path fill="none" stroke="midnightblue" d="M593.187,-169.435C639.78,-160.081 719.347,-144.109 771.928,-133.553"/>
<polygon fill="midnightblue" stroke="midnightblue" points="772.627,-136.983 781.742,-131.583 771.249,-130.12 772.627,-136.983"/>
</g>
<!-- Node10 -->
<g id="node10" class="node"><title>Node10</title>
<g id="a_node10"><a xlink:href="a00195_source.html" target="_top" xlink:title="freetds/sysdep_private.h">
<polygon fill="white" stroke="black" points="493,-56.5 493,-75.5 626,-75.5 626,-56.5 493,-56.5"/>
<text text-anchor="middle" x="559.5" y="-63.5" font-family="Helvetica,sans-Serif" font-size="10.00">freetds/sysdep_private.h</text>
</a>
</g>
</g>
<!-- Node6&#45;&gt;Node10 -->
<g id="edge12" class="edge"><title>Node6&#45;&gt;Node10</title>
<path fill="none" stroke="midnightblue" d="M521.668,-168.492C488.435,-158.363 445.062,-139.312 462.5,-112 472.699,-96.0253 490.191,-85.6351 507.536,-78.9159"/>
<polygon fill="midnightblue" stroke="midnightblue" points="508.838,-82.1683 517.11,-75.5486 506.515,-75.5648 508.838,-82.1683"/>
</g>
<!-- Node11 -->
<g id="node11" class="node"><title>Node11</title>
<g id="a_node11"><a xlink:href="a00197_source.html" target="_top" xlink:title="freetds/thread.h">
<polygon fill="white" stroke="black" points="1005.5,-112.5 1005.5,-131.5 1097.5,-131.5 1097.5,-112.5 1005.5,-112.5"/>
<text text-anchor="middle" x="1051.5" y="-119.5" font-family="Helvetica,sans-Serif" font-size="10.00">freetds/thread.h</text>
</a>
</g>
</g>
<!-- Node6&#45;&gt;Node11 -->
<g id="edge13" class="edge"><title>Node6&#45;&gt;Node11</title>
<path fill="none" stroke="midnightblue" d="M593.051,-173.94C667.634,-167.696 839.929,-152.443 995.12,-132.112"/>
<polygon fill="midnightblue" stroke="midnightblue" points="995.861,-135.544 1005.32,-130.765 994.944,-128.605 995.861,-135.544"/>
</g>
<!-- Node12 -->
<g id="node12" class="node"><title>Node12</title>
<g id="a_node12"><a xlink:href="a00205_source.html" target="_top" xlink:title="replacements.h">
<polygon fill="white" stroke="black" points="898,-112.5 898,-131.5 987,-131.5 987,-112.5 898,-112.5"/>
<text text-anchor="middle" x="942.5" y="-119.5" font-family="Helvetica,sans-Serif" font-size="10.00">replacements.h</text>
</a>
</g>
</g>
<!-- Node6&#45;&gt;Node12 -->
<g id="edge14" class="edge"><title>Node6&#45;&gt;Node12</title>
<path fill="none" stroke="midnightblue" d="M593.127,-172.358C653.218,-164.851 774.805,-149.281 887.781,-132.222"/>
<polygon fill="midnightblue" stroke="midnightblue" points="888.623,-135.634 897.985,-130.673 887.573,-128.713 888.623,-135.634"/>
</g>
<!-- Node6&#45;&gt;Node15 -->
<g id="edge24" class="edge"><title>Node6&#45;&gt;Node15</title>
<path fill="none" stroke="midnightblue" d="M593.146,-176.806C711.735,-175.806 1071.78,-169.669 1106.5,-132 1132.15,-104.168 1121.7,-55.5758 1113.25,-29.2322"/>
<polygon fill="midnightblue" stroke="midnightblue" points="1116.54,-28.0377 1109.97,-19.7231 1109.92,-30.3178 1116.54,-28.0377"/>
</g>
<!-- Node6&#45;&gt;Node16 -->
<g id="edge26" class="edge"><title>Node6&#45;&gt;Node16</title>
<path fill="none" stroke="midnightblue" d="M520.836,-168.458C457.086,-151.97 325.371,-114.019 299.5,-76 262.212,-21.204 375.213,-11.1475 448.001,-10.1315"/>
<polygon fill="midnightblue" stroke="midnightblue" points="448.456,-13.6278 458.426,-10.0429 448.396,-6.62809 448.456,-13.6278"/>
</g>
<!-- Node18 -->
<g id="node18" class="node"><title>Node18</title>
<g id="a_node18"><a xlink:href="a00190_source.html" target="_top" xlink:title="freetds/proto.h">
<polygon fill="white" stroke="black" points="471.5,-112.5 471.5,-131.5 557.5,-131.5 557.5,-112.5 471.5,-112.5"/>
<text text-anchor="middle" x="514.5" y="-119.5" font-family="Helvetica,sans-Serif" font-size="10.00">freetds/proto.h</text>
</a>
</g>
</g>
<!-- Node6&#45;&gt;Node18 -->
<g id="edge25" class="edge"><title>Node6&#45;&gt;Node18</title>
<path fill="none" stroke="midnightblue" d="M548.73,-168.083C542.938,-160.455 534.442,-149.264 527.362,-139.941"/>
<polygon fill="midnightblue" stroke="midnightblue" points="529.979,-137.599 521.144,-131.751 524.404,-141.832 529.979,-137.599"/>
</g>
<!-- Node7&#45;&gt;Node7 -->
<g id="edge9" class="edge"><title>Node7&#45;&gt;Node7</title>
<path fill="none" stroke="midnightblue" d="M614.768,-131.575C626.287,-134.27 637.5,-131.078 637.5,-122 637.5,-115.759 632.2,-112.3 625.145,-111.623"/>
<polygon fill="midnightblue" stroke="midnightblue" points="624.469,-108.165 614.768,-112.425 625.008,-115.144 624.469,-108.165"/>
</g>
<!-- Node12&#45;&gt;Node3 -->
<g id="edge15" class="edge"><title>Node12&#45;&gt;Node3</title>
<path fill="none" stroke="midnightblue" d="M897.718,-113.137C894.941,-112.73 892.184,-112.346 889.5,-112 713.083,-89.2366 663.907,-105.45 485.308,-76.0795"/>
<polygon fill="midnightblue" stroke="midnightblue" points="485.757,-72.606 475.317,-74.4115 484.604,-79.5105 485.757,-72.606"/>
</g>
<!-- Node12&#45;&gt;Node10 -->
<g id="edge17" class="edge"><title>Node12&#45;&gt;Node10</title>
<path fill="none" stroke="midnightblue" d="M897.984,-113.332C895.115,-112.871 892.268,-112.424 889.5,-112 802.923,-98.7497 703.266,-85.4251 636.319,-76.753"/>
<polygon fill="midnightblue" stroke="midnightblue" points="636.64,-73.2654 626.274,-75.4549 635.743,-80.2077 636.64,-73.2654"/>
</g>
<!-- Node13 -->
<g id="node13" class="node"><title>Node13</title>
<g id="a_node13"><a xlink:href="a00213_source.html" target="_top" xlink:title="tds_sysdep_public.h">
<polygon fill="white" stroke="black" points="762,-56.5 762,-75.5 873,-75.5 873,-56.5 762,-56.5"/>
<text text-anchor="middle" x="817.5" y="-63.5" font-family="Helvetica,sans-Serif" font-size="10.00">tds_sysdep_public.h</text>
</a>
</g>
</g>
<!-- Node12&#45;&gt;Node13 -->
<g id="edge16" class="edge"><title>Node12&#45;&gt;Node13</title>
<path fill="none" stroke="midnightblue" d="M922.693,-112.444C902.213,-103.596 870.017,-89.6875 846.635,-79.5865"/>
<polygon fill="midnightblue" stroke="midnightblue" points="847.782,-76.2692 837.214,-75.5164 845.006,-82.6953 847.782,-76.2692"/>
</g>
<!-- Node14 -->
<g id="node14" class="node"><title>Node14</title>
<g id="a_node14"><a xlink:href="a00206_source.html" target="_top" xlink:title="replacements/readpassphrase.h">
<polygon fill="white" stroke="black" points="891,-56.5 891,-75.5 1060,-75.5 1060,-56.5 891,-56.5"/>
<text text-anchor="middle" x="975.5" y="-63.5" font-family="Helvetica,sans-Serif" font-size="10.00">replacements/readpassphrase.h</text>
</a>
</g>
</g>
<!-- Node12&#45;&gt;Node14 -->
<g id="edge18" class="edge"><title>Node12&#45;&gt;Node14</title>
<path fill="none" stroke="midnightblue" d="M947.949,-112.083C952.514,-104.613 959.168,-93.7244 964.793,-84.5199"/>
<polygon fill="midnightblue" stroke="midnightblue" points="967.924,-86.109 970.152,-75.7511 961.951,-82.4588 967.924,-86.109"/>
</g>
<!-- Node12&#45;&gt;Node15 -->
<g id="edge22" class="edge"><title>Node12&#45;&gt;Node15</title>
<path fill="none" stroke="midnightblue" d="M987.263,-113.286C1013.55,-106.905 1046.09,-95.5935 1069.5,-76 1084.24,-63.6598 1094.31,-43.8508 1100.18,-29.3403"/>
<polygon fill="midnightblue" stroke="midnightblue" points="1103.48,-30.4859 1103.71,-19.8935 1096.93,-28.0312 1103.48,-30.4859"/>
</g>
<!-- Node12&#45;&gt;Node16 -->
<g id="edge23" class="edge"><title>Node12&#45;&gt;Node16</title>
<path fill="none" stroke="midnightblue" d="M897.969,-113.428C895.103,-112.944 892.261,-112.465 889.5,-112 793.525,-95.8532 765.899,-106.569 673.5,-76 655.006,-69.8816 652.415,-63.6493 634.5,-56 604.116,-43.0268 568.612,-30.9348 542.391,-22.5596"/>
<polygon fill="midnightblue" stroke="midnightblue" points="543.417,-19.213 532.827,-19.5376 541.308,-25.8878 543.417,-19.213"/>
</g>
<!-- Node17 -->
<g id="node17" class="node"><title>Node17</title>
<g id="a_node17"><a xlink:href="a00181.html" target="_top" xlink:title="Provide poll call where missing. ">
<polygon fill="white" stroke="red" points="682.5,-56.5 682.5,-75.5 744.5,-75.5 744.5,-56.5 682.5,-56.5"/>
<text text-anchor="middle" x="713.5" y="-63.5" font-family="Helvetica,sans-Serif" font-size="10.00">fakepoll.h</text>
</a>
</g>
</g>
<!-- Node12&#45;&gt;Node17 -->
<g id="edge21" class="edge"><title>Node12&#45;&gt;Node17</title>
<path fill="none" stroke="midnightblue" d="M906.214,-112.444C864.999,-102.725 797.885,-86.8987 754.725,-76.7212"/>
<polygon fill="midnightblue" stroke="midnightblue" points="755.369,-73.277 744.832,-74.3884 753.762,-80.0902 755.369,-73.277"/>
</g>
<!-- Node14&#45;&gt;Node15 -->
<g id="edge19" class="edge"><title>Node14&#45;&gt;Node15</title>
<path fill="none" stroke="midnightblue" d="M996.257,-56.4435C1017.82,-47.5566 1051.76,-33.5632 1076.29,-23.4514"/>
<polygon fill="midnightblue" stroke="midnightblue" points="1077.93,-26.5634 1085.84,-19.5164 1075.26,-20.0917 1077.93,-26.5634"/>
</g>
<!-- Node14&#45;&gt;Node16 -->
<g id="edge20" class="edge"><title>Node14&#45;&gt;Node16</title>
<path fill="none" stroke="midnightblue" d="M901.129,-56.4733C806.594,-45.635 645.512,-27.1669 560.638,-17.4362"/>
<polygon fill="midnightblue" stroke="midnightblue" points="561.008,-13.9558 550.675,-16.2939 560.211,-20.9103 561.008,-13.9558"/>
</g>
<!-- Node20&#45;&gt;Node15 -->
<g id="edge29" class="edge"><title>Node20&#45;&gt;Node15</title>
<path fill="none" stroke="midnightblue" d="M1266.39,-56.4435C1233.87,-47.2011 1181.92,-32.4356 1146.11,-22.2572"/>
<polygon fill="midnightblue" stroke="midnightblue" points="1147.04,-18.8837 1136.47,-19.5164 1145.13,-25.617 1147.04,-18.8837"/>
</g>
<!-- Node20&#45;&gt;Node16 -->
<g id="edge30" class="edge"><title>Node20&#45;&gt;Node16</title>
<path fill="none" stroke="midnightblue" d="M1253.42,-57.1665C1250.41,-56.7347 1247.41,-56.3395 1244.5,-56 990.208,-26.3543 684.336,-15.6104 560.555,-12.2927"/>
<polygon fill="midnightblue" stroke="midnightblue" points="560.641,-8.79386 550.553,-12.0303 560.457,-15.7914 560.641,-8.79386"/>
</g>
<!-- Node21&#45;&gt;Node15 -->
<g id="edge32" class="edge"><title>Node21&#45;&gt;Node15</title>
<path fill="none" stroke="midnightblue" d="M252.851,-60.476C267.484,-58.9008 284.237,-57.2235 299.5,-56 579.36,-33.5667 914.716,-18.7115 1047.87,-13.2922"/>
<polygon fill="midnightblue" stroke="midnightblue" points="1048.39,-16.7742 1058.24,-12.8727 1048.1,-9.7799 1048.39,-16.7742"/>
</g>
<!-- Node21&#45;&gt;Node16 -->
<g id="edge33" class="edge"><title>Node21&#45;&gt;Node16</title>
<path fill="none" stroke="midnightblue" d="M252.746,-57.7173C303.09,-48.375 390.753,-32.1078 448.203,-21.447"/>
<polygon fill="midnightblue" stroke="midnightblue" points="449.016,-24.8559 458.209,-19.59 447.739,-17.9734 449.016,-24.8559"/>
</g>
<!-- Node22&#45;&gt;Node15 -->
<g id="edge35" class="edge"><title>Node22&#45;&gt;Node15</title>
<path fill="none" stroke="midnightblue" d="M402.265,-57.0288C405.047,-56.6536 407.808,-56.3065 410.5,-56 646.055,-29.1772 928.42,-17.0609 1048.2,-12.8454"/>
<polygon fill="midnightblue" stroke="midnightblue" points="1048.39,-16.3414 1058.26,-12.4968 1048.14,-9.34556 1048.39,-16.3414"/>
</g>
<!-- Node22&#45;&gt;Node16 -->
<g id="edge36" class="edge"><title>Node22&#45;&gt;Node16</title>
<path fill="none" stroke="midnightblue" d="M379.109,-56.4435C403.958,-47.4381 443.274,-33.1891 471.254,-23.049"/>
<polygon fill="midnightblue" stroke="midnightblue" points="472.792,-26.2144 481.001,-19.5164 470.407,-19.6332 472.792,-26.2144"/>
</g>
<!-- Node23&#45;&gt;Node15 -->
<g id="edge38" class="edge"><title>Node23&#45;&gt;Node15</title>
<path fill="none" stroke="midnightblue" d="M1180.36,-56.324C1166.63,-47.9002 1145.56,-34.9709 1129.44,-25.0741"/>
<polygon fill="midnightblue" stroke="midnightblue" points="1130.96,-21.9016 1120.6,-19.6545 1127.3,-27.8678 1130.96,-21.9016"/>
</g>
<!-- Node23&#45;&gt;Node16 -->
<g id="edge39" class="edge"><title>Node23&#45;&gt;Node16</title>
<path fill="none" stroke="midnightblue" d="M1153.4,-61.7838C1035.49,-52.556 695.912,-25.9801 560.866,-15.4112"/>
<polygon fill="midnightblue" stroke="midnightblue" points="560.978,-11.9094 550.735,-14.6184 560.431,-18.888 560.978,-11.9094"/>
</g>
</g>
</svg>
