<?xml version="1.0" encoding="UTF-8" standalone="no"?>
<!DOCTYPE svg PUBLIC "-//W3C//DTD SVG 1.1//EN"
 "http://www.w3.org/Graphics/SVG/1.1/DTD/svg11.dtd">
<!-- Generated by graphviz version 2.38.0 (20140413.2041)
 -->
<!-- Title: src/tds/token.c Pages: 1 -->
<svg width="1249pt" height="252pt"
 viewBox="0.00 0.00 1248.50 252.00" xmlns="http://www.w3.org/2000/svg" xmlns:xlink="http://www.w3.org/1999/xlink">
<g id="graph0" class="graph" transform="scale(1 1) rotate(0) translate(4 248)">
<title>src/tds/token.c</title>
<polygon fill="white" stroke="none" points="-4,4 -4,-248 1244.5,-248 1244.5,4 -4,4"/>
<!-- Node1 -->
<g id="node1" class="node"><title>Node1</title>
<polygon fill="#bfbfbf" stroke="black" points="187,-224.5 187,-243.5 272,-243.5 272,-224.5 187,-224.5"/>
<text text-anchor="middle" x="229.5" y="-231.5" font-family="Helvetica,sans-Serif" font-size="10.00">src/tds/token.c</text>
</g>
<!-- Node2 -->
<g id="node2" class="node"><title>Node2</title>
<polygon fill="white" stroke="#bfbfbf" points="0,-168.5 0,-187.5 53,-187.5 53,-168.5 0,-168.5"/>
<text text-anchor="middle" x="26.5" y="-175.5" font-family="Helvetica,sans-Serif" font-size="10.00">config.h</text>
</g>
<!-- Node1&#45;&gt;Node2 -->
<g id="edge1" class="edge"><title>Node1&#45;&gt;Node2</title>
<path fill="none" stroke="midnightblue" d="M197.334,-224.444C160.696,-214.698 100.971,-198.81 62.7239,-188.636"/>
<polygon fill="midnightblue" stroke="midnightblue" points="63.5804,-185.242 53.0167,-186.054 61.7809,-192.007 63.5804,-185.242"/>
</g>
<!-- Node3 -->
<g id="node3" class="node"><title>Node3</title>
<polygon fill="white" stroke="#bfbfbf" points="71.5,-168.5 71.5,-187.5 125.5,-187.5 125.5,-168.5 71.5,-168.5"/>
<text text-anchor="middle" x="98.5" y="-175.5" font-family="Helvetica,sans-Serif" font-size="10.00">assert.h</text>
</g>
<!-- Node1&#45;&gt;Node3 -->
<g id="edge2" class="edge"><title>Node1&#45;&gt;Node3</title>
<path fill="none" stroke="midnightblue" d="M208.743,-224.444C187.184,-215.557 153.237,-201.563 128.706,-191.451"/>
<polygon fill="midnightblue" stroke="midnightblue" points="129.739,-188.092 119.16,-187.516 127.072,-194.563 129.739,-188.092"/>
</g>
<!-- Node4 -->
<g id="node4" class="node"><title>Node4</title>
<g id="a_node4"><a xlink:href="a00196.html" target="_top" xlink:title="Main include file for libtds. ">
<polygon fill="white" stroke="black" points="608,-168.5 608,-187.5 683,-187.5 683,-168.5 608,-168.5"/>
<text text-anchor="middle" x="645.5" y="-175.5" font-family="Helvetica,sans-Serif" font-size="10.00">freetds/tds.h</text>
</a>
</g>
</g>
<!-- Node1&#45;&gt;Node4 -->
<g id="edge3" class="edge"><title>Node1&#45;&gt;Node4</title>
<path fill="none" stroke="midnightblue" d="M272.064,-227.475C350.208,-217.331 516.019,-195.808 597.821,-185.189"/>
<polygon fill="midnightblue" stroke="midnightblue" points="598.377,-188.646 607.843,-183.888 597.476,-181.705 598.377,-188.646"/>
</g>
<!-- Node12 -->
<g id="node12" class="node"><title>Node12</title>
<g id="a_node12"><a xlink:href="a00205_source.html" target="_top" xlink:title="replacements.h">
<polygon fill="white" stroke="black" points="346,-112.5 346,-131.5 435,-131.5 435,-112.5 346,-112.5"/>
<text text-anchor="middle" x="390.5" y="-119.5" font-family="Helvetica,sans-Serif" font-size="10.00">replacements.h</text>
</a>
</g>
</g>
<!-- Node1&#45;&gt;Node12 -->
<g id="edge37" class="edge"><title>Node1&#45;&gt;Node12</title>
<path fill="none" stroke="midnightblue" d="M242.157,-224.379C255.446,-215.326 276.948,-200.671 295.5,-188 321,-170.583 350.33,-150.509 369.574,-137.332"/>
<polygon fill="midnightblue" stroke="midnightblue" points="371.63,-140.166 377.904,-131.628 367.675,-134.391 371.63,-140.166"/>
</g>
<!-- Node19 -->
<g id="node19" class="node"><title>Node19</title>
<g id="a_node19"><a xlink:href="a00194_source.html" target="_top" xlink:title="freetds/string.h">
<polygon fill="white" stroke="black" points="148,-56.5 148,-75.5 235,-75.5 235,-56.5 148,-56.5"/>
<text text-anchor="middle" x="191.5" y="-63.5" font-family="Helvetica,sans-Serif" font-size="10.00">freetds/string.h</text>
</a>
</g>
</g>
<!-- Node1&#45;&gt;Node19 -->
<g id="edge25" class="edge"><title>Node1&#45;&gt;Node19</title>
<path fill="none" stroke="midnightblue" d="M227.457,-224.075C221.475,-197.945 203.91,-121.211 195.753,-85.577"/>
<polygon fill="midnightblue" stroke="midnightblue" points="199.105,-84.5349 193.461,-75.5681 192.281,-86.097 199.105,-84.5349"/>
</g>
<!-- Node20 -->
<g id="node20" class="node"><title>Node20</title>
<g id="a_node20"><a xlink:href="a00184_source.html" target="_top" xlink:title="freetds/convert.h">
<polygon fill="white" stroke="black" points="33.5,-56.5 33.5,-75.5 129.5,-75.5 129.5,-56.5 33.5,-56.5"/>
<text text-anchor="middle" x="81.5" y="-63.5" font-family="Helvetica,sans-Serif" font-size="10.00">freetds/convert.h</text>
</a>
</g>
</g>
<!-- Node1&#45;&gt;Node20 -->
<g id="edge28" class="edge"><title>Node1&#45;&gt;Node20</title>
<path fill="none" stroke="midnightblue" d="M221.543,-224.075C197.742,-197.38 126.85,-117.865 96.052,-83.3218"/>
<polygon fill="midnightblue" stroke="midnightblue" points="98.4063,-80.7031 89.139,-75.5681 93.1814,-85.3615 98.4063,-80.7031"/>
</g>
<!-- Node21 -->
<g id="node21" class="node"><title>Node21</title>
<g id="a_node21"><a xlink:href="a00187_source.html" target="_top" xlink:title="freetds/iconv.h">
<polygon fill="white" stroke="black" points="253.5,-56.5 253.5,-75.5 339.5,-75.5 339.5,-56.5 253.5,-56.5"/>
<text text-anchor="middle" x="296.5" y="-63.5" font-family="Helvetica,sans-Serif" font-size="10.00">freetds/iconv.h</text>
</a>
</g>
</g>
<!-- Node1&#45;&gt;Node21 -->
<g id="edge31" class="edge"><title>Node1&#45;&gt;Node21</title>
<path fill="none" stroke="midnightblue" d="M233.102,-224.075C243.694,-197.832 274.888,-120.545 289.188,-85.1165"/>
<polygon fill="midnightblue" stroke="midnightblue" points="292.545,-86.1513 293.042,-75.5681 286.053,-83.5313 292.545,-86.1513"/>
</g>
<!-- Node22 -->
<g id="node22" class="node"><title>Node22</title>
<g id="a_node22"><a xlink:href="a00323_source.html" target="_top" xlink:title="tds_checks.h">
<polygon fill="white" stroke="black" points="1162.5,-56.5 1162.5,-75.5 1240.5,-75.5 1240.5,-56.5 1162.5,-56.5"/>
<text text-anchor="middle" x="1201.5" y="-63.5" font-family="Helvetica,sans-Serif" font-size="10.00">tds_checks.h</text>
</a>
</g>
</g>
<!-- Node1&#45;&gt;Node22 -->
<g id="edge34" class="edge"><title>Node1&#45;&gt;Node22</title>
<path fill="none" stroke="midnightblue" d="M272.103,-232.169C430.506,-228.489 984.322,-210.179 1139.5,-132 1161.18,-121.076 1179.42,-99.3985 1190.39,-84.0875"/>
<polygon fill="midnightblue" stroke="midnightblue" points="1193.49,-85.7598 1196.24,-75.5299 1187.71,-81.8079 1193.49,-85.7598"/>
</g>
<!-- Node5 -->
<g id="node5" class="node"><title>Node5</title>
<polygon fill="white" stroke="#bfbfbf" points="793,-56.5 793,-75.5 848,-75.5 848,-56.5 793,-56.5"/>
<text text-anchor="middle" x="820.5" y="-63.5" font-family="Helvetica,sans-Serif" font-size="10.00">stdarg.h</text>
</g>
<!-- Node4&#45;&gt;Node5 -->
<g id="edge4" class="edge"><title>Node4&#45;&gt;Node5</title>
<path fill="none" stroke="midnightblue" d="M627.581,-168.388C604.467,-156.146 569.175,-132.875 586.5,-112 614.223,-78.5955 735.94,-84.5486 778.5,-76 779.962,-75.7063 781.452,-75.4036 782.957,-75.095"/>
<polygon fill="midnightblue" stroke="midnightblue" points="783.884,-78.4769 792.959,-73.0078 782.454,-71.6245 783.884,-78.4769"/>
</g>
<!-- Node6 -->
<g id="node6" class="node"><title>Node6</title>
<polygon fill="white" stroke="#bfbfbf" points="596,-112.5 596,-131.5 643,-131.5 643,-112.5 596,-112.5"/>
<text text-anchor="middle" x="619.5" y="-119.5" font-family="Helvetica,sans-Serif" font-size="10.00">stdio.h</text>
</g>
<!-- Node4&#45;&gt;Node6 -->
<g id="edge5" class="edge"><title>Node4&#45;&gt;Node6</title>
<path fill="none" stroke="midnightblue" d="M641.207,-168.083C637.648,-160.691 632.478,-149.953 628.076,-140.811"/>
<polygon fill="midnightblue" stroke="midnightblue" points="631.205,-139.243 623.713,-131.751 624.898,-142.279 631.205,-139.243"/>
</g>
<!-- Node7 -->
<g id="node7" class="node"><title>Node7</title>
<g id="a_node7"><a xlink:href="a00198_source.html" target="_top" xlink:title="time.h">
<polygon fill="white" stroke="black" points="699.5,-112.5 699.5,-131.5 743.5,-131.5 743.5,-112.5 699.5,-112.5"/>
<text text-anchor="middle" x="721.5" y="-119.5" font-family="Helvetica,sans-Serif" font-size="10.00">time.h</text>
</a>
</g>
</g>
<!-- Node4&#45;&gt;Node7 -->
<g id="edge6" class="edge"><title>Node4&#45;&gt;Node7</title>
<path fill="none" stroke="midnightblue" d="M657.711,-168.324C669.276,-160.107 686.875,-147.602 700.661,-137.807"/>
<polygon fill="midnightblue" stroke="midnightblue" points="702.943,-140.479 709.067,-131.834 698.888,-134.773 702.943,-140.479"/>
</g>
<!-- Node8 -->
<g id="node8" class="node"><title>Node8</title>
<g id="a_node8"><a xlink:href="a00200_source.html" target="_top" xlink:title="freetds/version.h">
<polygon fill="white" stroke="black" points="780,-112.5 780,-131.5 875,-131.5 875,-112.5 780,-112.5"/>
<text text-anchor="middle" x="827.5" y="-119.5" font-family="Helvetica,sans-Serif" font-size="10.00">freetds/version.h</text>
</a>
</g>
</g>
<!-- Node4&#45;&gt;Node8 -->
<g id="edge8" class="edge"><title>Node4&#45;&gt;Node8</title>
<path fill="none" stroke="midnightblue" d="M674.338,-168.444C705.356,-159.241 754.829,-144.562 789.118,-134.388"/>
<polygon fill="midnightblue" stroke="midnightblue" points="790.205,-137.716 798.796,-131.516 788.214,-131.006 790.205,-137.716"/>
</g>
<!-- Node9 -->
<g id="node9" class="node"><title>Node9</title>
<polygon fill="white" stroke="#bfbfbf" points="893,-112.5 893,-131.5 1004,-131.5 1004,-112.5 893,-112.5"/>
<text text-anchor="middle" x="948.5" y="-119.5" font-family="Helvetica,sans-Serif" font-size="10.00">tds_sysdep_public.h</text>
</g>
<!-- Node4&#45;&gt;Node9 -->
<g id="edge9" class="edge"><title>Node4&#45;&gt;Node9</title>
<path fill="none" stroke="midnightblue" d="M683.263,-170.27C735.408,-160.977 829.919,-144.133 890.906,-133.264"/>
<polygon fill="midnightblue" stroke="midnightblue" points="891.536,-136.707 900.767,-131.507 890.308,-129.816 891.536,-136.707"/>
</g>
<!-- Node10 -->
<g id="node10" class="node"><title>Node10</title>
<g id="a_node10"><a xlink:href="a00195_source.html" target="_top" xlink:title="freetds/sysdep_private.h">
<polygon fill="white" stroke="black" points="866,-56.5 866,-75.5 999,-75.5 999,-56.5 866,-56.5"/>
<text text-anchor="middle" x="932.5" y="-63.5" font-family="Helvetica,sans-Serif" font-size="10.00">freetds/sysdep_private.h</text>
</a>
</g>
</g>
<!-- Node4&#45;&gt;Node10 -->
<g id="edge10" class="edge"><title>Node4&#45;&gt;Node10</title>
<path fill="none" stroke="midnightblue" d="M648.947,-168.19C655.025,-153.9 669.07,-125.874 690.5,-112 704.98,-102.625 797.461,-87.1754 863.791,-77.0428"/>
<polygon fill="midnightblue" stroke="midnightblue" points="864.423,-80.4869 873.785,-75.5259 863.373,-73.5662 864.423,-80.4869"/>
</g>
<!-- Node11 -->
<g id="node11" class="node"><title>Node11</title>
<g id="a_node11"><a xlink:href="a00197_source.html" target="_top" xlink:title="freetds/thread.h">
<polygon fill="white" stroke="black" points="1022.5,-112.5 1022.5,-131.5 1114.5,-131.5 1114.5,-112.5 1022.5,-112.5"/>
<text text-anchor="middle" x="1068.5" y="-119.5" font-family="Helvetica,sans-Serif" font-size="10.00">freetds/thread.h</text>
</a>
</g>
</g>
<!-- Node4&#45;&gt;Node11 -->
<g id="edge11" class="edge"><title>Node4&#45;&gt;Node11</title>
<path fill="none" stroke="midnightblue" d="M683.18,-172.903C748.124,-165.73 885.576,-150.064 1012.06,-132.158"/>
<polygon fill="midnightblue" stroke="midnightblue" points="1012.9,-135.573 1022.31,-130.698 1011.91,-128.643 1012.9,-135.573"/>
</g>
<!-- Node4&#45;&gt;Node12 -->
<g id="edge12" class="edge"><title>Node4&#45;&gt;Node12</title>
<path fill="none" stroke="midnightblue" d="M607.874,-169.032C563.547,-159.645 489.732,-144.014 440.595,-133.608"/>
<polygon fill="midnightblue" stroke="midnightblue" points="441.317,-130.184 430.809,-131.536 439.867,-137.032 441.317,-130.184"/>
</g>
<!-- Node15 -->
<g id="node15" class="node"><title>Node15</title>
<g id="a_node15"><a xlink:href="a00191_source.html" target="_top" xlink:title="freetds/pushvis.h">
<polygon fill="white" stroke="black" points="523.5,-0.5 523.5,-19.5 619.5,-19.5 619.5,-0.5 523.5,-0.5"/>
<text text-anchor="middle" x="571.5" y="-7.5" font-family="Helvetica,sans-Serif" font-size="10.00">freetds/pushvis.h</text>
</a>
</g>
</g>
<!-- Node4&#45;&gt;Node15 -->
<g id="edge22" class="edge"><title>Node4&#45;&gt;Node15</title>
<path fill="none" stroke="midnightblue" d="M683.016,-176.306C790.54,-173.933 1094.01,-164.399 1123.5,-132 1129.48,-125.427 1128.21,-119.537 1123.5,-112 1071.64,-29.0604 761.484,-14.093 630.17,-11.4942"/>
<polygon fill="midnightblue" stroke="midnightblue" points="629.965,-7.99006 619.903,-11.3092 629.839,-14.9889 629.965,-7.99006"/>
</g>
<!-- Node16 -->
<g id="node16" class="node"><title>Node16</title>
<g id="a_node16"><a xlink:href="a00189_source.html" target="_top" xlink:title="freetds/popvis.h">
<polygon fill="white" stroke="black" points="145.5,-0.5 145.5,-19.5 237.5,-19.5 237.5,-0.5 145.5,-0.5"/>
<text text-anchor="middle" x="191.5" y="-7.5" font-family="Helvetica,sans-Serif" font-size="10.00">freetds/popvis.h</text>
</a>
</g>
</g>
<!-- Node4&#45;&gt;Node16 -->
<g id="edge24" class="edge"><title>Node4&#45;&gt;Node16</title>
<path fill="none" stroke="midnightblue" d="M607.921,-177.1C483.66,-176.552 89.5532,-167.513 12.5,-76 -24.2375,-32.3681 69.8337,-18.0241 135.092,-13.3088"/>
<polygon fill="midnightblue" stroke="midnightblue" points="135.547,-16.7864 145.294,-12.6317 135.084,-9.80173 135.547,-16.7864"/>
</g>
<!-- Node18 -->
<g id="node18" class="node"><title>Node18</title>
<g id="a_node18"><a xlink:href="a00190_source.html" target="_top" xlink:title="freetds/proto.h">
<polygon fill="white" stroke="black" points="453.5,-112.5 453.5,-131.5 539.5,-131.5 539.5,-112.5 453.5,-112.5"/>
<text text-anchor="middle" x="496.5" y="-119.5" font-family="Helvetica,sans-Serif" font-size="10.00">freetds/proto.h</text>
</a>
</g>
</g>
<!-- Node4&#45;&gt;Node18 -->
<g id="edge23" class="edge"><title>Node4&#45;&gt;Node18</title>
<path fill="none" stroke="midnightblue" d="M621.891,-168.444C597.042,-159.438 557.726,-145.189 529.746,-135.049"/>
<polygon fill="midnightblue" stroke="midnightblue" points="530.593,-131.633 519.999,-131.516 528.208,-138.214 530.593,-131.633"/>
</g>
<!-- Node7&#45;&gt;Node7 -->
<g id="edge7" class="edge"><title>Node7&#45;&gt;Node7</title>
<path fill="none" stroke="midnightblue" d="M738.768,-131.575C750.287,-134.27 761.5,-131.078 761.5,-122 761.5,-115.759 756.2,-112.3 749.145,-111.623"/>
<polygon fill="midnightblue" stroke="midnightblue" points="748.469,-108.165 738.768,-112.425 749.008,-115.144 748.469,-108.165"/>
</g>
<!-- Node12&#45;&gt;Node5 -->
<g id="edge13" class="edge"><title>Node12&#45;&gt;Node5</title>
<path fill="none" stroke="midnightblue" d="M435.259,-113.336C438.383,-112.864 441.487,-112.413 444.5,-112 592.42,-91.7188 631.085,-99.6736 778.5,-76 779.784,-75.7938 781.088,-75.574 782.403,-75.3433"/>
<polygon fill="midnightblue" stroke="midnightblue" points="783.393,-78.7177 792.562,-73.409 782.084,-71.8412 783.393,-78.7177"/>
</g>
<!-- Node12&#45;&gt;Node10 -->
<g id="edge15" class="edge"><title>Node12&#45;&gt;Node10</title>
<path fill="none" stroke="midnightblue" d="M435.249,-113.265C438.376,-112.81 441.483,-112.382 444.5,-112 624.077,-89.2441 672.536,-94.772 855.884,-76.135"/>
<polygon fill="midnightblue" stroke="midnightblue" points="856.266,-79.6142 865.856,-75.1111 855.551,-72.6508 856.266,-79.6142"/>
</g>
<!-- Node13 -->
<g id="node13" class="node"><title>Node13</title>
<g id="a_node13"><a xlink:href="a00213_source.html" target="_top" xlink:title="tds_sysdep_public.h">
<polygon fill="white" stroke="black" points="358,-56.5 358,-75.5 469,-75.5 469,-56.5 358,-56.5"/>
<text text-anchor="middle" x="413.5" y="-63.5" font-family="Helvetica,sans-Serif" font-size="10.00">tds_sysdep_public.h</text>
</a>
</g>
</g>
<!-- Node12&#45;&gt;Node13 -->
<g id="edge14" class="edge"><title>Node12&#45;&gt;Node13</title>
<path fill="none" stroke="midnightblue" d="M394.298,-112.083C397.413,-104.77 401.923,-94.1814 405.789,-85.1034"/>
<polygon fill="midnightblue" stroke="midnightblue" points="409.074,-86.3229 409.773,-75.7511 402.634,-83.5798 409.074,-86.3229"/>
</g>
<!-- Node14 -->
<g id="node14" class="node"><title>Node14</title>
<g id="a_node14"><a xlink:href="a00206_source.html" target="_top" xlink:title="replacements/readpassphrase.h">
<polygon fill="white" stroke="black" points="487,-56.5 487,-75.5 656,-75.5 656,-56.5 487,-56.5"/>
<text text-anchor="middle" x="571.5" y="-63.5" font-family="Helvetica,sans-Serif" font-size="10.00">replacements/readpassphrase.h</text>
</a>
</g>
</g>
<!-- Node12&#45;&gt;Node14 -->
<g id="edge16" class="edge"><title>Node12&#45;&gt;Node14</title>
<path fill="none" stroke="midnightblue" d="M419.18,-112.444C450.027,-103.241 499.228,-88.5617 533.329,-78.3879"/>
<polygon fill="midnightblue" stroke="midnightblue" points="534.372,-81.7293 542.954,-75.5164 532.371,-75.0215 534.372,-81.7293"/>
</g>
<!-- Node12&#45;&gt;Node15 -->
<g id="edge20" class="edge"><title>Node12&#45;&gt;Node15</title>
<path fill="none" stroke="midnightblue" d="M435.264,-113.376C438.387,-112.894 441.489,-112.431 444.5,-112 511.187,-102.46 700.783,-126.384 745.5,-76 781.87,-35.0206 693.313,-19.8049 629.638,-14.2055"/>
<polygon fill="midnightblue" stroke="midnightblue" points="629.907,-10.7159 619.655,-13.3869 629.335,-17.6925 629.907,-10.7159"/>
</g>
<!-- Node12&#45;&gt;Node16 -->
<g id="edge21" class="edge"><title>Node12&#45;&gt;Node16</title>
<path fill="none" stroke="midnightblue" d="M345.715,-117.075C250.359,-108.504 35.0513,-87.928 24.5,-76 -10.4521,-36.4873 74.1598,-20.8011 135.284,-14.7129"/>
<polygon fill="midnightblue" stroke="midnightblue" points="135.618,-18.1971 145.249,-13.7829 134.967,-11.2274 135.618,-18.1971"/>
</g>
<!-- Node17 -->
<g id="node17" class="node"><title>Node17</title>
<g id="a_node17"><a xlink:href="a00181.html" target="_top" xlink:title="Provide poll call where missing. ">
<polygon fill="white" stroke="red" points="674.5,-56.5 674.5,-75.5 736.5,-75.5 736.5,-56.5 674.5,-56.5"/>
<text text-anchor="middle" x="705.5" y="-63.5" font-family="Helvetica,sans-Serif" font-size="10.00">fakepoll.h</text>
</a>
</g>
</g>
<!-- Node12&#45;&gt;Node17 -->
<g id="edge19" class="edge"><title>Node12&#45;&gt;Node17</title>
<path fill="none" stroke="midnightblue" d="M435.287,-113.525C438.405,-113.008 441.499,-112.496 444.5,-112 539.104,-96.3761 565.506,-94.7229 664.102,-75.9835"/>
<polygon fill="midnightblue" stroke="midnightblue" points="665.032,-79.3691 674.197,-74.0534 663.717,-72.4937 665.032,-79.3691"/>
</g>
<!-- Node14&#45;&gt;Node15 -->
<g id="edge17" class="edge"><title>Node14&#45;&gt;Node15</title>
<path fill="none" stroke="midnightblue" d="M571.5,-56.083C571.5,-49.0059 571.5,-38.8611 571.5,-29.9865"/>
<polygon fill="midnightblue" stroke="midnightblue" points="575,-29.751 571.5,-19.7511 568,-29.7511 575,-29.751"/>
</g>
<!-- Node14&#45;&gt;Node16 -->
<g id="edge18" class="edge"><title>Node14&#45;&gt;Node16</title>
<path fill="none" stroke="midnightblue" d="M511.288,-56.4435C438.881,-46.1542 318.305,-29.0196 247.724,-18.9897"/>
<polygon fill="midnightblue" stroke="midnightblue" points="248.077,-15.5049 237.684,-17.5631 247.093,-22.4352 248.077,-15.5049"/>
</g>
<!-- Node19&#45;&gt;Node15 -->
<g id="edge26" class="edge"><title>Node19&#45;&gt;Node15</title>
<path fill="none" stroke="midnightblue" d="M235.155,-57.475C238.316,-56.9646 241.456,-56.4678 244.5,-56 338.319,-41.5824 447.628,-26.983 513.105,-18.4729"/>
<polygon fill="midnightblue" stroke="midnightblue" points="513.761,-21.9172 523.228,-17.1603 512.861,-14.9753 513.761,-21.9172"/>
</g>
<!-- Node19&#45;&gt;Node16 -->
<g id="edge27" class="edge"><title>Node19&#45;&gt;Node16</title>
<path fill="none" stroke="midnightblue" d="M191.5,-56.083C191.5,-49.0059 191.5,-38.8611 191.5,-29.9865"/>
<polygon fill="midnightblue" stroke="midnightblue" points="195,-29.751 191.5,-19.7511 188,-29.7511 195,-29.751"/>
</g>
<!-- Node20&#45;&gt;Node15 -->
<g id="edge29" class="edge"><title>Node20&#45;&gt;Node15</title>
<path fill="none" stroke="midnightblue" d="M129.676,-57.2092C132.66,-56.7838 135.619,-56.3769 138.5,-56 272.307,-38.4958 430.101,-23.5179 513.329,-16.0576"/>
<polygon fill="midnightblue" stroke="midnightblue" points="513.697,-19.5387 523.347,-15.1637 513.075,-12.5664 513.697,-19.5387"/>
</g>
<!-- Node20&#45;&gt;Node16 -->
<g id="edge30" class="edge"><title>Node20&#45;&gt;Node16</title>
<path fill="none" stroke="midnightblue" d="M99.1734,-56.324C116.894,-47.6247 144.403,-34.1202 164.788,-24.113"/>
<polygon fill="midnightblue" stroke="midnightblue" points="166.436,-27.2031 173.87,-19.6545 163.351,-20.9195 166.436,-27.2031"/>
</g>
<!-- Node21&#45;&gt;Node15 -->
<g id="edge32" class="edge"><title>Node21&#45;&gt;Node15</title>
<path fill="none" stroke="midnightblue" d="M339.771,-56.5031C387.985,-47.0358 465.98,-31.7203 517.989,-21.5077"/>
<polygon fill="midnightblue" stroke="midnightblue" points="518.889,-24.8978 528.027,-19.5364 517.54,-18.0289 518.889,-24.8978"/>
</g>
<!-- Node21&#45;&gt;Node16 -->
<g id="edge33" class="edge"><title>Node21&#45;&gt;Node16</title>
<path fill="none" stroke="midnightblue" d="M279.63,-56.324C262.791,-47.6641 236.693,-34.2424 217.262,-24.249"/>
<polygon fill="midnightblue" stroke="midnightblue" points="218.822,-21.1155 208.328,-19.6545 215.62,-27.3405 218.822,-21.1155"/>
</g>
<!-- Node22&#45;&gt;Node15 -->
<g id="edge35" class="edge"><title>Node22&#45;&gt;Node15</title>
<path fill="none" stroke="midnightblue" d="M1162.48,-57.9637C1157.78,-57.2373 1153.04,-56.5612 1148.5,-56 959.35,-32.6128 733.724,-19.1778 629.521,-13.7865"/>
<polygon fill="midnightblue" stroke="midnightblue" points="629.686,-10.2905 619.521,-13.2746 629.328,-17.2814 629.686,-10.2905"/>
</g>
<!-- Node22&#45;&gt;Node16 -->
<g id="edge36" class="edge"><title>Node22&#45;&gt;Node16</title>
<path fill="none" stroke="midnightblue" d="M1162.22,-62.8997C1006.34,-54.5657 431.002,-23.8051 247.872,-14.014"/>
<polygon fill="midnightblue" stroke="midnightblue" points="247.829,-10.5067 237.657,-13.4678 247.455,-17.4968 247.829,-10.5067"/>
</g>
</g>
</svg>
