<?xml version="1.0" encoding="UTF-8" standalone="no"?>
<!DOCTYPE svg PUBLIC "-//W3C//DTD SVG 1.1//EN"
 "http://www.w3.org/Graphics/SVG/1.1/DTD/svg11.dtd">
<!-- Generated by graphviz version 2.38.0 (20140413.2041)
 -->
<!-- Title: src/dblib/bcp.c Pages: 1 -->
<svg width="1394pt" height="252pt"
 viewBox="0.00 0.00 1393.50 252.00" xmlns="http://www.w3.org/2000/svg" xmlns:xlink="http://www.w3.org/1999/xlink">
<g id="graph0" class="graph" transform="scale(1 1) rotate(0) translate(4 248)">
<title>src/dblib/bcp.c</title>
<polygon fill="white" stroke="none" points="-4,4 -4,-248 1389.5,-248 1389.5,4 -4,4"/>
<!-- Node1 -->
<g id="node1" class="node"><title>Node1</title>
<polygon fill="#bfbfbf" stroke="black" points="941.5,-224.5 941.5,-243.5 1023.5,-243.5 1023.5,-224.5 941.5,-224.5"/>
<text text-anchor="middle" x="982.5" y="-231.5" font-family="Helvetica,sans-Serif" font-size="10.00">src/dblib/bcp.c</text>
</g>
<!-- Node2 -->
<g id="node2" class="node"><title>Node2</title>
<polygon fill="white" stroke="#bfbfbf" points="0,-168.5 0,-187.5 53,-187.5 53,-168.5 0,-168.5"/>
<text text-anchor="middle" x="26.5" y="-175.5" font-family="Helvetica,sans-Serif" font-size="10.00">config.h</text>
</g>
<!-- Node1&#45;&gt;Node2 -->
<g id="edge1" class="edge"><title>Node1&#45;&gt;Node2</title>
<path fill="none" stroke="midnightblue" d="M941.239,-233.415C811.812,-234.193 402.506,-232.688 67.5,-188 66.1998,-187.827 64.8797,-187.633 63.5489,-187.423"/>
<polygon fill="midnightblue" stroke="midnightblue" points="63.7579,-183.904 53.2923,-185.553 62.5024,-190.79 63.7579,-183.904"/>
</g>
<!-- Node3 -->
<g id="node3" class="node"><title>Node3</title>
<polygon fill="white" stroke="#bfbfbf" points="250,-56.5 250,-75.5 305,-75.5 305,-56.5 250,-56.5"/>
<text text-anchor="middle" x="277.5" y="-63.5" font-family="Helvetica,sans-Serif" font-size="10.00">stdarg.h</text>
</g>
<!-- Node1&#45;&gt;Node3 -->
<g id="edge2" class="edge"><title>Node1&#45;&gt;Node3</title>
<path fill="none" stroke="midnightblue" d="M941.278,-233.143C834.992,-232.893 543.256,-228.27 304.5,-188 211.789,-172.363 157.508,-206.766 100.5,-132 63.0672,-82.9068 176.844,-70.8702 239.358,-67.9353"/>
<polygon fill="midnightblue" stroke="midnightblue" points="239.807,-71.4199 249.654,-67.5119 239.519,-64.4258 239.807,-71.4199"/>
</g>
<!-- Node4 -->
<g id="node4" class="node"><title>Node4</title>
<polygon fill="white" stroke="#bfbfbf" points="110,-112.5 110,-131.5 157,-131.5 157,-112.5 110,-112.5"/>
<text text-anchor="middle" x="133.5" y="-119.5" font-family="Helvetica,sans-Serif" font-size="10.00">stdio.h</text>
</g>
<!-- Node1&#45;&gt;Node4 -->
<g id="edge3" class="edge"><title>Node1&#45;&gt;Node4</title>
<path fill="none" stroke="midnightblue" d="M941.399,-231.922C846.597,-228.97 605.491,-218.808 406.5,-188 319.115,-174.471 218.416,-147.454 167.205,-132.874"/>
<polygon fill="midnightblue" stroke="midnightblue" points="167.923,-129.439 157.346,-130.046 165.994,-136.168 167.923,-129.439"/>
</g>
<!-- Node5 -->
<g id="node5" class="node"><title>Node5</title>
<polygon fill="white" stroke="#bfbfbf" points="415.5,-168.5 415.5,-187.5 469.5,-187.5 469.5,-168.5 415.5,-168.5"/>
<text text-anchor="middle" x="442.5" y="-175.5" font-family="Helvetica,sans-Serif" font-size="10.00">assert.h</text>
</g>
<!-- Node1&#45;&gt;Node5 -->
<g id="edge4" class="edge"><title>Node1&#45;&gt;Node5</title>
<path fill="none" stroke="midnightblue" d="M941.393,-231.502C856.695,-227.948 656.545,-217.144 479.544,-187.916"/>
<polygon fill="midnightblue" stroke="midnightblue" points="479.972,-184.439 469.531,-186.238 478.816,-191.342 479.972,-184.439"/>
</g>
<!-- Node6 -->
<g id="node6" class="node"><title>Node6</title>
<g id="a_node6"><a xlink:href="a00196.html" target="_top" xlink:title="Main include file for libtds. ">
<polygon fill="white" stroke="black" points="488,-168.5 488,-187.5 563,-187.5 563,-168.5 488,-168.5"/>
<text text-anchor="middle" x="525.5" y="-175.5" font-family="Helvetica,sans-Serif" font-size="10.00">freetds/tds.h</text>
</a>
</g>
</g>
<!-- Node1&#45;&gt;Node6 -->
<g id="edge5" class="edge"><title>Node1&#45;&gt;Node6</title>
<path fill="none" stroke="midnightblue" d="M941.138,-228.113C856.388,-218.098 663.43,-195.298 573.408,-184.661"/>
<polygon fill="midnightblue" stroke="midnightblue" points="573.554,-181.154 563.212,-183.456 572.733,-188.106 573.554,-181.154"/>
</g>
<!-- Node12 -->
<g id="node12" class="node"><title>Node12</title>
<g id="a_node12"><a xlink:href="a00205_source.html" target="_top" xlink:title="replacements.h">
<polygon fill="white" stroke="black" points="865,-112.5 865,-131.5 954,-131.5 954,-112.5 865,-112.5"/>
<text text-anchor="middle" x="909.5" y="-119.5" font-family="Helvetica,sans-Serif" font-size="10.00">replacements.h</text>
</a>
</g>
</g>
<!-- Node1&#45;&gt;Node12 -->
<g id="edge34" class="edge"><title>Node1&#45;&gt;Node12</title>
<path fill="none" stroke="midnightblue" d="M976.772,-224.368C964.725,-206.215 936.577,-163.802 920.775,-139.99"/>
<polygon fill="midnightblue" stroke="midnightblue" points="923.647,-137.988 915.202,-131.591 917.815,-141.859 923.647,-137.988"/>
</g>
<!-- Node19 -->
<g id="node19" class="node"><title>Node19</title>
<g id="a_node19"><a xlink:href="a00187_source.html" target="_top" xlink:title="freetds/iconv.h">
<polygon fill="white" stroke="black" points="991.5,-56.5 991.5,-75.5 1077.5,-75.5 1077.5,-56.5 991.5,-56.5"/>
<text text-anchor="middle" x="1034.5" y="-63.5" font-family="Helvetica,sans-Serif" font-size="10.00">freetds/iconv.h</text>
</a>
</g>
</g>
<!-- Node1&#45;&gt;Node19 -->
<g id="edge27" class="edge"><title>Node1&#45;&gt;Node19</title>
<path fill="none" stroke="midnightblue" d="M983.132,-224.491C984.852,-204.311 990.606,-152.235 1006.5,-112 1010.38,-102.176 1016.41,-92.1136 1021.88,-84.0024"/>
<polygon fill="midnightblue" stroke="midnightblue" points="1024.77,-85.9783 1027.68,-75.7901 1019.05,-81.9417 1024.77,-85.9783"/>
</g>
<!-- Node20 -->
<g id="node20" class="node"><title>Node20</title>
<g id="a_node20"><a xlink:href="a00184_source.html" target="_top" xlink:title="freetds/convert.h">
<polygon fill="white" stroke="black" points="1225.5,-56.5 1225.5,-75.5 1321.5,-75.5 1321.5,-56.5 1225.5,-56.5"/>
<text text-anchor="middle" x="1273.5" y="-63.5" font-family="Helvetica,sans-Serif" font-size="10.00">freetds/convert.h</text>
</a>
</g>
</g>
<!-- Node1&#45;&gt;Node20 -->
<g id="edge30" class="edge"><title>Node1&#45;&gt;Node20</title>
<path fill="none" stroke="midnightblue" d="M988.324,-224.5C997.808,-211.137 1017.73,-184.992 1039.5,-168 1098.08,-122.282 1180.49,-93.0827 1230.27,-78.4034"/>
<polygon fill="midnightblue" stroke="midnightblue" points="1231.44,-81.7098 1240.07,-75.5755 1229.5,-74.984 1231.44,-81.7098"/>
</g>
<!-- Node21 -->
<g id="node21" class="node"><title>Node21</title>
<g id="a_node21"><a xlink:href="a00182_source.html" target="_top" xlink:title="freetds/bytes.h">
<polygon fill="white" stroke="black" points="1048.5,-168.5 1048.5,-187.5 1134.5,-187.5 1134.5,-168.5 1048.5,-168.5"/>
<text text-anchor="middle" x="1091.5" y="-175.5" font-family="Helvetica,sans-Serif" font-size="10.00">freetds/bytes.h</text>
</a>
</g>
</g>
<!-- Node1&#45;&gt;Node21 -->
<g id="edge33" class="edge"><title>Node1&#45;&gt;Node21</title>
<path fill="none" stroke="midnightblue" d="M1000.01,-224.324C1017.57,-215.625 1044.83,-202.12 1065.03,-192.113"/>
<polygon fill="midnightblue" stroke="midnightblue" points="1066.62,-195.23 1074.03,-187.655 1063.52,-188.958 1066.62,-195.23"/>
</g>
<!-- Node22 -->
<g id="node22" class="node"><title>Node22</title>
<g id="a_node22"><a xlink:href="a00212_source.html" target="_top" xlink:title="sybfront.h">
<polygon fill="white" stroke="black" points="1152.5,-168.5 1152.5,-187.5 1214.5,-187.5 1214.5,-168.5 1152.5,-168.5"/>
<text text-anchor="middle" x="1183.5" y="-175.5" font-family="Helvetica,sans-Serif" font-size="10.00">sybfront.h</text>
</a>
</g>
</g>
<!-- Node1&#45;&gt;Node22 -->
<g id="edge35" class="edge"><title>Node1&#45;&gt;Node22</title>
<path fill="none" stroke="midnightblue" d="M1014.35,-224.444C1049.1,-215.107 1104.83,-200.134 1142.75,-189.948"/>
<polygon fill="midnightblue" stroke="midnightblue" points="1143.71,-193.314 1152.46,-187.339 1141.89,-186.553 1143.71,-193.314"/>
</g>
<!-- Node23 -->
<g id="node23" class="node"><title>Node23</title>
<g id="a_node23"><a xlink:href="a00210.html" target="_top" xlink:title="Primary include file for db&#45;lib applications. ">
<polygon fill="white" stroke="black" points="1157.5,-112.5 1157.5,-131.5 1209.5,-131.5 1209.5,-112.5 1157.5,-112.5"/>
<text text-anchor="middle" x="1183.5" y="-119.5" font-family="Helvetica,sans-Serif" font-size="10.00">sybdb.h</text>
</a>
</g>
</g>
<!-- Node1&#45;&gt;Node23 -->
<g id="edge38" class="edge"><title>Node1&#45;&gt;Node23</title>
<path fill="none" stroke="midnightblue" d="M1023.54,-231.445C1085.54,-228.137 1198.55,-218.041 1223.5,-188 1236.62,-172.202 1219.19,-151.709 1203.4,-137.996"/>
<polygon fill="midnightblue" stroke="midnightblue" points="1205.41,-135.123 1195.46,-131.503 1200.98,-140.543 1205.41,-135.123"/>
</g>
<!-- Node24 -->
<g id="node24" class="node"><title>Node24</title>
<g id="a_node24"><a xlink:href="a00211_source.html" target="_top" xlink:title="syberror.h">
<polygon fill="white" stroke="black" points="1270.5,-168.5 1270.5,-187.5 1334.5,-187.5 1334.5,-168.5 1270.5,-168.5"/>
<text text-anchor="middle" x="1302.5" y="-175.5" font-family="Helvetica,sans-Serif" font-size="10.00">syberror.h</text>
</a>
</g>
</g>
<!-- Node1&#45;&gt;Node24 -->
<g id="edge39" class="edge"><title>Node1&#45;&gt;Node24</title>
<path fill="none" stroke="midnightblue" d="M1023.88,-226.606C1077.59,-218.214 1174.18,-202.809 1256.5,-188 1257.76,-187.773 1259.04,-187.54 1260.33,-187.302"/>
<polygon fill="midnightblue" stroke="midnightblue" points="1261.17,-190.706 1270.35,-185.419 1259.88,-183.827 1261.17,-190.706"/>
</g>
<!-- Node25 -->
<g id="node25" class="node"><title>Node25</title>
<g id="a_node25"><a xlink:href="a00179_source.html" target="_top" xlink:title="dblib.h">
<polygon fill="white" stroke="black" points="1339.5,-56.5 1339.5,-75.5 1385.5,-75.5 1385.5,-56.5 1339.5,-56.5"/>
<text text-anchor="middle" x="1362.5" y="-63.5" font-family="Helvetica,sans-Serif" font-size="10.00">dblib.h</text>
</a>
</g>
</g>
<!-- Node1&#45;&gt;Node25 -->
<g id="edge40" class="edge"><title>Node1&#45;&gt;Node25</title>
<path fill="none" stroke="midnightblue" d="M1023.74,-233.826C1108.65,-234.609 1298.76,-231.341 1343.5,-188 1371.03,-161.331 1369.21,-112.23 1365.72,-85.508"/>
<polygon fill="midnightblue" stroke="midnightblue" points="1369.18,-84.9153 1364.21,-75.5563 1362.25,-85.9693 1369.18,-84.9153"/>
</g>
<!-- Node6&#45;&gt;Node3 -->
<g id="edge6" class="edge"><title>Node6&#45;&gt;Node3</title>
<path fill="none" stroke="midnightblue" d="M487.892,-169.555C430.375,-158.06 326.439,-136.809 319.5,-132 302.812,-120.433 291.19,-99.871 284.469,-84.9648"/>
<polygon fill="midnightblue" stroke="midnightblue" points="287.691,-83.5976 280.597,-75.7288 281.236,-86.3044 287.691,-83.5976"/>
</g>
<!-- Node6&#45;&gt;Node4 -->
<g id="edge7" class="edge"><title>Node6&#45;&gt;Node4</title>
<path fill="none" stroke="midnightblue" d="M487.833,-169.532C484.68,-168.985 481.538,-168.466 478.5,-168 343.757,-147.355 305.348,-157.915 167.306,-131.863"/>
<polygon fill="midnightblue" stroke="midnightblue" points="167.673,-128.369 157.192,-129.923 166.354,-135.244 167.673,-128.369"/>
</g>
<!-- Node7 -->
<g id="node7" class="node"><title>Node7</title>
<g id="a_node7"><a xlink:href="a00198_source.html" target="_top" xlink:title="time.h">
<polygon fill="white" stroke="black" points="503.5,-112.5 503.5,-131.5 547.5,-131.5 547.5,-112.5 503.5,-112.5"/>
<text text-anchor="middle" x="525.5" y="-119.5" font-family="Helvetica,sans-Serif" font-size="10.00">time.h</text>
</a>
</g>
</g>
<!-- Node6&#45;&gt;Node7 -->
<g id="edge8" class="edge"><title>Node6&#45;&gt;Node7</title>
<path fill="none" stroke="midnightblue" d="M525.5,-168.083C525.5,-161.006 525.5,-150.861 525.5,-141.986"/>
<polygon fill="midnightblue" stroke="midnightblue" points="529,-141.751 525.5,-131.751 522,-141.751 529,-141.751"/>
</g>
<!-- Node8 -->
<g id="node8" class="node"><title>Node8</title>
<g id="a_node8"><a xlink:href="a00200_source.html" target="_top" xlink:title="freetds/version.h">
<polygon fill="white" stroke="black" points="584,-112.5 584,-131.5 679,-131.5 679,-112.5 584,-112.5"/>
<text text-anchor="middle" x="631.5" y="-119.5" font-family="Helvetica,sans-Serif" font-size="10.00">freetds/version.h</text>
</a>
</g>
</g>
<!-- Node6&#45;&gt;Node8 -->
<g id="edge10" class="edge"><title>Node6&#45;&gt;Node8</title>
<path fill="none" stroke="midnightblue" d="M542.531,-168.324C559.53,-159.664 585.876,-146.242 605.493,-136.249"/>
<polygon fill="midnightblue" stroke="midnightblue" points="607.19,-139.312 614.512,-131.655 604.012,-133.075 607.19,-139.312"/>
</g>
<!-- Node9 -->
<g id="node9" class="node"><title>Node9</title>
<polygon fill="white" stroke="#bfbfbf" points="697,-112.5 697,-131.5 808,-131.5 808,-112.5 697,-112.5"/>
<text text-anchor="middle" x="752.5" y="-119.5" font-family="Helvetica,sans-Serif" font-size="10.00">tds_sysdep_public.h</text>
</g>
<!-- Node6&#45;&gt;Node9 -->
<g id="edge11" class="edge"><title>Node6&#45;&gt;Node9</title>
<path fill="none" stroke="midnightblue" d="M561.469,-168.444C600.819,-159.083 663.987,-144.056 706.814,-133.868"/>
<polygon fill="midnightblue" stroke="midnightblue" points="707.781,-137.236 716.699,-131.516 706.161,-130.426 707.781,-137.236"/>
</g>
<!-- Node10 -->
<g id="node10" class="node"><title>Node10</title>
<g id="a_node10"><a xlink:href="a00195_source.html" target="_top" xlink:title="freetds/sysdep_private.h">
<polygon fill="white" stroke="black" points="498,-56.5 498,-75.5 631,-75.5 631,-56.5 498,-56.5"/>
<text text-anchor="middle" x="564.5" y="-63.5" font-family="Helvetica,sans-Serif" font-size="10.00">freetds/sysdep_private.h</text>
</a>
</g>
</g>
<!-- Node6&#45;&gt;Node10 -->
<g id="edge12" class="edge"><title>Node6&#45;&gt;Node10</title>
<path fill="none" stroke="midnightblue" d="M563.162,-177.002C634.51,-176.119 785.15,-169.717 817.5,-132 823.287,-125.253 823.209,-118.814 817.5,-112 806.133,-98.4328 711.636,-84.3937 641.442,-75.6813"/>
<polygon fill="midnightblue" stroke="midnightblue" points="641.626,-72.1778 631.275,-74.4353 640.775,-79.1258 641.626,-72.1778"/>
</g>
<!-- Node11 -->
<g id="node11" class="node"><title>Node11</title>
<g id="a_node11"><a xlink:href="a00197_source.html" target="_top" xlink:title="freetds/thread.h">
<polygon fill="white" stroke="black" points="175.5,-112.5 175.5,-131.5 267.5,-131.5 267.5,-112.5 175.5,-112.5"/>
<text text-anchor="middle" x="221.5" y="-119.5" font-family="Helvetica,sans-Serif" font-size="10.00">freetds/thread.h</text>
</a>
</g>
</g>
<!-- Node6&#45;&gt;Node11 -->
<g id="edge13" class="edge"><title>Node6&#45;&gt;Node11</title>
<path fill="none" stroke="midnightblue" d="M487.8,-169.726C484.655,-169.136 481.524,-168.554 478.5,-168 409.371,-155.33 329.633,-141.488 277.539,-132.549"/>
<polygon fill="midnightblue" stroke="midnightblue" points="277.948,-129.068 267.5,-130.828 276.765,-135.967 277.948,-129.068"/>
</g>
<!-- Node6&#45;&gt;Node12 -->
<g id="edge14" class="edge"><title>Node6&#45;&gt;Node12</title>
<path fill="none" stroke="midnightblue" d="M563.057,-171.971C623.597,-163.826 746.5,-147.131 850.5,-132 851.798,-131.811 853.111,-131.619 854.436,-131.424"/>
<polygon fill="midnightblue" stroke="midnightblue" points="855.354,-134.826 864.732,-129.895 854.326,-127.902 855.354,-134.826"/>
</g>
<!-- Node15 -->
<g id="node15" class="node"><title>Node15</title>
<g id="a_node15"><a xlink:href="a00191_source.html" target="_top" xlink:title="freetds/pushvis.h">
<polygon fill="white" stroke="black" points="761.5,-0.5 761.5,-19.5 857.5,-19.5 857.5,-0.5 761.5,-0.5"/>
<text text-anchor="middle" x="809.5" y="-7.5" font-family="Helvetica,sans-Serif" font-size="10.00">freetds/pushvis.h</text>
</a>
</g>
</g>
<!-- Node6&#45;&gt;Node15 -->
<g id="edge24" class="edge"><title>Node6&#45;&gt;Node15</title>
<path fill="none" stroke="midnightblue" d="M487.698,-169.399C440.665,-159.562 365.519,-142.45 357.5,-132 336.936,-105.203 334.829,-81.0397 357.5,-56 383.446,-27.3429 634.821,-16.1851 751.071,-12.5319"/>
<polygon fill="midnightblue" stroke="midnightblue" points="751.33,-16.0257 761.218,-12.2214 751.115,-9.029 751.33,-16.0257"/>
</g>
<!-- Node16 -->
<g id="node16" class="node"><title>Node16</title>
<g id="a_node16"><a xlink:href="a00189_source.html" target="_top" xlink:title="freetds/popvis.h">
<polygon fill="white" stroke="black" points="950.5,-0.5 950.5,-19.5 1042.5,-19.5 1042.5,-0.5 950.5,-0.5"/>
<text text-anchor="middle" x="996.5" y="-7.5" font-family="Helvetica,sans-Serif" font-size="10.00">freetds/popvis.h</text>
</a>
</g>
</g>
<!-- Node6&#45;&gt;Node16 -->
<g id="edge26" class="edge"><title>Node6&#45;&gt;Node16</title>
<path fill="none" stroke="midnightblue" d="M487.995,-169.6C452.214,-161.688 402.092,-148.084 390.5,-132 385.303,-124.789 386.038,-119.688 390.5,-112 415.679,-68.6116 440.631,-71.0044 488.5,-56 509.784,-49.3284 812.414,-25.2706 940.205,-15.337"/>
<polygon fill="midnightblue" stroke="midnightblue" points="940.494,-18.8252 950.194,-14.5617 939.953,-11.8462 940.494,-18.8252"/>
</g>
<!-- Node18 -->
<g id="node18" class="node"><title>Node18</title>
<g id="a_node18"><a xlink:href="a00190_source.html" target="_top" xlink:title="freetds/proto.h">
<polygon fill="white" stroke="black" points="399.5,-112.5 399.5,-131.5 485.5,-131.5 485.5,-112.5 399.5,-112.5"/>
<text text-anchor="middle" x="442.5" y="-119.5" font-family="Helvetica,sans-Serif" font-size="10.00">freetds/proto.h</text>
</a>
</g>
</g>
<!-- Node6&#45;&gt;Node18 -->
<g id="edge25" class="edge"><title>Node6&#45;&gt;Node18</title>
<path fill="none" stroke="midnightblue" d="M512.165,-168.324C499.338,-159.979 479.715,-147.212 464.56,-137.352"/>
<polygon fill="midnightblue" stroke="midnightblue" points="466.093,-134.174 455.802,-131.655 462.276,-140.042 466.093,-134.174"/>
</g>
<!-- Node7&#45;&gt;Node7 -->
<g id="edge9" class="edge"><title>Node7&#45;&gt;Node7</title>
<path fill="none" stroke="midnightblue" d="M542.768,-131.575C554.287,-134.27 565.5,-131.078 565.5,-122 565.5,-115.759 560.2,-112.3 553.145,-111.623"/>
<polygon fill="midnightblue" stroke="midnightblue" points="552.469,-108.165 542.768,-112.425 553.008,-115.144 552.469,-108.165"/>
</g>
<!-- Node12&#45;&gt;Node3 -->
<g id="edge15" class="edge"><title>Node12&#45;&gt;Node3</title>
<path fill="none" stroke="midnightblue" d="M864.59,-116.476C849.617,-115.003 832.844,-113.39 817.5,-112 628.884,-94.9161 402.977,-76.8729 315.073,-69.9441"/>
<polygon fill="midnightblue" stroke="midnightblue" points="315.293,-66.4507 305.049,-69.155 314.743,-73.4291 315.293,-66.4507"/>
</g>
<!-- Node12&#45;&gt;Node10 -->
<g id="edge17" class="edge"><title>Node12&#45;&gt;Node10</title>
<path fill="none" stroke="midnightblue" d="M864.751,-113.996C804.748,-104.604 697.828,-87.8687 629.097,-77.1109"/>
<polygon fill="midnightblue" stroke="midnightblue" points="629.247,-73.5917 618.826,-75.5032 628.164,-80.5075 629.247,-73.5917"/>
</g>
<!-- Node13 -->
<g id="node13" class="node"><title>Node13</title>
<g id="a_node13"><a xlink:href="a00213_source.html" target="_top" xlink:title="tds_sysdep_public.h">
<polygon fill="white" stroke="black" points="1096,-56.5 1096,-75.5 1207,-75.5 1207,-56.5 1096,-56.5"/>
<text text-anchor="middle" x="1151.5" y="-63.5" font-family="Helvetica,sans-Serif" font-size="10.00">tds_sysdep_public.h</text>
</a>
</g>
</g>
<!-- Node12&#45;&gt;Node13 -->
<g id="edge16" class="edge"><title>Node12&#45;&gt;Node13</title>
<path fill="none" stroke="midnightblue" d="M947.846,-112.444C989.973,-103.043 1057.71,-87.9291 1103.37,-77.7393"/>
<polygon fill="midnightblue" stroke="midnightblue" points="1104.34,-81.1103 1113.33,-75.5164 1102.81,-74.2784 1104.34,-81.1103"/>
</g>
<!-- Node14 -->
<g id="node14" class="node"><title>Node14</title>
<g id="a_node14"><a xlink:href="a00206_source.html" target="_top" xlink:title="replacements/readpassphrase.h">
<polygon fill="white" stroke="black" points="687,-56.5 687,-75.5 856,-75.5 856,-56.5 687,-56.5"/>
<text text-anchor="middle" x="771.5" y="-63.5" font-family="Helvetica,sans-Serif" font-size="10.00">replacements/readpassphrase.h</text>
</a>
</g>
</g>
<!-- Node12&#45;&gt;Node14 -->
<g id="edge18" class="edge"><title>Node12&#45;&gt;Node14</title>
<path fill="none" stroke="midnightblue" d="M887.633,-112.444C864.721,-103.478 828.525,-89.314 802.634,-79.1827"/>
<polygon fill="midnightblue" stroke="midnightblue" points="803.852,-75.9011 793.264,-75.5164 801.301,-82.4198 803.852,-75.9011"/>
</g>
<!-- Node12&#45;&gt;Node15 -->
<g id="edge22" class="edge"><title>Node12&#45;&gt;Node15</title>
<path fill="none" stroke="midnightblue" d="M864.928,-115.385C801.17,-106.901 690.273,-90.2881 678.5,-76 653.757,-45.9713 705.587,-28.6011 751.177,-19.4952"/>
<polygon fill="midnightblue" stroke="midnightblue" points="751.903,-22.9199 761.078,-17.6225 750.602,-16.0418 751.903,-22.9199"/>
</g>
<!-- Node12&#45;&gt;Node16 -->
<g id="edge23" class="edge"><title>Node12&#45;&gt;Node16</title>
<path fill="none" stroke="midnightblue" d="M905.323,-112.228C899.673,-98.9576 891.49,-73.478 902.5,-56 912.508,-40.1125 929.851,-29.7108 946.936,-22.9583"/>
<polygon fill="midnightblue" stroke="midnightblue" points="948.128,-26.2491 956.353,-19.5706 945.758,-19.6623 948.128,-26.2491"/>
</g>
<!-- Node17 -->
<g id="node17" class="node"><title>Node17</title>
<g id="a_node17"><a xlink:href="a00181.html" target="_top" xlink:title="Provide poll call where missing. ">
<polygon fill="white" stroke="red" points="911.5,-56.5 911.5,-75.5 973.5,-75.5 973.5,-56.5 911.5,-56.5"/>
<text text-anchor="middle" x="942.5" y="-63.5" font-family="Helvetica,sans-Serif" font-size="10.00">fakepoll.h</text>
</a>
</g>
</g>
<!-- Node12&#45;&gt;Node17 -->
<g id="edge21" class="edge"><title>Node12&#45;&gt;Node17</title>
<path fill="none" stroke="midnightblue" d="M914.949,-112.083C919.514,-104.613 926.168,-93.7244 931.793,-84.5199"/>
<polygon fill="midnightblue" stroke="midnightblue" points="934.924,-86.109 937.152,-75.7511 928.951,-82.4588 934.924,-86.109"/>
</g>
<!-- Node14&#45;&gt;Node15 -->
<g id="edge19" class="edge"><title>Node14&#45;&gt;Node15</title>
<path fill="none" stroke="midnightblue" d="M777.775,-56.083C783.142,-48.4554 791.018,-37.2645 797.579,-27.9408"/>
<polygon fill="midnightblue" stroke="midnightblue" points="800.449,-29.9434 803.342,-19.7511 794.725,-25.9149 800.449,-29.9434"/>
</g>
<!-- Node14&#45;&gt;Node16 -->
<g id="edge20" class="edge"><title>Node14&#45;&gt;Node16</title>
<path fill="none" stroke="midnightblue" d="M807.152,-56.4435C846.156,-47.0826 908.766,-32.0561 951.217,-21.868"/>
<polygon fill="midnightblue" stroke="midnightblue" points="952.108,-25.2536 961.015,-19.5164 950.474,-18.4469 952.108,-25.2536"/>
</g>
<!-- Node19&#45;&gt;Node15 -->
<g id="edge28" class="edge"><title>Node19&#45;&gt;Node15</title>
<path fill="none" stroke="midnightblue" d="M998.848,-56.4435C959.844,-47.0826 897.234,-32.0561 854.783,-21.868"/>
<polygon fill="midnightblue" stroke="midnightblue" points="855.526,-18.4469 844.985,-19.5164 853.892,-25.2536 855.526,-18.4469"/>
</g>
<!-- Node19&#45;&gt;Node16 -->
<g id="edge29" class="edge"><title>Node19&#45;&gt;Node16</title>
<path fill="none" stroke="midnightblue" d="M1028.23,-56.083C1022.86,-48.4554 1014.98,-37.2645 1008.42,-27.9408"/>
<polygon fill="midnightblue" stroke="midnightblue" points="1011.28,-25.9149 1002.66,-19.7511 1005.55,-29.9434 1011.28,-25.9149"/>
</g>
<!-- Node20&#45;&gt;Node15 -->
<g id="edge31" class="edge"><title>Node20&#45;&gt;Node15</title>
<path fill="none" stroke="midnightblue" d="M1225.32,-57.2315C1222.34,-56.8006 1219.38,-56.3863 1216.5,-56 1092.59,-39.3773 946.865,-24.3576 867.763,-16.5823"/>
<polygon fill="midnightblue" stroke="midnightblue" points="867.813,-13.0706 857.519,-15.5794 867.13,-20.0373 867.813,-13.0706"/>
</g>
<!-- Node20&#45;&gt;Node16 -->
<g id="edge32" class="edge"><title>Node20&#45;&gt;Node16</title>
<path fill="none" stroke="midnightblue" d="M1229.61,-56.4435C1180.98,-46.9641 1102.55,-31.6747 1050.28,-21.4835"/>
<polygon fill="midnightblue" stroke="midnightblue" points="1050.67,-17.9946 1040.19,-19.5164 1049.33,-24.8653 1050.67,-17.9946"/>
</g>
<!-- Node22&#45;&gt;Node23 -->
<g id="edge36" class="edge"><title>Node22&#45;&gt;Node23</title>
<path fill="none" stroke="midnightblue" d="M1183.5,-168.083C1183.5,-161.006 1183.5,-150.861 1183.5,-141.986"/>
<polygon fill="midnightblue" stroke="midnightblue" points="1187,-141.751 1183.5,-131.751 1180,-141.751 1187,-141.751"/>
</g>
<!-- Node23&#45;&gt;Node13 -->
<g id="edge37" class="edge"><title>Node23&#45;&gt;Node13</title>
<path fill="none" stroke="midnightblue" d="M1178.22,-112.083C1173.79,-104.613 1167.34,-93.7244 1161.88,-84.5199"/>
<polygon fill="midnightblue" stroke="midnightblue" points="1164.79,-82.5697 1156.69,-75.7511 1158.77,-86.1383 1164.79,-82.5697"/>
</g>
<!-- Node25&#45;&gt;Node15 -->
<g id="edge41" class="edge"><title>Node25&#45;&gt;Node15</title>
<path fill="none" stroke="midnightblue" d="M1339.2,-57.9003C1336.29,-57.1755 1333.34,-56.5171 1330.5,-56 1285.98,-47.8905 994.739,-25.1139 868.123,-15.438"/>
<polygon fill="midnightblue" stroke="midnightblue" points="868.081,-11.9247 857.844,-14.6536 867.548,-18.9044 868.081,-11.9247"/>
</g>
<!-- Node25&#45;&gt;Node16 -->
<g id="edge42" class="edge"><title>Node25&#45;&gt;Node16</title>
<path fill="none" stroke="midnightblue" d="M1339.17,-58.0317C1336.27,-57.2843 1333.33,-56.5847 1330.5,-56 1233.96,-36.0242 1119.82,-22.8503 1053.07,-16.1777"/>
<polygon fill="midnightblue" stroke="midnightblue" points="1053.06,-12.6606 1042.77,-15.1625 1052.38,-19.6268 1053.06,-12.6606"/>
</g>
</g>
</svg>
