<?xml version="1.0" encoding="UTF-8" standalone="no"?>
<!DOCTYPE svg PUBLIC "-//W3C//DTD SVG 1.1//EN"
 "http://www.w3.org/Graphics/SVG/1.1/DTD/svg11.dtd">
<!-- Generated by graphviz version 2.38.0 (20140413.2041)
 -->
<!-- Title: src/dblib/dblib.c Pages: 1 -->
<svg width="1587pt" height="252pt"
 viewBox="0.00 0.00 1586.50 252.00" xmlns="http://www.w3.org/2000/svg" xmlns:xlink="http://www.w3.org/1999/xlink">
<g id="graph0" class="graph" transform="scale(1 1) rotate(0) translate(4 248)">
<title>src/dblib/dblib.c</title>
<polygon fill="white" stroke="none" points="-4,4 -4,-248 1582.5,-248 1582.5,4 -4,4"/>
<!-- Node1 -->
<g id="node1" class="node"><title>Node1</title>
<polygon fill="#bfbfbf" stroke="black" points="922.5,-224.5 922.5,-243.5 1008.5,-243.5 1008.5,-224.5 922.5,-224.5"/>
<text text-anchor="middle" x="965.5" y="-231.5" font-family="Helvetica,sans-Serif" font-size="10.00">src/dblib/dblib.c</text>
</g>
<!-- Node2 -->
<g id="node2" class="node"><title>Node2</title>
<polygon fill="white" stroke="#bfbfbf" points="0,-168.5 0,-187.5 53,-187.5 53,-168.5 0,-168.5"/>
<text text-anchor="middle" x="26.5" y="-175.5" font-family="Helvetica,sans-Serif" font-size="10.00">config.h</text>
</g>
<!-- Node1&#45;&gt;Node2 -->
<g id="edge1" class="edge"><title>Node1&#45;&gt;Node2</title>
<path fill="none" stroke="midnightblue" d="M922.274,-233.369C792.314,-233.934 393.955,-231.702 67.5,-188 66.1998,-187.826 64.8798,-187.632 63.5492,-187.421"/>
<polygon fill="midnightblue" stroke="midnightblue" points="63.7588,-183.902 53.2928,-185.549 62.5018,-190.788 63.7588,-183.902"/>
</g>
<!-- Node3 -->
<g id="node3" class="node"><title>Node3</title>
<polygon fill="white" stroke="#bfbfbf" points="630,-56.5 630,-75.5 685,-75.5 685,-56.5 630,-56.5"/>
<text text-anchor="middle" x="657.5" y="-63.5" font-family="Helvetica,sans-Serif" font-size="10.00">stdarg.h</text>
</g>
<!-- Node1&#45;&gt;Node3 -->
<g id="edge2" class="edge"><title>Node1&#45;&gt;Node3</title>
<path fill="none" stroke="midnightblue" d="M922.291,-231.209C759.158,-223.989 187.452,-194.365 138.5,-132 133.012,-125.008 132.492,-118.551 138.5,-112 140.54,-109.776 500.341,-79.9476 619.597,-70.1175"/>
<polygon fill="midnightblue" stroke="midnightblue" points="620.042,-73.5928 629.721,-69.2835 619.467,-66.6165 620.042,-73.5928"/>
</g>
<!-- Node4 -->
<g id="node4" class="node"><title>Node4</title>
<g id="a_node4"><a xlink:href="a00198_source.html" target="_top" xlink:title="freetds/time.h">
<polygon fill="white" stroke="black" points="147.5,-112.5 147.5,-131.5 227.5,-131.5 227.5,-112.5 147.5,-112.5"/>
<text text-anchor="middle" x="187.5" y="-119.5" font-family="Helvetica,sans-Serif" font-size="10.00">freetds/time.h</text>
</a>
</g>
</g>
<!-- Node1&#45;&gt;Node4 -->
<g id="edge3" class="edge"><title>Node1&#45;&gt;Node4</title>
<path fill="none" stroke="midnightblue" d="M922.245,-230.948C836.428,-226.456 638.732,-214.008 474.5,-188 386.145,-174.008 284.387,-148.747 228.897,-134.179"/>
<polygon fill="midnightblue" stroke="midnightblue" points="229.65,-130.758 219.088,-131.588 227.863,-137.526 229.65,-130.758"/>
</g>
<!-- Node5 -->
<g id="node5" class="node"><title>Node5</title>
<polygon fill="white" stroke="#bfbfbf" points="1229.5,-168.5 1229.5,-187.5 1283.5,-187.5 1283.5,-168.5 1229.5,-168.5"/>
<text text-anchor="middle" x="1256.5" y="-175.5" font-family="Helvetica,sans-Serif" font-size="10.00">assert.h</text>
</g>
<!-- Node1&#45;&gt;Node5 -->
<g id="edge5" class="edge"><title>Node1&#45;&gt;Node5</title>
<path fill="none" stroke="midnightblue" d="M1008.5,-225.77C1058.39,-217.266 1143.06,-202.464 1215.5,-188 1216.75,-187.751 1218.01,-187.494 1219.29,-187.232"/>
<polygon fill="midnightblue" stroke="midnightblue" points="1220.12,-190.635 1229.18,-185.148 1218.68,-183.785 1220.12,-190.635"/>
</g>
<!-- Node6 -->
<g id="node6" class="node"><title>Node6</title>
<polygon fill="white" stroke="#bfbfbf" points="264,-112.5 264,-131.5 311,-131.5 311,-112.5 264,-112.5"/>
<text text-anchor="middle" x="287.5" y="-119.5" font-family="Helvetica,sans-Serif" font-size="10.00">stdio.h</text>
</g>
<!-- Node1&#45;&gt;Node6 -->
<g id="edge6" class="edge"><title>Node1&#45;&gt;Node6</title>
<path fill="none" stroke="midnightblue" d="M922.427,-228.995C852.669,-222.245 710.754,-207.416 591.5,-188 472.892,-168.689 441.087,-161.549 321.157,-132.299"/>
<polygon fill="midnightblue" stroke="midnightblue" points="321.761,-128.843 311.216,-129.873 320.101,-135.644 321.761,-128.843"/>
</g>
<!-- Node7 -->
<g id="node7" class="node"><title>Node7</title>
<g id="a_node7"><a xlink:href="a00196.html" target="_top" xlink:title="Main include file for libtds. ">
<polygon fill="white" stroke="black" points="601,-168.5 601,-187.5 676,-187.5 676,-168.5 601,-168.5"/>
<text text-anchor="middle" x="638.5" y="-175.5" font-family="Helvetica,sans-Serif" font-size="10.00">freetds/tds.h</text>
</a>
</g>
</g>
<!-- Node1&#45;&gt;Node7 -->
<g id="edge7" class="edge"><title>Node1&#45;&gt;Node7</title>
<path fill="none" stroke="midnightblue" d="M922.414,-225.885C861.301,-215.793 749.824,-197.384 686.257,-186.887"/>
<polygon fill="midnightblue" stroke="midnightblue" points="686.54,-183.386 676.103,-185.21 685.399,-190.292 686.54,-183.386"/>
</g>
<!-- Node11 -->
<g id="node11" class="node"><title>Node11</title>
<g id="a_node11"><a xlink:href="a00197_source.html" target="_top" xlink:title="freetds/thread.h">
<polygon fill="white" stroke="black" points="973.5,-112.5 973.5,-131.5 1065.5,-131.5 1065.5,-112.5 973.5,-112.5"/>
<text text-anchor="middle" x="1019.5" y="-119.5" font-family="Helvetica,sans-Serif" font-size="10.00">freetds/thread.h</text>
</a>
</g>
</g>
<!-- Node1&#45;&gt;Node11 -->
<g id="edge28" class="edge"><title>Node1&#45;&gt;Node11</title>
<path fill="none" stroke="midnightblue" d="M969.737,-224.368C978.57,-206.376 999.103,-164.55 1010.85,-140.627"/>
<polygon fill="midnightblue" stroke="midnightblue" points="1014.02,-142.11 1015.28,-131.591 1007.73,-139.026 1014.02,-142.11"/>
</g>
<!-- Node12 -->
<g id="node12" class="node"><title>Node12</title>
<g id="a_node12"><a xlink:href="a00205_source.html" target="_top" xlink:title="replacements.h">
<polygon fill="white" stroke="black" points="828,-112.5 828,-131.5 917,-131.5 917,-112.5 828,-112.5"/>
<text text-anchor="middle" x="872.5" y="-119.5" font-family="Helvetica,sans-Serif" font-size="10.00">replacements.h</text>
</a>
</g>
</g>
<!-- Node1&#45;&gt;Node12 -->
<g id="edge38" class="edge"><title>Node1&#45;&gt;Node12</title>
<path fill="none" stroke="midnightblue" d="M958.202,-224.368C942.719,-206.055 906.36,-163.049 886.334,-139.362"/>
<polygon fill="midnightblue" stroke="midnightblue" points="888.893,-136.968 879.764,-131.591 883.547,-141.488 888.893,-136.968"/>
</g>
<!-- Node19 -->
<g id="node19" class="node"><title>Node19</title>
<g id="a_node19"><a xlink:href="a00184_source.html" target="_top" xlink:title="freetds/convert.h">
<polygon fill="white" stroke="black" points="439.5,-56.5 439.5,-75.5 535.5,-75.5 535.5,-56.5 439.5,-56.5"/>
<text text-anchor="middle" x="487.5" y="-63.5" font-family="Helvetica,sans-Serif" font-size="10.00">freetds/convert.h</text>
</a>
</g>
</g>
<!-- Node1&#45;&gt;Node19 -->
<g id="edge29" class="edge"><title>Node1&#45;&gt;Node19</title>
<path fill="none" stroke="midnightblue" d="M922.345,-232.846C785.461,-231.967 362.338,-226.154 231.5,-188 182.225,-173.631 156.548,-176.226 130.5,-132 125.989,-124.341 124.621,-118.667 130.5,-112 149.91,-89.9902 333.161,-76.0468 429.278,-70.1862"/>
<polygon fill="midnightblue" stroke="midnightblue" points="429.653,-73.6701 439.425,-69.5778 429.234,-66.6827 429.653,-73.6701"/>
</g>
<!-- Node20 -->
<g id="node20" class="node"><title>Node20</title>
<g id="a_node20"><a xlink:href="a00194_source.html" target="_top" xlink:title="freetds/string.h">
<polygon fill="white" stroke="black" points="1198,-56.5 1198,-75.5 1285,-75.5 1285,-56.5 1198,-56.5"/>
<text text-anchor="middle" x="1241.5" y="-63.5" font-family="Helvetica,sans-Serif" font-size="10.00">freetds/string.h</text>
</a>
</g>
</g>
<!-- Node1&#45;&gt;Node20 -->
<g id="edge32" class="edge"><title>Node1&#45;&gt;Node20</title>
<path fill="none" stroke="midnightblue" d="M962.074,-224.412C954.023,-202.661 936.596,-144.803 964.5,-112 971.694,-103.543 1109.13,-84.3084 1187.65,-73.9364"/>
<polygon fill="midnightblue" stroke="midnightblue" points="1188.4,-77.3687 1197.85,-72.5947 1187.48,-70.4284 1188.4,-77.3687"/>
</g>
<!-- Node21 -->
<g id="node21" class="node"><title>Node21</title>
<g id="a_node21"><a xlink:href="a00185_source.html" target="_top" xlink:title="freetds/data.h">
<polygon fill="white" stroke="black" points="1432.5,-56.5 1432.5,-75.5 1514.5,-75.5 1514.5,-56.5 1432.5,-56.5"/>
<text text-anchor="middle" x="1473.5" y="-63.5" font-family="Helvetica,sans-Serif" font-size="10.00">freetds/data.h</text>
</a>
</g>
</g>
<!-- Node1&#45;&gt;Node21 -->
<g id="edge35" class="edge"><title>Node1&#45;&gt;Node21</title>
<path fill="none" stroke="midnightblue" d="M1008.85,-231.01C1047.09,-227.281 1102.62,-216.85 1141.5,-188 1173.21,-164.471 1154.67,-133.932 1187.5,-112 1273.06,-54.8461 1316.18,-91.0484 1422.2,-76.0611"/>
<polygon fill="midnightblue" stroke="midnightblue" points="1422.96,-79.4846 1432.31,-74.5033 1421.9,-72.5661 1422.96,-79.4846"/>
</g>
<!-- Node22 -->
<g id="node22" class="node"><title>Node22</title>
<g id="a_node22"><a xlink:href="a00212_source.html" target="_top" xlink:title="sybfront.h">
<polygon fill="white" stroke="black" points="1070.5,-168.5 1070.5,-187.5 1132.5,-187.5 1132.5,-168.5 1070.5,-168.5"/>
<text text-anchor="middle" x="1101.5" y="-175.5" font-family="Helvetica,sans-Serif" font-size="10.00">sybfront.h</text>
</a>
</g>
</g>
<!-- Node1&#45;&gt;Node22 -->
<g id="edge39" class="edge"><title>Node1&#45;&gt;Node22</title>
<path fill="none" stroke="midnightblue" d="M987.05,-224.444C1009.53,-215.517 1044.99,-201.439 1070.48,-191.317"/>
<polygon fill="midnightblue" stroke="midnightblue" points="1072.05,-194.46 1080.05,-187.516 1069.47,-187.954 1072.05,-194.46"/>
</g>
<!-- Node23 -->
<g id="node23" class="node"><title>Node23</title>
<g id="a_node23"><a xlink:href="a00210.html" target="_top" xlink:title="Primary include file for db&#45;lib applications. ">
<polygon fill="white" stroke="black" points="1083.5,-112.5 1083.5,-131.5 1135.5,-131.5 1135.5,-112.5 1083.5,-112.5"/>
<text text-anchor="middle" x="1109.5" y="-119.5" font-family="Helvetica,sans-Serif" font-size="10.00">sybdb.h</text>
</a>
</g>
</g>
<!-- Node1&#45;&gt;Node23 -->
<g id="edge42" class="edge"><title>Node1&#45;&gt;Node23</title>
<path fill="none" stroke="midnightblue" d="M976.799,-224.368C1001.3,-205.653 1059.56,-161.151 1090.08,-137.832"/>
<polygon fill="midnightblue" stroke="midnightblue" points="1092.43,-140.443 1098.25,-131.591 1088.18,-134.881 1092.43,-140.443"/>
</g>
<!-- Node24 -->
<g id="node24" class="node"><title>Node24</title>
<g id="a_node24"><a xlink:href="a00211_source.html" target="_top" xlink:title="syberror.h">
<polygon fill="white" stroke="black" points="1301.5,-168.5 1301.5,-187.5 1365.5,-187.5 1365.5,-168.5 1301.5,-168.5"/>
<text text-anchor="middle" x="1333.5" y="-175.5" font-family="Helvetica,sans-Serif" font-size="10.00">syberror.h</text>
</a>
</g>
</g>
<!-- Node1&#45;&gt;Node24 -->
<g id="edge43" class="edge"><title>Node1&#45;&gt;Node24</title>
<path fill="none" stroke="midnightblue" d="M1008.52,-228.183C1069.31,-221.134 1184.02,-206.946 1291.3,-188.096"/>
<polygon fill="midnightblue" stroke="midnightblue" points="1292.08,-191.511 1301.32,-186.317 1290.86,-184.618 1292.08,-191.511"/>
</g>
<!-- Node25 -->
<g id="node25" class="node"><title>Node25</title>
<g id="a_node25"><a xlink:href="a00179_source.html" target="_top" xlink:title="dblib.h">
<polygon fill="white" stroke="black" points="1532.5,-56.5 1532.5,-75.5 1578.5,-75.5 1578.5,-56.5 1532.5,-56.5"/>
<text text-anchor="middle" x="1555.5" y="-63.5" font-family="Helvetica,sans-Serif" font-size="10.00">dblib.h</text>
</a>
</g>
</g>
<!-- Node1&#45;&gt;Node25 -->
<g id="edge44" class="edge"><title>Node1&#45;&gt;Node25</title>
<path fill="none" stroke="midnightblue" d="M1008.73,-224.655C1049.09,-216.517 1110.83,-203.173 1163.5,-188 1189.3,-180.569 1194.97,-176.321 1220.5,-168 1330.51,-132.136 1462.28,-93.7255 1522.52,-76.4134"/>
<polygon fill="midnightblue" stroke="midnightblue" points="1523.59,-79.7472 1532.24,-73.6252 1521.66,-73.0186 1523.59,-79.7472"/>
</g>
<!-- Node26 -->
<g id="node26" class="node"><title>Node26</title>
<g id="a_node26"><a xlink:href="a00237_source.html" target="_top" xlink:title="buffering.h">
<polygon fill="white" stroke="black" points="1384,-168.5 1384,-187.5 1449,-187.5 1449,-168.5 1384,-168.5"/>
<text text-anchor="middle" x="1416.5" y="-175.5" font-family="Helvetica,sans-Serif" font-size="10.00">buffering.h</text>
</a>
</g>
</g>
<!-- Node1&#45;&gt;Node26 -->
<g id="edge47" class="edge"><title>Node1&#45;&gt;Node26</title>
<path fill="none" stroke="midnightblue" d="M1008.68,-229.7C1081.74,-223.801 1234.54,-210.103 1373.56,-187.998"/>
<polygon fill="midnightblue" stroke="midnightblue" points="1374.23,-191.436 1383.54,-186.392 1373.12,-184.525 1374.23,-191.436"/>
</g>
<!-- Node4&#45;&gt;Node4 -->
<g id="edge4" class="edge"><title>Node4&#45;&gt;Node4</title>
<path fill="none" stroke="midnightblue" d="M212.237,-131.525C229.045,-134.308 245.5,-131.133 245.5,-122 245.5,-114.722 235.051,-111.228 222.301,-111.517"/>
<polygon fill="midnightblue" stroke="midnightblue" points="221.86,-108.043 212.237,-112.475 222.524,-115.011 221.86,-108.043"/>
</g>
<!-- Node7&#45;&gt;Node3 -->
<g id="edge8" class="edge"><title>Node7&#45;&gt;Node3</title>
<path fill="none" stroke="midnightblue" d="M639.991,-168.368C643.057,-150.617 650.13,-109.666 654.288,-85.5974"/>
<polygon fill="midnightblue" stroke="midnightblue" points="657.763,-86.0413 656.016,-75.5914 650.865,-84.8498 657.763,-86.0413"/>
</g>
<!-- Node7&#45;&gt;Node4 -->
<g id="edge10" class="edge"><title>Node7&#45;&gt;Node4</title>
<path fill="none" stroke="midnightblue" d="M600.865,-172.803C532.06,-165.082 381.37,-147.954 254.5,-132 249.042,-131.314 243.336,-130.577 237.656,-129.831"/>
<polygon fill="midnightblue" stroke="midnightblue" points="237.893,-126.332 227.52,-128.488 236.974,-133.271 237.893,-126.332"/>
</g>
<!-- Node7&#45;&gt;Node6 -->
<g id="edge9" class="edge"><title>Node7&#45;&gt;Node6</title>
<path fill="none" stroke="midnightblue" d="M600.893,-173.346C542.761,-167.341 427.466,-154.006 321.111,-132.116"/>
<polygon fill="midnightblue" stroke="midnightblue" points="321.682,-128.66 311.178,-130.041 320.251,-135.512 321.682,-128.66"/>
</g>
<!-- Node8 -->
<g id="node8" class="node"><title>Node8</title>
<g id="a_node8"><a xlink:href="a00200_source.html" target="_top" xlink:title="freetds/version.h">
<polygon fill="white" stroke="black" points="329,-112.5 329,-131.5 424,-131.5 424,-112.5 329,-112.5"/>
<text text-anchor="middle" x="376.5" y="-119.5" font-family="Helvetica,sans-Serif" font-size="10.00">freetds/version.h</text>
</a>
</g>
</g>
<!-- Node7&#45;&gt;Node8 -->
<g id="edge11" class="edge"><title>Node7&#45;&gt;Node8</title>
<path fill="none" stroke="midnightblue" d="M600.962,-169.263C555.462,-159.885 478.576,-144.039 427.675,-133.548"/>
<polygon fill="midnightblue" stroke="midnightblue" points="428.36,-130.115 417.859,-131.524 426.946,-136.971 428.36,-130.115"/>
</g>
<!-- Node9 -->
<g id="node9" class="node"><title>Node9</title>
<polygon fill="white" stroke="#bfbfbf" points="442,-112.5 442,-131.5 553,-131.5 553,-112.5 442,-112.5"/>
<text text-anchor="middle" x="497.5" y="-119.5" font-family="Helvetica,sans-Serif" font-size="10.00">tds_sysdep_public.h</text>
</g>
<!-- Node7&#45;&gt;Node9 -->
<g id="edge12" class="edge"><title>Node7&#45;&gt;Node9</title>
<path fill="none" stroke="midnightblue" d="M616.158,-168.444C592.747,-159.478 555.764,-145.314 529.31,-135.183"/>
<polygon fill="midnightblue" stroke="midnightblue" points="530.328,-131.824 519.737,-131.516 527.824,-138.361 530.328,-131.824"/>
</g>
<!-- Node10 -->
<g id="node10" class="node"><title>Node10</title>
<g id="a_node10"><a xlink:href="a00195_source.html" target="_top" xlink:title="freetds/sysdep_private.h">
<polygon fill="white" stroke="black" points="703,-56.5 703,-75.5 836,-75.5 836,-56.5 703,-56.5"/>
<text text-anchor="middle" x="769.5" y="-63.5" font-family="Helvetica,sans-Serif" font-size="10.00">freetds/sysdep_private.h</text>
</a>
</g>
</g>
<!-- Node7&#45;&gt;Node10 -->
<g id="edge13" class="edge"><title>Node7&#45;&gt;Node10</title>
<path fill="none" stroke="midnightblue" d="M648.765,-168.097C663.313,-155.508 690.796,-131.829 714.5,-112 726.596,-101.881 740.326,-90.6475 751.041,-81.9356"/>
<polygon fill="midnightblue" stroke="midnightblue" points="753.34,-84.5776 758.9,-75.5589 748.929,-79.1419 753.34,-84.5776"/>
</g>
<!-- Node7&#45;&gt;Node11 -->
<g id="edge14" class="edge"><title>Node7&#45;&gt;Node11</title>
<path fill="none" stroke="midnightblue" d="M676.074,-171.674C743.271,-162.151 884.353,-142.155 963.176,-130.983"/>
<polygon fill="midnightblue" stroke="midnightblue" points="963.995,-134.402 973.405,-129.533 963.012,-127.471 963.995,-134.402"/>
</g>
<!-- Node7&#45;&gt;Node12 -->
<g id="edge15" class="edge"><title>Node7&#45;&gt;Node12</title>
<path fill="none" stroke="midnightblue" d="M675.578,-168.444C716.228,-159.063 781.532,-143.993 825.684,-133.804"/>
<polygon fill="midnightblue" stroke="midnightblue" points="826.639,-137.175 835.595,-131.516 825.065,-130.355 826.639,-137.175"/>
</g>
<!-- Node15 -->
<g id="node15" class="node"><title>Node15</title>
<g id="a_node15"><a xlink:href="a00191_source.html" target="_top" xlink:title="freetds/pushvis.h">
<polygon fill="white" stroke="black" points="1009.5,-0.5 1009.5,-19.5 1105.5,-19.5 1105.5,-0.5 1009.5,-0.5"/>
<text text-anchor="middle" x="1057.5" y="-7.5" font-family="Helvetica,sans-Serif" font-size="10.00">freetds/pushvis.h</text>
</a>
</g>
</g>
<!-- Node7&#45;&gt;Node15 -->
<g id="edge25" class="edge"><title>Node7&#45;&gt;Node15</title>
<path fill="none" stroke="midnightblue" d="M633.169,-168.355C620.421,-146.471 591.333,-88.3244 620.5,-56 645.397,-28.4072 885.715,-16.745 998.983,-12.7506"/>
<polygon fill="midnightblue" stroke="midnightblue" points="999.336,-16.2406 1009.21,-12.3986 999.095,-9.24476 999.336,-16.2406"/>
</g>
<!-- Node16 -->
<g id="node16" class="node"><title>Node16</title>
<g id="a_node16"><a xlink:href="a00189_source.html" target="_top" xlink:title="freetds/popvis.h">
<polygon fill="white" stroke="black" points="1123.5,-0.5 1123.5,-19.5 1215.5,-19.5 1215.5,-0.5 1123.5,-0.5"/>
<text text-anchor="middle" x="1169.5" y="-7.5" font-family="Helvetica,sans-Serif" font-size="10.00">freetds/popvis.h</text>
</a>
</g>
</g>
<!-- Node7&#45;&gt;Node16 -->
<g id="edge27" class="edge"><title>Node7&#45;&gt;Node16</title>
<path fill="none" stroke="midnightblue" d="M633.112,-168.303C620.23,-146.296 590.854,-87.8853 620.5,-56 656.364,-17.4272 1025.98,-25.6202 1113.33,-19.7447"/>
<polygon fill="midnightblue" stroke="midnightblue" points="1113.67,-23.2277 1123.33,-18.8628 1113.06,-16.2548 1113.67,-23.2277"/>
</g>
<!-- Node18 -->
<g id="node18" class="node"><title>Node18</title>
<g id="a_node18"><a xlink:href="a00190_source.html" target="_top" xlink:title="freetds/proto.h">
<polygon fill="white" stroke="black" points="723.5,-112.5 723.5,-131.5 809.5,-131.5 809.5,-112.5 723.5,-112.5"/>
<text text-anchor="middle" x="766.5" y="-119.5" font-family="Helvetica,sans-Serif" font-size="10.00">freetds/proto.h</text>
</a>
</g>
</g>
<!-- Node7&#45;&gt;Node18 -->
<g id="edge26" class="edge"><title>Node7&#45;&gt;Node18</title>
<path fill="none" stroke="midnightblue" d="M658.782,-168.444C679.847,-159.557 713.017,-145.563 736.986,-135.451"/>
<polygon fill="midnightblue" stroke="midnightblue" points="738.46,-138.628 746.313,-131.516 735.739,-132.179 738.46,-138.628"/>
</g>
<!-- Node12&#45;&gt;Node3 -->
<g id="edge16" class="edge"><title>Node12&#45;&gt;Node3</title>
<path fill="none" stroke="midnightblue" d="M838.433,-112.444C799.355,-102.629 735.478,-86.5852 695.01,-76.421"/>
<polygon fill="midnightblue" stroke="midnightblue" points="695.806,-73.0125 685.255,-73.971 694.101,-79.8016 695.806,-73.0125"/>
</g>
<!-- Node12&#45;&gt;Node10 -->
<g id="edge18" class="edge"><title>Node12&#45;&gt;Node10</title>
<path fill="none" stroke="midnightblue" d="M855.951,-112.324C839.508,-103.703 814.065,-90.3643 795.032,-80.3855"/>
<polygon fill="midnightblue" stroke="midnightblue" points="796.489,-77.198 786.008,-75.6545 793.239,-83.3977 796.489,-77.198"/>
</g>
<!-- Node13 -->
<g id="node13" class="node"><title>Node13</title>
<g id="a_node13"><a xlink:href="a00213_source.html" target="_top" xlink:title="tds_sysdep_public.h">
<polygon fill="white" stroke="black" points="1303,-56.5 1303,-75.5 1414,-75.5 1414,-56.5 1303,-56.5"/>
<text text-anchor="middle" x="1358.5" y="-63.5" font-family="Helvetica,sans-Serif" font-size="10.00">tds_sysdep_public.h</text>
</a>
</g>
</g>
<!-- Node12&#45;&gt;Node13 -->
<g id="edge17" class="edge"><title>Node12&#45;&gt;Node13</title>
<path fill="none" stroke="midnightblue" d="M917.226,-116.422C1006.69,-107.236 1205.91,-86.6196 1292.66,-76.1843"/>
<polygon fill="midnightblue" stroke="midnightblue" points="1293.16,-79.6489 1302.67,-74.9637 1292.32,-72.7004 1293.16,-79.6489"/>
</g>
<!-- Node14 -->
<g id="node14" class="node"><title>Node14</title>
<g id="a_node14"><a xlink:href="a00206_source.html" target="_top" xlink:title="replacements/readpassphrase.h">
<polygon fill="white" stroke="black" points="973,-56.5 973,-75.5 1142,-75.5 1142,-56.5 973,-56.5"/>
<text text-anchor="middle" x="1057.5" y="-63.5" font-family="Helvetica,sans-Serif" font-size="10.00">replacements/readpassphrase.h</text>
</a>
</g>
</g>
<!-- Node12&#45;&gt;Node14 -->
<g id="edge19" class="edge"><title>Node12&#45;&gt;Node14</title>
<path fill="none" stroke="midnightblue" d="M901.814,-112.444C933.342,-103.241 983.631,-88.5617 1018.49,-78.3879"/>
<polygon fill="midnightblue" stroke="midnightblue" points="1019.7,-81.6783 1028.32,-75.5164 1017.74,-74.9587 1019.7,-81.6783"/>
</g>
<!-- Node12&#45;&gt;Node15 -->
<g id="edge23" class="edge"><title>Node12&#45;&gt;Node15</title>
<path fill="none" stroke="midnightblue" d="M871.241,-112.149C869.807,-98.3054 869.258,-71.5134 883.5,-56 899.112,-38.9939 954.811,-26.6126 999.038,-19.1916"/>
<polygon fill="midnightblue" stroke="midnightblue" points="999.832,-22.6086 1009.14,-17.5479 998.708,-15.6994 999.832,-22.6086"/>
</g>
<!-- Node12&#45;&gt;Node16 -->
<g id="edge24" class="edge"><title>Node12&#45;&gt;Node16</title>
<path fill="none" stroke="midnightblue" d="M917.212,-114.1C995.489,-101.979 1149.32,-77.951 1151.5,-76 1164.43,-64.4225 1168.42,-44.4622 1169.49,-29.7069"/>
<polygon fill="midnightblue" stroke="midnightblue" points="1172.99,-29.7783 1169.84,-19.6632 1165.99,-29.5361 1172.99,-29.7783"/>
</g>
<!-- Node17 -->
<g id="node17" class="node"><title>Node17</title>
<g id="a_node17"><a xlink:href="a00181.html" target="_top" xlink:title="Provide poll call where missing. ">
<polygon fill="white" stroke="red" points="892.5,-56.5 892.5,-75.5 954.5,-75.5 954.5,-56.5 892.5,-56.5"/>
<text text-anchor="middle" x="923.5" y="-63.5" font-family="Helvetica,sans-Serif" font-size="10.00">fakepoll.h</text>
</a>
</g>
</g>
<!-- Node12&#45;&gt;Node17 -->
<g id="edge22" class="edge"><title>Node12&#45;&gt;Node17</title>
<path fill="none" stroke="midnightblue" d="M880.922,-112.083C888.348,-104.22 899.352,-92.5688 908.312,-83.0813"/>
<polygon fill="midnightblue" stroke="midnightblue" points="910.913,-85.4244 915.235,-75.7511 905.824,-80.618 910.913,-85.4244"/>
</g>
<!-- Node14&#45;&gt;Node15 -->
<g id="edge20" class="edge"><title>Node14&#45;&gt;Node15</title>
<path fill="none" stroke="midnightblue" d="M1057.5,-56.083C1057.5,-49.0059 1057.5,-38.8611 1057.5,-29.9865"/>
<polygon fill="midnightblue" stroke="midnightblue" points="1061,-29.751 1057.5,-19.7511 1054,-29.7511 1061,-29.751"/>
</g>
<!-- Node14&#45;&gt;Node16 -->
<g id="edge21" class="edge"><title>Node14&#45;&gt;Node16</title>
<path fill="none" stroke="midnightblue" d="M1075.49,-56.324C1093.54,-47.6247 1121.55,-34.1202 1142.3,-24.113"/>
<polygon fill="midnightblue" stroke="midnightblue" points="1144.06,-27.1502 1151.55,-19.6545 1141.02,-20.8449 1144.06,-27.1502"/>
</g>
<!-- Node19&#45;&gt;Node15 -->
<g id="edge30" class="edge"><title>Node19&#45;&gt;Node15</title>
<path fill="none" stroke="midnightblue" d="M535.529,-57.7581C540.245,-57.1281 544.963,-56.5299 549.5,-56 712.036,-37.0191 904.666,-21.9899 999.218,-15.0998"/>
<polygon fill="midnightblue" stroke="midnightblue" points="999.711,-18.5734 1009.43,-14.3595 999.205,-11.5917 999.711,-18.5734"/>
</g>
<!-- Node19&#45;&gt;Node16 -->
<g id="edge31" class="edge"><title>Node19&#45;&gt;Node16</title>
<path fill="none" stroke="midnightblue" d="M535.516,-57.6404C540.235,-57.0343 544.956,-56.4738 549.5,-56 796.464,-30.2495 862.743,-47.8727 1113.19,-20.0338"/>
<polygon fill="midnightblue" stroke="midnightblue" points="1113.79,-23.4895 1123.33,-18.8935 1113,-16.5333 1113.79,-23.4895"/>
</g>
<!-- Node20&#45;&gt;Node15 -->
<g id="edge33" class="edge"><title>Node20&#45;&gt;Node15</title>
<path fill="none" stroke="midnightblue" d="M1212.34,-56.4435C1180.99,-47.2406 1130.97,-32.5617 1096.3,-22.3879"/>
<polygon fill="midnightblue" stroke="midnightblue" points="1097.1,-18.9742 1086.52,-19.5164 1095.13,-25.6909 1097.1,-18.9742"/>
</g>
<!-- Node20&#45;&gt;Node16 -->
<g id="edge34" class="edge"><title>Node20&#45;&gt;Node16</title>
<path fill="none" stroke="midnightblue" d="M1229.93,-56.324C1219.08,-48.1849 1202.62,-35.8395 1189.62,-26.0874"/>
<polygon fill="midnightblue" stroke="midnightblue" points="1191.38,-23.0339 1181.28,-19.8339 1187.18,-28.6339 1191.38,-23.0339"/>
</g>
<!-- Node21&#45;&gt;Node15 -->
<g id="edge36" class="edge"><title>Node21&#45;&gt;Node15</title>
<path fill="none" stroke="midnightblue" d="M1432.33,-57.3808C1429.35,-56.8925 1426.38,-56.4264 1423.5,-56 1289.94,-36.2182 1253.19,-38.6559 1115.75,-20.12"/>
<polygon fill="midnightblue" stroke="midnightblue" points="1116.06,-16.6298 1105.68,-18.7485 1115.12,-23.5658 1116.06,-16.6298"/>
</g>
<!-- Node21&#45;&gt;Node16 -->
<g id="edge37" class="edge"><title>Node21&#45;&gt;Node16</title>
<path fill="none" stroke="midnightblue" d="M1432.3,-57.5749C1429.32,-57.041 1426.37,-56.5117 1423.5,-56 1355.51,-43.8583 1277.26,-30.0145 1225.78,-20.9257"/>
<polygon fill="midnightblue" stroke="midnightblue" points="1226.31,-17.4651 1215.86,-19.1733 1225.1,-24.3585 1226.31,-17.4651"/>
</g>
<!-- Node22&#45;&gt;Node23 -->
<g id="edge40" class="edge"><title>Node22&#45;&gt;Node23</title>
<path fill="none" stroke="midnightblue" d="M1102.82,-168.083C1103.88,-160.927 1105.41,-150.635 1106.73,-141.691"/>
<polygon fill="midnightblue" stroke="midnightblue" points="1110.2,-142.156 1108.2,-131.751 1103.28,-141.13 1110.2,-142.156"/>
</g>
<!-- Node23&#45;&gt;Node13 -->
<g id="edge41" class="edge"><title>Node23&#45;&gt;Node13</title>
<path fill="none" stroke="midnightblue" d="M1135.74,-115.059C1140.33,-114.032 1145.05,-112.979 1149.5,-112 1203.86,-100.032 1266.26,-86.6419 1308.62,-77.6038"/>
<polygon fill="midnightblue" stroke="midnightblue" points="1309.36,-81.0255 1318.41,-75.517 1307.9,-74.1794 1309.36,-81.0255"/>
</g>
<!-- Node25&#45;&gt;Node15 -->
<g id="edge45" class="edge"><title>Node25&#45;&gt;Node15</title>
<path fill="none" stroke="midnightblue" d="M1532.2,-57.9048C1529.29,-57.1792 1526.34,-56.5194 1523.5,-56 1347.24,-23.748 1297.41,-41.5705 1115.83,-20.0715"/>
<polygon fill="midnightblue" stroke="midnightblue" points="1116.02,-16.569 1105.67,-18.8443 1115.18,-23.5185 1116.02,-16.569"/>
</g>
<!-- Node25&#45;&gt;Node16 -->
<g id="edge46" class="edge"><title>Node25&#45;&gt;Node16</title>
<path fill="none" stroke="midnightblue" d="M1532.18,-58.0111C1529.27,-57.2673 1526.33,-56.5741 1523.5,-56 1419.55,-34.8955 1296.3,-21.8923 1226.07,-15.5939"/>
<polygon fill="midnightblue" stroke="midnightblue" points="1225.95,-12.0699 1215.68,-14.6768 1225.33,-19.0428 1225.95,-12.0699"/>
</g>
</g>
</svg>
