<?xml version="1.0" encoding="UTF-8" standalone="no"?>
<!DOCTYPE svg PUBLIC "-//W3C//DTD SVG 1.1//EN"
 "http://www.w3.org/Graphics/SVG/1.1/DTD/svg11.dtd">
<!-- Generated by graphviz version 2.38.0 (20140413.2041)
 -->
<!-- Title: include/freetds/tds.h Pages: 1 -->
<svg width="1366pt" height="196pt"
 viewBox="0.00 0.00 1365.50 196.00" xmlns="http://www.w3.org/2000/svg" xmlns:xlink="http://www.w3.org/1999/xlink">
<g id="graph0" class="graph" transform="scale(1 1) rotate(0) translate(4 192)">
<title>include/freetds/tds.h</title>
<polygon fill="white" stroke="none" points="-4,4 -4,-192 1361.5,-192 1361.5,4 -4,4"/>
<!-- Node1 -->
<g id="node1" class="node"><title>Node1</title>
<polygon fill="#bfbfbf" stroke="black" points="741,-168.5 741,-187.5 852,-187.5 852,-168.5 741,-168.5"/>
<text text-anchor="middle" x="796.5" y="-175.5" font-family="Helvetica,sans-Serif" font-size="10.00">include/freetds/tds.h</text>
</g>
<!-- Node2 -->
<g id="node2" class="node"><title>Node2</title>
<polygon fill="white" stroke="#bfbfbf" points="0,-56.5 0,-75.5 55,-75.5 55,-56.5 0,-56.5"/>
<text text-anchor="middle" x="27.5" y="-63.5" font-family="Helvetica,sans-Serif" font-size="10.00">stdarg.h</text>
</g>
<!-- Node1&#45;&gt;Node2 -->
<g id="edge1" class="edge"><title>Node1&#45;&gt;Node2</title>
<path fill="none" stroke="midnightblue" d="M740.962,-176.24C641.15,-174.038 425.186,-165.454 246.5,-132 178.832,-119.331 102.241,-93.9578 59.9392,-78.9337"/>
<polygon fill="midnightblue" stroke="midnightblue" points="61.0433,-75.6115 50.4488,-75.5317 58.6812,-82.2009 61.0433,-75.6115"/>
</g>
<!-- Node3 -->
<g id="node3" class="node"><title>Node3</title>
<polygon fill="white" stroke="#bfbfbf" points="773,-112.5 773,-131.5 820,-131.5 820,-112.5 773,-112.5"/>
<text text-anchor="middle" x="796.5" y="-119.5" font-family="Helvetica,sans-Serif" font-size="10.00">stdio.h</text>
</g>
<!-- Node1&#45;&gt;Node3 -->
<g id="edge2" class="edge"><title>Node1&#45;&gt;Node3</title>
<path fill="none" stroke="midnightblue" d="M796.5,-168.083C796.5,-161.006 796.5,-150.861 796.5,-141.986"/>
<polygon fill="midnightblue" stroke="midnightblue" points="800,-141.751 796.5,-131.751 793,-141.751 800,-141.751"/>
</g>
<!-- Node4 -->
<g id="node4" class="node"><title>Node4</title>
<g id="a_node4"><a xlink:href="a00198_source.html" target="_top" xlink:title="time.h">
<polygon fill="white" stroke="black" points="838.5,-112.5 838.5,-131.5 882.5,-131.5 882.5,-112.5 838.5,-112.5"/>
<text text-anchor="middle" x="860.5" y="-119.5" font-family="Helvetica,sans-Serif" font-size="10.00">time.h</text>
</a>
</g>
</g>
<!-- Node1&#45;&gt;Node4 -->
<g id="edge3" class="edge"><title>Node1&#45;&gt;Node4</title>
<path fill="none" stroke="midnightblue" d="M806.783,-168.324C816.336,-160.263 830.78,-148.077 842.284,-138.369"/>
<polygon fill="midnightblue" stroke="midnightblue" points="844.644,-140.958 850.03,-131.834 840.13,-135.608 844.644,-140.958"/>
</g>
<!-- Node5 -->
<g id="node5" class="node"><title>Node5</title>
<g id="a_node5"><a xlink:href="a00200_source.html" target="_top" xlink:title="freetds/version.h">
<polygon fill="white" stroke="black" points="919,-112.5 919,-131.5 1014,-131.5 1014,-112.5 919,-112.5"/>
<text text-anchor="middle" x="966.5" y="-119.5" font-family="Helvetica,sans-Serif" font-size="10.00">freetds/version.h</text>
</a>
</g>
</g>
<!-- Node1&#45;&gt;Node5 -->
<g id="edge5" class="edge"><title>Node1&#45;&gt;Node5</title>
<path fill="none" stroke="midnightblue" d="M823.437,-168.444C852.16,-159.32 897.829,-144.813 929.821,-134.651"/>
<polygon fill="midnightblue" stroke="midnightblue" points="931.218,-137.88 939.689,-131.516 929.099,-131.208 931.218,-137.88"/>
</g>
<!-- Node6 -->
<g id="node6" class="node"><title>Node6</title>
<polygon fill="white" stroke="#bfbfbf" points="1032,-112.5 1032,-131.5 1143,-131.5 1143,-112.5 1032,-112.5"/>
<text text-anchor="middle" x="1087.5" y="-119.5" font-family="Helvetica,sans-Serif" font-size="10.00">tds_sysdep_public.h</text>
</g>
<!-- Node1&#45;&gt;Node6 -->
<g id="edge6" class="edge"><title>Node1&#45;&gt;Node6</title>
<path fill="none" stroke="midnightblue" d="M842.61,-168.444C893.906,-158.925 976.773,-143.547 1031.69,-133.356"/>
<polygon fill="midnightblue" stroke="midnightblue" points="1032.41,-136.782 1041.61,-131.516 1031.14,-129.9 1032.41,-136.782"/>
</g>
<!-- Node7 -->
<g id="node7" class="node"><title>Node7</title>
<g id="a_node7"><a xlink:href="a00195_source.html" target="_top" xlink:title="freetds/sysdep_private.h">
<polygon fill="white" stroke="black" points="73,-56.5 73,-75.5 206,-75.5 206,-56.5 73,-56.5"/>
<text text-anchor="middle" x="139.5" y="-63.5" font-family="Helvetica,sans-Serif" font-size="10.00">freetds/sysdep_private.h</text>
</a>
</g>
</g>
<!-- Node1&#45;&gt;Node7 -->
<g id="edge7" class="edge"><title>Node1&#45;&gt;Node7</title>
<path fill="none" stroke="midnightblue" d="M740.696,-176.564C649.977,-174.799 465.368,-166.792 313.5,-132 259.858,-119.711 200.412,-94.9215 166.737,-79.7586"/>
<polygon fill="midnightblue" stroke="midnightblue" points="168.099,-76.5332 157.548,-75.5709 165.196,-82.9029 168.099,-76.5332"/>
</g>
<!-- Node8 -->
<g id="node8" class="node"><title>Node8</title>
<g id="a_node8"><a xlink:href="a00197_source.html" target="_top" xlink:title="freetds/thread.h">
<polygon fill="white" stroke="black" points="1161.5,-112.5 1161.5,-131.5 1253.5,-131.5 1253.5,-112.5 1161.5,-112.5"/>
<text text-anchor="middle" x="1207.5" y="-119.5" font-family="Helvetica,sans-Serif" font-size="10.00">freetds/thread.h</text>
</a>
</g>
</g>
<!-- Node1&#45;&gt;Node8 -->
<g id="edge8" class="edge"><title>Node1&#45;&gt;Node8</title>
<path fill="none" stroke="midnightblue" d="M852.082,-170.61C920.151,-162.643 1039.22,-148.248 1151.19,-132.147"/>
<polygon fill="midnightblue" stroke="midnightblue" points="1151.91,-135.579 1161.31,-130.684 1150.91,-128.651 1151.91,-135.579"/>
</g>
<!-- Node9 -->
<g id="node9" class="node"><title>Node9</title>
<g id="a_node9"><a xlink:href="a00205_source.html" target="_top" xlink:title="replacements.h">
<polygon fill="white" stroke="black" points="322,-112.5 322,-131.5 411,-131.5 411,-112.5 322,-112.5"/>
<text text-anchor="middle" x="366.5" y="-119.5" font-family="Helvetica,sans-Serif" font-size="10.00">replacements.h</text>
</a>
</g>
</g>
<!-- Node1&#45;&gt;Node9 -->
<g id="edge9" class="edge"><title>Node1&#45;&gt;Node9</title>
<path fill="none" stroke="midnightblue" d="M740.726,-169.996C657.916,-159.596 503.409,-140.193 421.215,-129.871"/>
<polygon fill="midnightblue" stroke="midnightblue" points="421.435,-126.371 411.077,-128.598 420.563,-133.317 421.435,-126.371"/>
</g>
<!-- Node12 -->
<g id="node12" class="node"><title>Node12</title>
<g id="a_node12"><a xlink:href="a00191_source.html" target="_top" xlink:title="freetds/pushvis.h">
<polygon fill="white" stroke="black" points="508.5,-0.5 508.5,-19.5 604.5,-19.5 604.5,-0.5 508.5,-0.5"/>
<text text-anchor="middle" x="556.5" y="-7.5" font-family="Helvetica,sans-Serif" font-size="10.00">freetds/pushvis.h</text>
</a>
</g>
</g>
<!-- Node1&#45;&gt;Node12 -->
<g id="edge22" class="edge"><title>Node1&#45;&gt;Node12</title>
<path fill="none" stroke="midnightblue" d="M787.556,-168.22C765.612,-147 706.79,-92.0214 650.5,-56 630.514,-43.2107 606.337,-31.7157 587.508,-23.5451"/>
<polygon fill="midnightblue" stroke="midnightblue" points="588.771,-20.2791 578.199,-19.5861 586.032,-26.7207 588.771,-20.2791"/>
</g>
<!-- Node13 -->
<g id="node13" class="node"><title>Node13</title>
<g id="a_node13"><a xlink:href="a00189_source.html" target="_top" xlink:title="freetds/popvis.h">
<polygon fill="white" stroke="black" points="622.5,-0.5 622.5,-19.5 714.5,-19.5 714.5,-0.5 622.5,-0.5"/>
<text text-anchor="middle" x="668.5" y="-7.5" font-family="Helvetica,sans-Serif" font-size="10.00">freetds/popvis.h</text>
</a>
</g>
</g>
<!-- Node1&#45;&gt;Node13 -->
<g id="edge24" class="edge"><title>Node1&#45;&gt;Node13</title>
<path fill="none" stroke="midnightblue" d="M789.875,-168.204C783.222,-159.254 772.796,-144.901 764.5,-132 743.39,-99.1714 745.378,-86.0741 720.5,-56 711.226,-44.7884 698.996,-34.0528 688.727,-25.881"/>
<polygon fill="midnightblue" stroke="midnightblue" points="690.726,-23.0026 680.671,-19.6656 686.45,-28.545 690.726,-23.0026"/>
</g>
<!-- Node18 -->
<g id="node18" class="node"><title>Node18</title>
<g id="a_node18"><a xlink:href="a00190_source.html" target="_top" xlink:title="freetds/proto.h">
<polygon fill="white" stroke="black" points="1271.5,-112.5 1271.5,-131.5 1357.5,-131.5 1357.5,-112.5 1271.5,-112.5"/>
<text text-anchor="middle" x="1314.5" y="-119.5" font-family="Helvetica,sans-Serif" font-size="10.00">freetds/proto.h</text>
</a>
</g>
</g>
<!-- Node1&#45;&gt;Node18 -->
<g id="edge23" class="edge"><title>Node1&#45;&gt;Node18</title>
<path fill="none" stroke="midnightblue" d="M852.248,-172.978C937.944,-166.495 1107.41,-152.491 1261.3,-132.069"/>
<polygon fill="midnightblue" stroke="midnightblue" points="1261.96,-135.511 1271.41,-130.715 1261.03,-128.573 1261.96,-135.511"/>
</g>
<!-- Node4&#45;&gt;Node4 -->
<g id="edge4" class="edge"><title>Node4&#45;&gt;Node4</title>
<path fill="none" stroke="midnightblue" d="M877.768,-131.575C889.287,-134.27 900.5,-131.078 900.5,-122 900.5,-115.759 895.2,-112.3 888.145,-111.623"/>
<polygon fill="midnightblue" stroke="midnightblue" points="887.469,-108.165 877.768,-112.425 888.008,-115.144 887.469,-108.165"/>
</g>
<!-- Node9&#45;&gt;Node2 -->
<g id="edge10" class="edge"><title>Node9&#45;&gt;Node2</title>
<path fill="none" stroke="midnightblue" d="M321.854,-115.754C264.516,-108.711 161.762,-95.0628 65.2653,-76.2079"/>
<polygon fill="midnightblue" stroke="midnightblue" points="65.8365,-72.7531 55.3475,-74.2469 64.4786,-79.6202 65.8365,-72.7531"/>
</g>
<!-- Node9&#45;&gt;Node7 -->
<g id="edge12" class="edge"><title>Node9&#45;&gt;Node7</title>
<path fill="none" stroke="midnightblue" d="M330.531,-112.444C291.181,-103.083 228.013,-88.0561 185.186,-77.868"/>
<polygon fill="midnightblue" stroke="midnightblue" points="185.839,-74.4258 175.301,-75.5164 184.219,-81.2358 185.839,-74.4258"/>
</g>
<!-- Node10 -->
<g id="node10" class="node"><title>Node10</title>
<g id="a_node10"><a xlink:href="a00213_source.html" target="_top" xlink:title="tds_sysdep_public.h">
<polygon fill="white" stroke="black" points="343,-56.5 343,-75.5 454,-75.5 454,-56.5 343,-56.5"/>
<text text-anchor="middle" x="398.5" y="-63.5" font-family="Helvetica,sans-Serif" font-size="10.00">tds_sysdep_public.h</text>
</a>
</g>
</g>
<!-- Node9&#45;&gt;Node10 -->
<g id="edge11" class="edge"><title>Node9&#45;&gt;Node10</title>
<path fill="none" stroke="midnightblue" d="M371.784,-112.083C376.211,-104.613 382.663,-93.7244 388.118,-84.5199"/>
<polygon fill="midnightblue" stroke="midnightblue" points="391.227,-86.1383 393.314,-75.7511 385.205,-82.5697 391.227,-86.1383"/>
</g>
<!-- Node11 -->
<g id="node11" class="node"><title>Node11</title>
<g id="a_node11"><a xlink:href="a00206_source.html" target="_top" xlink:title="replacements/readpassphrase.h">
<polygon fill="white" stroke="black" points="472,-56.5 472,-75.5 641,-75.5 641,-56.5 472,-56.5"/>
<text text-anchor="middle" x="556.5" y="-63.5" font-family="Helvetica,sans-Serif" font-size="10.00">replacements/readpassphrase.h</text>
</a>
</g>
</g>
<!-- Node9&#45;&gt;Node11 -->
<g id="edge13" class="edge"><title>Node9&#45;&gt;Node11</title>
<path fill="none" stroke="midnightblue" d="M396.606,-112.444C429.126,-103.201 481.079,-88.4356 516.891,-78.2572"/>
<polygon fill="midnightblue" stroke="midnightblue" points="517.873,-81.617 526.535,-75.5164 515.959,-74.8837 517.873,-81.617"/>
</g>
<!-- Node9&#45;&gt;Node12 -->
<g id="edge20" class="edge"><title>Node9&#45;&gt;Node12</title>
<path fill="none" stroke="midnightblue" d="M356.392,-112.289C342.297,-99.0988 320.01,-73.7223 334.5,-56 354.812,-31.1572 439.45,-19.7006 498.142,-14.6592"/>
<polygon fill="midnightblue" stroke="midnightblue" points="498.732,-18.1227 508.414,-13.8189 498.162,-11.146 498.732,-18.1227"/>
</g>
<!-- Node9&#45;&gt;Node13 -->
<g id="edge21" class="edge"><title>Node9&#45;&gt;Node13</title>
<path fill="none" stroke="midnightblue" d="M411.108,-119.67C482.001,-116.639 615.917,-106.88 650.5,-76 663.446,-64.4404 667.435,-44.4772 668.499,-29.7165"/>
<polygon fill="midnightblue" stroke="midnightblue" points="671.999,-29.782 668.842,-19.6682 665.003,-29.5427 671.999,-29.782"/>
</g>
<!-- Node14 -->
<g id="node14" class="node"><title>Node14</title>
<g id="a_node14"><a xlink:href="a00181.html" target="_top" xlink:title="Provide poll call where missing. ">
<polygon fill="white" stroke="black" points="224.5,-56.5 224.5,-75.5 286.5,-75.5 286.5,-56.5 224.5,-56.5"/>
<text text-anchor="middle" x="255.5" y="-63.5" font-family="Helvetica,sans-Serif" font-size="10.00">fakepoll.h</text>
</a>
</g>
</g>
<!-- Node9&#45;&gt;Node14 -->
<g id="edge16" class="edge"><title>Node9&#45;&gt;Node14</title>
<path fill="none" stroke="midnightblue" d="M348.666,-112.324C330.784,-103.625 303.025,-90.1202 282.454,-80.113"/>
<polygon fill="midnightblue" stroke="midnightblue" points="283.813,-76.8819 273.29,-75.6545 280.751,-83.1765 283.813,-76.8819"/>
</g>
<!-- Node11&#45;&gt;Node12 -->
<g id="edge14" class="edge"><title>Node11&#45;&gt;Node12</title>
<path fill="none" stroke="midnightblue" d="M556.5,-56.083C556.5,-49.0059 556.5,-38.8611 556.5,-29.9865"/>
<polygon fill="midnightblue" stroke="midnightblue" points="560,-29.751 556.5,-19.7511 553,-29.7511 560,-29.751"/>
</g>
<!-- Node11&#45;&gt;Node13 -->
<g id="edge15" class="edge"><title>Node11&#45;&gt;Node13</title>
<path fill="none" stroke="midnightblue" d="M574.495,-56.324C592.538,-47.6247 620.547,-34.1202 641.303,-24.113"/>
<polygon fill="midnightblue" stroke="midnightblue" points="643.062,-27.1502 650.55,-19.6545 640.022,-20.8449 643.062,-27.1502"/>
</g>
<!-- Node15 -->
<g id="node15" class="node"><title>Node15</title>
<g id="a_node15"><a xlink:href="a00173_source.html" target="_top" xlink:title="config.h">
<polygon fill="white" stroke="black" points="309,-0.5 309,-19.5 362,-19.5 362,-0.5 309,-0.5"/>
<text text-anchor="middle" x="335.5" y="-7.5" font-family="Helvetica,sans-Serif" font-size="10.00">config.h</text>
</a>
</g>
</g>
<!-- Node14&#45;&gt;Node15 -->
<g id="edge17" class="edge"><title>Node14&#45;&gt;Node15</title>
<path fill="none" stroke="midnightblue" d="M268.353,-56.324C280.716,-47.979 299.63,-35.2122 314.237,-25.3524"/>
<polygon fill="midnightblue" stroke="midnightblue" points="316.348,-28.1503 322.679,-19.6545 312.432,-22.3483 316.348,-28.1503"/>
</g>
<!-- Node16 -->
<g id="node16" class="node"><title>Node16</title>
<polygon fill="white" stroke="#bfbfbf" points="153.5,-0.5 153.5,-19.5 201.5,-19.5 201.5,-0.5 153.5,-0.5"/>
<text text-anchor="middle" x="177.5" y="-7.5" font-family="Helvetica,sans-Serif" font-size="10.00">limits.h</text>
</g>
<!-- Node14&#45;&gt;Node16 -->
<g id="edge18" class="edge"><title>Node14&#45;&gt;Node16</title>
<path fill="none" stroke="midnightblue" d="M242.968,-56.324C230.914,-47.979 212.473,-35.2122 198.231,-25.3524"/>
<polygon fill="midnightblue" stroke="midnightblue" points="200.215,-22.469 190.001,-19.6545 196.231,-28.2243 200.215,-22.469"/>
</g>
<!-- Node17 -->
<g id="node17" class="node"><title>Node17</title>
<polygon fill="white" stroke="#bfbfbf" points="220,-0.5 220,-19.5 291,-19.5 291,-0.5 220,-0.5"/>
<text text-anchor="middle" x="255.5" y="-7.5" font-family="Helvetica,sans-Serif" font-size="10.00">sys/select.h</text>
</g>
<!-- Node14&#45;&gt;Node17 -->
<g id="edge19" class="edge"><title>Node14&#45;&gt;Node17</title>
<path fill="none" stroke="midnightblue" d="M255.5,-56.083C255.5,-49.0059 255.5,-38.8611 255.5,-29.9865"/>
<polygon fill="midnightblue" stroke="midnightblue" points="259,-29.751 255.5,-19.7511 252,-29.7511 259,-29.751"/>
</g>
</g>
</svg>
