<?xml version="1.0" encoding="UTF-8" standalone="no"?>
<!DOCTYPE svg PUBLIC "-//W3C//DTD SVG 1.1//EN"
 "http://www.w3.org/Graphics/SVG/1.1/DTD/svg11.dtd">
<!-- Generated by graphviz version 2.38.0 (20140413.2041)
 -->
<!-- Title: src/tds/bulk.c Pages: 1 -->
<svg width="1252pt" height="252pt"
 viewBox="0.00 0.00 1251.50 252.00" xmlns="http://www.w3.org/2000/svg" xmlns:xlink="http://www.w3.org/1999/xlink">
<g id="graph0" class="graph" transform="scale(1 1) rotate(0) translate(4 248)">
<title>src/tds/bulk.c</title>
<polygon fill="white" stroke="none" points="-4,4 -4,-248 1247.5,-248 1247.5,4 -4,4"/>
<!-- Node1 -->
<g id="node1" class="node"><title>Node1</title>
<polygon fill="#bfbfbf" stroke="black" points="229,-224.5 229,-243.5 306,-243.5 306,-224.5 229,-224.5"/>
<text text-anchor="middle" x="267.5" y="-231.5" font-family="Helvetica,sans-Serif" font-size="10.00">src/tds/bulk.c</text>
</g>
<!-- Node2 -->
<g id="node2" class="node"><title>Node2</title>
<polygon fill="white" stroke="#bfbfbf" points="0,-168.5 0,-187.5 53,-187.5 53,-168.5 0,-168.5"/>
<text text-anchor="middle" x="26.5" y="-175.5" font-family="Helvetica,sans-Serif" font-size="10.00">config.h</text>
</g>
<!-- Node1&#45;&gt;Node2 -->
<g id="edge1" class="edge"><title>Node1&#45;&gt;Node2</title>
<path fill="none" stroke="midnightblue" d="M228.886,-224.872C189.636,-216.532 126.832,-202.977 63.0439,-188.075"/>
<polygon fill="midnightblue" stroke="midnightblue" points="63.7505,-184.646 53.2155,-185.77 62.1521,-191.461 63.7505,-184.646"/>
</g>
<!-- Node3 -->
<g id="node3" class="node"><title>Node3</title>
<polygon fill="white" stroke="#bfbfbf" points="71.5,-168.5 71.5,-187.5 125.5,-187.5 125.5,-168.5 71.5,-168.5"/>
<text text-anchor="middle" x="98.5" y="-175.5" font-family="Helvetica,sans-Serif" font-size="10.00">assert.h</text>
</g>
<!-- Node1&#45;&gt;Node3 -->
<g id="edge2" class="edge"><title>Node1&#45;&gt;Node3</title>
<path fill="none" stroke="midnightblue" d="M240.721,-224.444C212.167,-215.32 166.767,-200.813 134.963,-190.651"/>
<polygon fill="midnightblue" stroke="midnightblue" points="135.744,-187.226 125.153,-187.516 133.614,-193.894 135.744,-187.226"/>
</g>
<!-- Node4 -->
<g id="node4" class="node"><title>Node4</title>
<g id="a_node4"><a xlink:href="a00196.html" target="_top" xlink:title="Main include file for libtds. ">
<polygon fill="white" stroke="black" points="674,-168.5 674,-187.5 749,-187.5 749,-168.5 674,-168.5"/>
<text text-anchor="middle" x="711.5" y="-175.5" font-family="Helvetica,sans-Serif" font-size="10.00">freetds/tds.h</text>
</a>
</g>
</g>
<!-- Node1&#45;&gt;Node4 -->
<g id="edge3" class="edge"><title>Node1&#45;&gt;Node4</title>
<path fill="none" stroke="midnightblue" d="M306.125,-228.302C387.304,-218.429 575.405,-195.552 663.88,-184.792"/>
<polygon fill="midnightblue" stroke="midnightblue" points="664.404,-188.254 673.908,-183.572 663.559,-181.305 664.404,-188.254"/>
</g>
<!-- Node12 -->
<g id="node12" class="node"><title>Node12</title>
<g id="a_node12"><a xlink:href="a00205_source.html" target="_top" xlink:title="replacements.h">
<polygon fill="white" stroke="black" points="296,-112.5 296,-131.5 385,-131.5 385,-112.5 296,-112.5"/>
<text text-anchor="middle" x="340.5" y="-119.5" font-family="Helvetica,sans-Serif" font-size="10.00">replacements.h</text>
</a>
</g>
</g>
<!-- Node1&#45;&gt;Node12 -->
<g id="edge38" class="edge"><title>Node1&#45;&gt;Node12</title>
<path fill="none" stroke="midnightblue" d="M273.228,-224.368C285.275,-206.215 313.423,-163.802 329.225,-139.99"/>
<polygon fill="midnightblue" stroke="midnightblue" points="332.185,-141.859 334.798,-131.591 326.353,-137.988 332.185,-141.859"/>
</g>
<!-- Node19 -->
<g id="node19" class="node"><title>Node19</title>
<g id="a_node19"><a xlink:href="a00323_source.html" target="_top" xlink:title="tds_checks.h">
<polygon fill="white" stroke="black" points="221.5,-56.5 221.5,-75.5 299.5,-75.5 299.5,-56.5 221.5,-56.5"/>
<text text-anchor="middle" x="260.5" y="-63.5" font-family="Helvetica,sans-Serif" font-size="10.00">tds_checks.h</text>
</a>
</g>
</g>
<!-- Node1&#45;&gt;Node19 -->
<g id="edge25" class="edge"><title>Node1&#45;&gt;Node19</title>
<path fill="none" stroke="midnightblue" d="M263.9,-224.222C260.444,-215.285 255.467,-200.942 253.5,-188 248.039,-152.066 253.135,-109.535 257.027,-85.6706"/>
<polygon fill="midnightblue" stroke="midnightblue" points="260.519,-86.0179 258.79,-75.5652 253.623,-84.8151 260.519,-86.0179"/>
</g>
<!-- Node20 -->
<g id="node20" class="node"><title>Node20</title>
<g id="a_node20"><a xlink:href="a00182_source.html" target="_top" xlink:title="freetds/bytes.h">
<polygon fill="white" stroke="black" points="1157.5,-168.5 1157.5,-187.5 1243.5,-187.5 1243.5,-168.5 1157.5,-168.5"/>
<text text-anchor="middle" x="1200.5" y="-175.5" font-family="Helvetica,sans-Serif" font-size="10.00">freetds/bytes.h</text>
</a>
</g>
</g>
<!-- Node1&#45;&gt;Node20 -->
<g id="edge28" class="edge"><title>Node1&#45;&gt;Node20</title>
<path fill="none" stroke="midnightblue" d="M306.036,-232.467C428.688,-230.461 820.887,-221.661 1143.5,-188 1144.76,-187.868 1146.04,-187.728 1147.32,-187.579"/>
<polygon fill="midnightblue" stroke="midnightblue" points="1147.82,-191.044 1157.3,-186.31 1146.94,-184.1 1147.82,-191.044"/>
</g>
<!-- Node21 -->
<g id="node21" class="node"><title>Node21</title>
<g id="a_node21"><a xlink:href="a00187_source.html" target="_top" xlink:title="freetds/iconv.h">
<polygon fill="white" stroke="black" points="117.5,-56.5 117.5,-75.5 203.5,-75.5 203.5,-56.5 117.5,-56.5"/>
<text text-anchor="middle" x="160.5" y="-63.5" font-family="Helvetica,sans-Serif" font-size="10.00">freetds/iconv.h</text>
</a>
</g>
</g>
<!-- Node1&#45;&gt;Node21 -->
<g id="edge29" class="edge"><title>Node1&#45;&gt;Node21</title>
<path fill="none" stroke="midnightblue" d="M261.747,-224.075C244.686,-197.606 194.153,-119.209 171.593,-84.2097"/>
<polygon fill="midnightblue" stroke="midnightblue" points="174.382,-82.0771 166.023,-75.5681 168.499,-85.8696 174.382,-82.0771"/>
</g>
<!-- Node22 -->
<g id="node22" class="node"><title>Node22</title>
<g id="a_node22"><a xlink:href="a00193_source.html" target="_top" xlink:title="freetds/stream.h">
<polygon fill="white" stroke="black" points="1120,-56.5 1120,-75.5 1213,-75.5 1213,-56.5 1120,-56.5"/>
<text text-anchor="middle" x="1166.5" y="-63.5" font-family="Helvetica,sans-Serif" font-size="10.00">freetds/stream.h</text>
</a>
</g>
</g>
<!-- Node1&#45;&gt;Node22 -->
<g id="edge32" class="edge"><title>Node1&#45;&gt;Node22</title>
<path fill="none" stroke="midnightblue" d="M306.267,-231.207C448.686,-224.162 942.089,-195.586 1084.5,-132 1110.77,-120.269 1135.93,-98.1718 1151.29,-83.0266"/>
<polygon fill="midnightblue" stroke="midnightblue" points="1153.85,-85.41 1158.38,-75.832 1148.87,-80.4952 1153.85,-85.41"/>
</g>
<!-- Node23 -->
<g id="node23" class="node"><title>Node23</title>
<g id="a_node23"><a xlink:href="a00194_source.html" target="_top" xlink:title="freetds/string.h">
<polygon fill="white" stroke="black" points="318,-56.5 318,-75.5 405,-75.5 405,-56.5 318,-56.5"/>
<text text-anchor="middle" x="361.5" y="-63.5" font-family="Helvetica,sans-Serif" font-size="10.00">freetds/string.h</text>
</a>
</g>
</g>
<!-- Node1&#45;&gt;Node23 -->
<g id="edge35" class="edge"><title>Node1&#45;&gt;Node23</title>
<path fill="none" stroke="midnightblue" d="M266.504,-224.191C264.563,-202.906 262.374,-147.795 286.5,-112 296.177,-97.6425 312.113,-87.1475 326.812,-79.9225"/>
<polygon fill="midnightblue" stroke="midnightblue" points="328.565,-82.9699 336.214,-75.6391 325.663,-76.5997 328.565,-82.9699"/>
</g>
<!-- Node5 -->
<g id="node5" class="node"><title>Node5</title>
<polygon fill="white" stroke="#bfbfbf" points="857,-56.5 857,-75.5 912,-75.5 912,-56.5 857,-56.5"/>
<text text-anchor="middle" x="884.5" y="-63.5" font-family="Helvetica,sans-Serif" font-size="10.00">stdarg.h</text>
</g>
<!-- Node4&#45;&gt;Node5 -->
<g id="edge4" class="edge"><title>Node4&#45;&gt;Node5</title>
<path fill="none" stroke="midnightblue" d="M749.292,-174.824C805.79,-170.693 908.056,-159.525 930.5,-132 944.014,-115.426 924.401,-95.1494 906.761,-81.6958"/>
<polygon fill="midnightblue" stroke="midnightblue" points="908.574,-78.6883 898.413,-75.6856 904.484,-84.3691 908.574,-78.6883"/>
</g>
<!-- Node6 -->
<g id="node6" class="node"><title>Node6</title>
<polygon fill="white" stroke="#bfbfbf" points="978,-112.5 978,-131.5 1025,-131.5 1025,-112.5 978,-112.5"/>
<text text-anchor="middle" x="1001.5" y="-119.5" font-family="Helvetica,sans-Serif" font-size="10.00">stdio.h</text>
</g>
<!-- Node4&#45;&gt;Node6 -->
<g id="edge5" class="edge"><title>Node4&#45;&gt;Node6</title>
<path fill="none" stroke="midnightblue" d="M749.197,-170.943C798.577,-162.856 887.784,-147.714 963.5,-132 964.952,-131.699 966.434,-131.383 967.929,-131.058"/>
<polygon fill="midnightblue" stroke="midnightblue" points="968.846,-134.439 977.829,-128.822 967.303,-127.611 968.846,-134.439"/>
</g>
<!-- Node7 -->
<g id="node7" class="node"><title>Node7</title>
<g id="a_node7"><a xlink:href="a00198_source.html" target="_top" xlink:title="time.h">
<polygon fill="white" stroke="black" points="402.5,-112.5 402.5,-131.5 446.5,-131.5 446.5,-112.5 402.5,-112.5"/>
<text text-anchor="middle" x="424.5" y="-119.5" font-family="Helvetica,sans-Serif" font-size="10.00">time.h</text>
</a>
</g>
</g>
<!-- Node4&#45;&gt;Node7 -->
<g id="edge6" class="edge"><title>Node4&#45;&gt;Node7</title>
<path fill="none" stroke="midnightblue" d="M673.98,-169.94C617.144,-159.247 510.192,-139.123 456.69,-129.057"/>
<polygon fill="midnightblue" stroke="midnightblue" points="457.208,-125.593 446.733,-127.183 455.914,-132.472 457.208,-125.593"/>
</g>
<!-- Node8 -->
<g id="node8" class="node"><title>Node8</title>
<g id="a_node8"><a xlink:href="a00200_source.html" target="_top" xlink:title="freetds/version.h">
<polygon fill="white" stroke="black" points="483,-112.5 483,-131.5 578,-131.5 578,-112.5 483,-112.5"/>
<text text-anchor="middle" x="530.5" y="-119.5" font-family="Helvetica,sans-Serif" font-size="10.00">freetds/version.h</text>
</a>
</g>
</g>
<!-- Node4&#45;&gt;Node8 -->
<g id="edge8" class="edge"><title>Node4&#45;&gt;Node8</title>
<path fill="none" stroke="midnightblue" d="M682.82,-168.444C651.973,-159.241 602.772,-144.562 568.671,-134.388"/>
<polygon fill="midnightblue" stroke="midnightblue" points="569.629,-131.021 559.046,-131.516 567.628,-137.729 569.629,-131.021"/>
</g>
<!-- Node9 -->
<g id="node9" class="node"><title>Node9</title>
<polygon fill="white" stroke="#bfbfbf" points="596,-112.5 596,-131.5 707,-131.5 707,-112.5 596,-112.5"/>
<text text-anchor="middle" x="651.5" y="-119.5" font-family="Helvetica,sans-Serif" font-size="10.00">tds_sysdep_public.h</text>
</g>
<!-- Node4&#45;&gt;Node9 -->
<g id="edge9" class="edge"><title>Node4&#45;&gt;Node9</title>
<path fill="none" stroke="midnightblue" d="M701.86,-168.324C692.99,-160.341 679.625,-148.313 668.892,-138.653"/>
<polygon fill="midnightblue" stroke="midnightblue" points="671.09,-135.922 661.315,-131.834 666.407,-141.125 671.09,-135.922"/>
</g>
<!-- Node10 -->
<g id="node10" class="node"><title>Node10</title>
<g id="a_node10"><a xlink:href="a00195_source.html" target="_top" xlink:title="freetds/sysdep_private.h">
<polygon fill="white" stroke="black" points="930,-56.5 930,-75.5 1063,-75.5 1063,-56.5 930,-56.5"/>
<text text-anchor="middle" x="996.5" y="-63.5" font-family="Helvetica,sans-Serif" font-size="10.00">freetds/sysdep_private.h</text>
</a>
</g>
</g>
<!-- Node4&#45;&gt;Node10 -->
<g id="edge10" class="edge"><title>Node4&#45;&gt;Node10</title>
<path fill="none" stroke="midnightblue" d="M749.227,-177.634C826.35,-178.038 997.887,-174.067 1034.5,-132 1047.8,-116.718 1031.07,-96.1162 1015.79,-82.2368"/>
<polygon fill="midnightblue" stroke="midnightblue" points="1017.98,-79.4995 1008.11,-75.6553 1013.43,-84.8172 1017.98,-79.4995"/>
</g>
<!-- Node11 -->
<g id="node11" class="node"><title>Node11</title>
<g id="a_node11"><a xlink:href="a00197_source.html" target="_top" xlink:title="freetds/thread.h">
<polygon fill="white" stroke="black" points="725.5,-112.5 725.5,-131.5 817.5,-131.5 817.5,-112.5 725.5,-112.5"/>
<text text-anchor="middle" x="771.5" y="-119.5" font-family="Helvetica,sans-Serif" font-size="10.00">freetds/thread.h</text>
</a>
</g>
</g>
<!-- Node4&#45;&gt;Node11 -->
<g id="edge11" class="edge"><title>Node4&#45;&gt;Node11</title>
<path fill="none" stroke="midnightblue" d="M721.14,-168.324C730.01,-160.341 743.375,-148.313 754.108,-138.653"/>
<polygon fill="midnightblue" stroke="midnightblue" points="756.593,-141.125 761.685,-131.834 751.91,-135.922 756.593,-141.125"/>
</g>
<!-- Node4&#45;&gt;Node12 -->
<g id="edge12" class="edge"><title>Node4&#45;&gt;Node12</title>
<path fill="none" stroke="midnightblue" d="M673.757,-172.003C615.956,-164.274 501.783,-148.713 394.996,-132.201"/>
<polygon fill="midnightblue" stroke="midnightblue" points="395.437,-128.727 385.018,-130.651 394.363,-135.644 395.437,-128.727"/>
</g>
<!-- Node15 -->
<g id="node15" class="node"><title>Node15</title>
<g id="a_node15"><a xlink:href="a00191_source.html" target="_top" xlink:title="freetds/pushvis.h">
<polygon fill="white" stroke="black" points="668.5,-0.5 668.5,-19.5 764.5,-19.5 764.5,-0.5 668.5,-0.5"/>
<text text-anchor="middle" x="716.5" y="-7.5" font-family="Helvetica,sans-Serif" font-size="10.00">freetds/pushvis.h</text>
</a>
</g>
</g>
<!-- Node4&#45;&gt;Node15 -->
<g id="edge22" class="edge"><title>Node4&#45;&gt;Node15</title>
<path fill="none" stroke="midnightblue" d="M749.201,-176.803C858.961,-175.015 1164.84,-160.747 1072.5,-56 1053.17,-34.0757 870.878,-20.1132 774.929,-14.2211"/>
<polygon fill="midnightblue" stroke="midnightblue" points="774.99,-10.7184 764.797,-13.6091 774.568,-17.7057 774.99,-10.7184"/>
</g>
<!-- Node16 -->
<g id="node16" class="node"><title>Node16</title>
<g id="a_node16"><a xlink:href="a00189_source.html" target="_top" xlink:title="freetds/popvis.h">
<polygon fill="white" stroke="black" points="214.5,-0.5 214.5,-19.5 306.5,-19.5 306.5,-0.5 214.5,-0.5"/>
<text text-anchor="middle" x="260.5" y="-7.5" font-family="Helvetica,sans-Serif" font-size="10.00">freetds/popvis.h</text>
</a>
</g>
</g>
<!-- Node4&#45;&gt;Node16 -->
<g id="edge24" class="edge"><title>Node4&#45;&gt;Node16</title>
<path fill="none" stroke="midnightblue" d="M673.79,-177.217C551.04,-177.008 166.82,-168.837 97.5,-76 67.0648,-35.2391 145.676,-19.9979 204.031,-14.3268"/>
<polygon fill="midnightblue" stroke="midnightblue" points="204.649,-17.7855 214.296,-13.4053 204.023,-10.8136 204.649,-17.7855"/>
</g>
<!-- Node18 -->
<g id="node18" class="node"><title>Node18</title>
<g id="a_node18"><a xlink:href="a00190_source.html" target="_top" xlink:title="freetds/proto.h">
<polygon fill="white" stroke="black" points="835.5,-112.5 835.5,-131.5 921.5,-131.5 921.5,-112.5 835.5,-112.5"/>
<text text-anchor="middle" x="878.5" y="-119.5" font-family="Helvetica,sans-Serif" font-size="10.00">freetds/proto.h</text>
</a>
</g>
</g>
<!-- Node4&#45;&gt;Node18 -->
<g id="edge23" class="edge"><title>Node4&#45;&gt;Node18</title>
<path fill="none" stroke="midnightblue" d="M737.962,-168.444C766.178,-159.32 811.04,-144.813 842.468,-134.651"/>
<polygon fill="midnightblue" stroke="midnightblue" points="843.724,-137.923 852.162,-131.516 841.57,-131.263 843.724,-137.923"/>
</g>
<!-- Node7&#45;&gt;Node7 -->
<g id="edge7" class="edge"><title>Node7&#45;&gt;Node7</title>
<path fill="none" stroke="midnightblue" d="M441.768,-131.575C453.287,-134.27 464.5,-131.078 464.5,-122 464.5,-115.759 459.2,-112.3 452.145,-111.623"/>
<polygon fill="midnightblue" stroke="midnightblue" points="451.469,-108.165 441.768,-112.425 452.008,-115.144 451.469,-108.165"/>
</g>
<!-- Node12&#45;&gt;Node5 -->
<g id="edge13" class="edge"><title>Node12&#45;&gt;Node5</title>
<path fill="none" stroke="midnightblue" d="M385.278,-113.111C388.057,-112.71 390.814,-112.335 393.5,-112 592.156,-87.218 644.421,-105.036 842.5,-76 843.787,-75.8114 845.093,-75.6067 846.41,-75.3891"/>
<polygon fill="midnightblue" stroke="midnightblue" points="847.378,-78.7698 856.579,-73.5167 846.11,-71.8855 847.378,-78.7698"/>
</g>
<!-- Node12&#45;&gt;Node10 -->
<g id="edge15" class="edge"><title>Node12&#45;&gt;Node10</title>
<path fill="none" stroke="midnightblue" d="M385.274,-113.073C388.053,-112.681 390.812,-112.319 393.5,-112 623.765,-84.6689 685.58,-97.6385 919.668,-76.1251"/>
<polygon fill="midnightblue" stroke="midnightblue" points="920.23,-79.588 929.863,-75.1765 919.581,-72.6181 920.23,-79.588"/>
</g>
<!-- Node13 -->
<g id="node13" class="node"><title>Node13</title>
<g id="a_node13"><a xlink:href="a00213_source.html" target="_top" xlink:title="tds_sysdep_public.h">
<polygon fill="white" stroke="black" points="503,-56.5 503,-75.5 614,-75.5 614,-56.5 503,-56.5"/>
<text text-anchor="middle" x="558.5" y="-63.5" font-family="Helvetica,sans-Serif" font-size="10.00">tds_sysdep_public.h</text>
</a>
</g>
</g>
<!-- Node12&#45;&gt;Node13 -->
<g id="edge14" class="edge"><title>Node12&#45;&gt;Node13</title>
<path fill="none" stroke="midnightblue" d="M375.043,-112.444C412.753,-103.102 473.24,-88.1194 514.365,-77.9326"/>
<polygon fill="midnightblue" stroke="midnightblue" points="515.254,-81.3182 524.119,-75.5164 513.571,-74.5236 515.254,-81.3182"/>
</g>
<!-- Node14 -->
<g id="node14" class="node"><title>Node14</title>
<g id="a_node14"><a xlink:href="a00206_source.html" target="_top" xlink:title="replacements/readpassphrase.h">
<polygon fill="white" stroke="black" points="632,-56.5 632,-75.5 801,-75.5 801,-56.5 632,-56.5"/>
<text text-anchor="middle" x="716.5" y="-63.5" font-family="Helvetica,sans-Serif" font-size="10.00">replacements/readpassphrase.h</text>
</a>
</g>
</g>
<!-- Node12&#45;&gt;Node14 -->
<g id="edge16" class="edge"><title>Node12&#45;&gt;Node14</title>
<path fill="none" stroke="midnightblue" d="M385.017,-113.342C387.887,-112.879 390.733,-112.428 393.5,-112 478.082,-98.9296 575.395,-85.6048 640.914,-76.8833"/>
<polygon fill="midnightblue" stroke="midnightblue" points="641.697,-80.31 651.149,-75.5238 640.776,-73.371 641.697,-80.31"/>
</g>
<!-- Node12&#45;&gt;Node15 -->
<g id="edge20" class="edge"><title>Node12&#45;&gt;Node15</title>
<path fill="none" stroke="midnightblue" d="M385.281,-113.131C388.059,-112.725 390.815,-112.344 393.5,-112 439.52,-106.111 778.14,-110.191 809.5,-76 830.223,-53.4062 791.375,-34.2598 757.729,-22.72"/>
<polygon fill="midnightblue" stroke="midnightblue" points="758.573,-19.3133 747.98,-19.5289 756.395,-25.9661 758.573,-19.3133"/>
</g>
<!-- Node12&#45;&gt;Node16 -->
<g id="edge21" class="edge"><title>Node12&#45;&gt;Node16</title>
<path fill="none" stroke="midnightblue" d="M295.736,-115.399C231.703,-106.933 120.328,-90.3429 108.5,-76 78.503,-39.6256 149.595,-23.1684 204.39,-16.045"/>
<polygon fill="midnightblue" stroke="midnightblue" points="204.902,-19.5085 214.404,-14.8208 204.053,-12.5602 204.902,-19.5085"/>
</g>
<!-- Node17 -->
<g id="node17" class="node"><title>Node17</title>
<g id="a_node17"><a xlink:href="a00181.html" target="_top" xlink:title="Provide poll call where missing. ">
<polygon fill="white" stroke="red" points="423.5,-56.5 423.5,-75.5 485.5,-75.5 485.5,-56.5 423.5,-56.5"/>
<text text-anchor="middle" x="454.5" y="-63.5" font-family="Helvetica,sans-Serif" font-size="10.00">fakepoll.h</text>
</a>
</g>
</g>
<!-- Node12&#45;&gt;Node17 -->
<g id="edge19" class="edge"><title>Node12&#45;&gt;Node17</title>
<path fill="none" stroke="midnightblue" d="M358.564,-112.444C377.075,-103.675 406.081,-89.9355 427.355,-79.8579"/>
<polygon fill="midnightblue" stroke="midnightblue" points="428.982,-82.9604 436.521,-75.5164 425.985,-76.6343 428.982,-82.9604"/>
</g>
<!-- Node14&#45;&gt;Node15 -->
<g id="edge17" class="edge"><title>Node14&#45;&gt;Node15</title>
<path fill="none" stroke="midnightblue" d="M716.5,-56.083C716.5,-49.0059 716.5,-38.8611 716.5,-29.9865"/>
<polygon fill="midnightblue" stroke="midnightblue" points="720,-29.751 716.5,-19.7511 713,-29.7511 720,-29.751"/>
</g>
<!-- Node14&#45;&gt;Node16 -->
<g id="edge18" class="edge"><title>Node14&#45;&gt;Node16</title>
<path fill="none" stroke="midnightblue" d="M644.497,-56.4733C553.669,-45.7173 399.387,-27.4471 316.736,-17.6595"/>
<polygon fill="midnightblue" stroke="midnightblue" points="317.12,-14.1806 306.777,-16.4802 316.296,-21.132 317.12,-14.1806"/>
</g>
<!-- Node19&#45;&gt;Node15 -->
<g id="edge26" class="edge"><title>Node19&#45;&gt;Node15</title>
<path fill="none" stroke="midnightblue" d="M299.752,-57.3905C302.708,-56.894 305.649,-56.4239 308.5,-56 432.456,-37.5701 578.639,-23.226 658.02,-16.051"/>
<polygon fill="midnightblue" stroke="midnightblue" points="658.653,-19.5083 668.3,-15.1282 658.027,-12.5363 658.653,-19.5083"/>
</g>
<!-- Node19&#45;&gt;Node16 -->
<g id="edge27" class="edge"><title>Node19&#45;&gt;Node16</title>
<path fill="none" stroke="midnightblue" d="M260.5,-56.083C260.5,-49.0059 260.5,-38.8611 260.5,-29.9865"/>
<polygon fill="midnightblue" stroke="midnightblue" points="264,-29.751 260.5,-19.7511 257,-29.7511 264,-29.751"/>
</g>
<!-- Node21&#45;&gt;Node15 -->
<g id="edge30" class="edge"><title>Node21&#45;&gt;Node15</title>
<path fill="none" stroke="midnightblue" d="M203.589,-57.2611C206.6,-56.8068 209.593,-56.3807 212.5,-56 373.278,-34.9453 564.221,-20.8582 658.247,-14.6369"/>
<polygon fill="midnightblue" stroke="midnightblue" points="658.657,-18.1176 668.406,-13.9704 658.199,-11.1326 658.657,-18.1176"/>
</g>
<!-- Node21&#45;&gt;Node16 -->
<g id="edge31" class="edge"><title>Node21&#45;&gt;Node16</title>
<path fill="none" stroke="midnightblue" d="M176.567,-56.324C192.458,-47.7428 217.007,-34.486 235.458,-24.5224"/>
<polygon fill="midnightblue" stroke="midnightblue" points="237.337,-27.4857 244.473,-19.6545 234.011,-21.3264 237.337,-27.4857"/>
</g>
<!-- Node22&#45;&gt;Node15 -->
<g id="edge33" class="edge"><title>Node22&#45;&gt;Node15</title>
<path fill="none" stroke="midnightblue" d="M1119.89,-57.9704C1115.04,-57.2836 1110.17,-56.6145 1105.5,-56 988.496,-40.6048 851.313,-25.3977 775.111,-17.2019"/>
<polygon fill="midnightblue" stroke="midnightblue" points="775.088,-13.6794 764.772,-16.0927 774.342,-20.6395 775.088,-13.6794"/>
</g>
<!-- Node22&#45;&gt;Node16 -->
<g id="edge34" class="edge"><title>Node22&#45;&gt;Node16</title>
<path fill="none" stroke="midnightblue" d="M1119.67,-60.1439C1104.62,-58.6828 1087.87,-57.161 1072.5,-56 789.097,-34.5886 449.324,-19.0261 317.06,-13.353"/>
<polygon fill="midnightblue" stroke="midnightblue" points="316.917,-9.84375 306.776,-12.9139 316.618,-16.8374 316.917,-9.84375"/>
</g>
<!-- Node23&#45;&gt;Node15 -->
<g id="edge36" class="edge"><title>Node23&#45;&gt;Node15</title>
<path fill="none" stroke="midnightblue" d="M405.161,-57.5137C408.32,-56.9942 411.458,-56.4848 414.5,-56 499.121,-42.5121 597.288,-28.1156 658.154,-19.3358"/>
<polygon fill="midnightblue" stroke="midnightblue" points="658.935,-22.7596 668.334,-17.8696 657.937,-15.8311 658.935,-22.7596"/>
</g>
<!-- Node23&#45;&gt;Node16 -->
<g id="edge37" class="edge"><title>Node23&#45;&gt;Node16</title>
<path fill="none" stroke="midnightblue" d="M345.273,-56.324C329.149,-47.7034 304.2,-34.3643 285.536,-24.3855"/>
<polygon fill="midnightblue" stroke="midnightblue" points="287.156,-21.283 276.687,-19.6545 283.856,-27.456 287.156,-21.283"/>
</g>
</g>
</svg>
