<?xml version="1.0" encoding="UTF-8" standalone="no"?>
<!DOCTYPE svg PUBLIC "-//W3C//DTD SVG 1.1//EN"
 "http://www.w3.org/Graphics/SVG/1.1/DTD/svg11.dtd">
<!-- Generated by graphviz version 2.38.0 (20140413.2041)
 -->
<!-- Title: src/tds/read.c Pages: 1 -->
<svg width="1303pt" height="252pt"
 viewBox="0.00 0.00 1302.50 252.00" xmlns="http://www.w3.org/2000/svg" xmlns:xlink="http://www.w3.org/1999/xlink">
<g id="graph0" class="graph" transform="scale(1 1) rotate(0) translate(4 248)">
<title>src/tds/read.c</title>
<polygon fill="white" stroke="none" points="-4,4 -4,-248 1298.5,-248 1298.5,4 -4,4"/>
<!-- Node1 -->
<g id="node1" class="node"><title>Node1</title>
<polygon fill="#bfbfbf" stroke="black" points="208.5,-224.5 208.5,-243.5 288.5,-243.5 288.5,-224.5 208.5,-224.5"/>
<text text-anchor="middle" x="248.5" y="-231.5" font-family="Helvetica,sans-Serif" font-size="10.00">src/tds/read.c</text>
</g>
<!-- Node2 -->
<g id="node2" class="node"><title>Node2</title>
<polygon fill="white" stroke="#bfbfbf" points="0,-168.5 0,-187.5 53,-187.5 53,-168.5 0,-168.5"/>
<text text-anchor="middle" x="26.5" y="-175.5" font-family="Helvetica,sans-Serif" font-size="10.00">config.h</text>
</g>
<!-- Node1&#45;&gt;Node2 -->
<g id="edge1" class="edge"><title>Node1&#45;&gt;Node2</title>
<path fill="none" stroke="midnightblue" d="M212.823,-224.454C177.341,-215.935 121.091,-202.38 62.9544,-188.098"/>
<polygon fill="midnightblue" stroke="midnightblue" points="63.7772,-184.696 53.2307,-185.707 62.1056,-191.494 63.7772,-184.696"/>
</g>
<!-- Node3 -->
<g id="node3" class="node"><title>Node3</title>
<polygon fill="white" stroke="#bfbfbf" points="71.5,-168.5 71.5,-187.5 125.5,-187.5 125.5,-168.5 71.5,-168.5"/>
<text text-anchor="middle" x="98.5" y="-175.5" font-family="Helvetica,sans-Serif" font-size="10.00">assert.h</text>
</g>
<!-- Node1&#45;&gt;Node3 -->
<g id="edge2" class="edge"><title>Node1&#45;&gt;Node3</title>
<path fill="none" stroke="midnightblue" d="M224.732,-224.444C199.607,-215.399 159.789,-201.064 131.6,-190.916"/>
<polygon fill="midnightblue" stroke="midnightblue" points="132.751,-187.611 122.157,-187.516 130.38,-194.197 132.751,-187.611"/>
</g>
<!-- Node4 -->
<g id="node4" class="node"><title>Node4</title>
<g id="a_node4"><a xlink:href="a00196.html" target="_top" xlink:title="Main include file for libtds. ">
<polygon fill="white" stroke="black" points="551,-168.5 551,-187.5 626,-187.5 626,-168.5 551,-168.5"/>
<text text-anchor="middle" x="588.5" y="-175.5" font-family="Helvetica,sans-Serif" font-size="10.00">freetds/tds.h</text>
</a>
</g>
</g>
<!-- Node1&#45;&gt;Node4 -->
<g id="edge3" class="edge"><title>Node1&#45;&gt;Node4</title>
<path fill="none" stroke="midnightblue" d="M288.502,-226.647C351.533,-216.636 473.703,-197.232 541.063,-186.534"/>
<polygon fill="midnightblue" stroke="midnightblue" points="541.661,-189.983 550.988,-184.958 540.563,-183.07 541.661,-189.983"/>
</g>
<!-- Node19 -->
<g id="node19" class="node"><title>Node19</title>
<g id="a_node19"><a xlink:href="a00187_source.html" target="_top" xlink:title="freetds/iconv.h">
<polygon fill="white" stroke="black" points="219.5,-56.5 219.5,-75.5 305.5,-75.5 305.5,-56.5 219.5,-56.5"/>
<text text-anchor="middle" x="262.5" y="-63.5" font-family="Helvetica,sans-Serif" font-size="10.00">freetds/iconv.h</text>
</a>
</g>
</g>
<!-- Node1&#45;&gt;Node19 -->
<g id="edge25" class="edge"><title>Node1&#45;&gt;Node19</title>
<path fill="none" stroke="midnightblue" d="M248.396,-224.455C248.256,-204.622 248.468,-153.959 253.5,-112 254.557,-103.19 256.397,-93.5279 258.14,-85.4232"/>
<polygon fill="midnightblue" stroke="midnightblue" points="261.578,-86.0886 260.372,-75.5626 254.75,-84.5428 261.578,-86.0886"/>
</g>
<!-- Node20 -->
<g id="node20" class="node"><title>Node20</title>
<g id="a_node20"><a xlink:href="a00182_source.html" target="_top" xlink:title="freetds/bytes.h">
<polygon fill="white" stroke="black" points="1208.5,-168.5 1208.5,-187.5 1294.5,-187.5 1294.5,-168.5 1208.5,-168.5"/>
<text text-anchor="middle" x="1251.5" y="-175.5" font-family="Helvetica,sans-Serif" font-size="10.00">freetds/bytes.h</text>
</a>
</g>
</g>
<!-- Node1&#45;&gt;Node20 -->
<g id="edge28" class="edge"><title>Node1&#45;&gt;Node20</title>
<path fill="none" stroke="midnightblue" d="M288.727,-232.654C419.584,-231.192 844.877,-223.809 1194.5,-188 1195.76,-187.871 1197.04,-187.732 1198.32,-187.586"/>
<polygon fill="midnightblue" stroke="midnightblue" points="1198.82,-191.051 1208.3,-186.327 1197.95,-184.106 1198.82,-191.051"/>
</g>
<!-- Node21 -->
<g id="node21" class="node"><title>Node21</title>
<g id="a_node21"><a xlink:href="a00193_source.html" target="_top" xlink:title="freetds/stream.h">
<polygon fill="white" stroke="black" points="324,-56.5 324,-75.5 417,-75.5 417,-56.5 324,-56.5"/>
<text text-anchor="middle" x="370.5" y="-63.5" font-family="Helvetica,sans-Serif" font-size="10.00">freetds/stream.h</text>
</a>
</g>
</g>
<!-- Node1&#45;&gt;Node21 -->
<g id="edge29" class="edge"><title>Node1&#45;&gt;Node21</title>
<path fill="none" stroke="midnightblue" d="M252.014,-224.424C260.786,-203.654 285.211,-149.601 316.5,-112 326.108,-100.453 338.962,-89.6064 349.718,-81.4562"/>
<polygon fill="midnightblue" stroke="midnightblue" points="351.797,-84.2717 357.792,-75.5362 347.658,-78.6264 351.797,-84.2717"/>
</g>
<!-- Node22 -->
<g id="node22" class="node"><title>Node22</title>
<g id="a_node22"><a xlink:href="a00194_source.html" target="_top" xlink:title="freetds/string.h">
<polygon fill="white" stroke="black" points="1171,-56.5 1171,-75.5 1258,-75.5 1258,-56.5 1171,-56.5"/>
<text text-anchor="middle" x="1214.5" y="-63.5" font-family="Helvetica,sans-Serif" font-size="10.00">freetds/string.h</text>
</a>
</g>
</g>
<!-- Node1&#45;&gt;Node22 -->
<g id="edge32" class="edge"><title>Node1&#45;&gt;Node22</title>
<path fill="none" stroke="midnightblue" d="M288.914,-233.214C411.955,-232.804 791.67,-223.657 1088.5,-132 1127.33,-120.011 1168.47,-96.4543 1192.8,-81.2346"/>
<polygon fill="midnightblue" stroke="midnightblue" points="1195,-83.9839 1201.56,-75.661 1191.24,-78.0789 1195,-83.9839"/>
</g>
<!-- Node23 -->
<g id="node23" class="node"><title>Node23</title>
<g id="a_node23"><a xlink:href="a00323_source.html" target="_top" xlink:title="tds_checks.h">
<polygon fill="white" stroke="black" points="85.5,-56.5 85.5,-75.5 163.5,-75.5 163.5,-56.5 85.5,-56.5"/>
<text text-anchor="middle" x="124.5" y="-63.5" font-family="Helvetica,sans-Serif" font-size="10.00">tds_checks.h</text>
</a>
</g>
</g>
<!-- Node1&#45;&gt;Node23 -->
<g id="edge35" class="edge"><title>Node1&#45;&gt;Node23</title>
<path fill="none" stroke="midnightblue" d="M241.833,-224.075C221.977,-197.493 162.998,-118.538 137.022,-83.7633"/>
<polygon fill="midnightblue" stroke="midnightblue" points="139.689,-81.4851 130.9,-75.5681 134.081,-85.6743 139.689,-81.4851"/>
</g>
<!-- Node5 -->
<g id="node5" class="node"><title>Node5</title>
<polygon fill="white" stroke="#bfbfbf" points="435,-56.5 435,-75.5 490,-75.5 490,-56.5 435,-56.5"/>
<text text-anchor="middle" x="462.5" y="-63.5" font-family="Helvetica,sans-Serif" font-size="10.00">stdarg.h</text>
</g>
<!-- Node4&#45;&gt;Node5 -->
<g id="edge4" class="edge"><title>Node4&#45;&gt;Node5</title>
<path fill="none" stroke="midnightblue" d="M550.846,-176.308C484.958,-174.215 353.026,-165.799 324.5,-132 318.767,-125.207 319.279,-119.194 324.5,-112 330.614,-103.575 386.327,-87.2788 425.064,-76.782"/>
<polygon fill="midnightblue" stroke="midnightblue" points="426.244,-80.0893 434.995,-74.1167 424.429,-73.3286 426.244,-80.0893"/>
</g>
<!-- Node6 -->
<g id="node6" class="node"><title>Node6</title>
<polygon fill="white" stroke="#bfbfbf" points="334,-112.5 334,-131.5 381,-131.5 381,-112.5 334,-112.5"/>
<text text-anchor="middle" x="357.5" y="-119.5" font-family="Helvetica,sans-Serif" font-size="10.00">stdio.h</text>
</g>
<!-- Node4&#45;&gt;Node6 -->
<g id="edge5" class="edge"><title>Node4&#45;&gt;Node6</title>
<path fill="none" stroke="midnightblue" d="M550.797,-168.934C512.903,-160.715 452.592,-147.334 391.132,-132.075"/>
<polygon fill="midnightblue" stroke="midnightblue" points="391.811,-128.637 381.261,-129.611 390.116,-135.429 391.811,-128.637"/>
</g>
<!-- Node7 -->
<g id="node7" class="node"><title>Node7</title>
<g id="a_node7"><a xlink:href="a00198_source.html" target="_top" xlink:title="time.h">
<polygon fill="white" stroke="black" points="399.5,-112.5 399.5,-131.5 443.5,-131.5 443.5,-112.5 399.5,-112.5"/>
<text text-anchor="middle" x="421.5" y="-119.5" font-family="Helvetica,sans-Serif" font-size="10.00">time.h</text>
</a>
</g>
</g>
<!-- Node4&#45;&gt;Node7 -->
<g id="edge6" class="edge"><title>Node4&#45;&gt;Node7</title>
<path fill="none" stroke="midnightblue" d="M562.038,-168.444C532.494,-158.89 484.7,-143.436 453.187,-133.246"/>
<polygon fill="midnightblue" stroke="midnightblue" points="454.163,-129.883 443.571,-130.137 452.009,-136.544 454.163,-129.883"/>
</g>
<!-- Node8 -->
<g id="node8" class="node"><title>Node8</title>
<g id="a_node8"><a xlink:href="a00200_source.html" target="_top" xlink:title="freetds/version.h">
<polygon fill="white" stroke="black" points="480,-112.5 480,-131.5 575,-131.5 575,-112.5 480,-112.5"/>
<text text-anchor="middle" x="527.5" y="-119.5" font-family="Helvetica,sans-Serif" font-size="10.00">freetds/version.h</text>
</a>
</g>
</g>
<!-- Node4&#45;&gt;Node8 -->
<g id="edge8" class="edge"><title>Node4&#45;&gt;Node8</title>
<path fill="none" stroke="midnightblue" d="M578.699,-168.324C569.682,-160.341 556.094,-148.313 545.182,-138.653"/>
<polygon fill="midnightblue" stroke="midnightblue" points="547.287,-135.842 537.479,-131.834 542.647,-141.083 547.287,-135.842"/>
</g>
<!-- Node9 -->
<g id="node9" class="node"><title>Node9</title>
<polygon fill="white" stroke="#bfbfbf" points="593,-112.5 593,-131.5 704,-131.5 704,-112.5 593,-112.5"/>
<text text-anchor="middle" x="648.5" y="-119.5" font-family="Helvetica,sans-Serif" font-size="10.00">tds_sysdep_public.h</text>
</g>
<!-- Node4&#45;&gt;Node9 -->
<g id="edge9" class="edge"><title>Node4&#45;&gt;Node9</title>
<path fill="none" stroke="midnightblue" d="M598.14,-168.324C607.01,-160.341 620.375,-148.313 631.108,-138.653"/>
<polygon fill="midnightblue" stroke="midnightblue" points="633.593,-141.125 638.685,-131.834 628.91,-135.922 633.593,-141.125"/>
</g>
<!-- Node10 -->
<g id="node10" class="node"><title>Node10</title>
<g id="a_node10"><a xlink:href="a00195_source.html" target="_top" xlink:title="freetds/sysdep_private.h">
<polygon fill="white" stroke="black" points="981,-56.5 981,-75.5 1114,-75.5 1114,-56.5 981,-56.5"/>
<text text-anchor="middle" x="1047.5" y="-63.5" font-family="Helvetica,sans-Serif" font-size="10.00">freetds/sysdep_private.h</text>
</a>
</g>
</g>
<!-- Node4&#45;&gt;Node10 -->
<g id="edge10" class="edge"><title>Node4&#45;&gt;Node10</title>
<path fill="none" stroke="midnightblue" d="M626.236,-175.758C728.558,-172.041 1005.63,-159.509 1035.5,-132 1048.01,-120.478 1050.06,-100.508 1049.56,-85.7362"/>
<polygon fill="midnightblue" stroke="midnightblue" points="1053.05,-85.3939 1048.82,-75.6787 1046.07,-85.9092 1053.05,-85.3939"/>
</g>
<!-- Node11 -->
<g id="node11" class="node"><title>Node11</title>
<g id="a_node11"><a xlink:href="a00197_source.html" target="_top" xlink:title="freetds/thread.h">
<polygon fill="white" stroke="black" points="722.5,-112.5 722.5,-131.5 814.5,-131.5 814.5,-112.5 722.5,-112.5"/>
<text text-anchor="middle" x="768.5" y="-119.5" font-family="Helvetica,sans-Serif" font-size="10.00">freetds/thread.h</text>
</a>
</g>
</g>
<!-- Node4&#45;&gt;Node11 -->
<g id="edge11" class="edge"><title>Node4&#45;&gt;Node11</title>
<path fill="none" stroke="midnightblue" d="M617.022,-168.444C647.566,-159.28 696.208,-144.688 730.103,-134.519"/>
<polygon fill="midnightblue" stroke="midnightblue" points="731.539,-137.742 740.112,-131.516 729.528,-131.038 731.539,-137.742"/>
</g>
<!-- Node12 -->
<g id="node12" class="node"><title>Node12</title>
<g id="a_node12"><a xlink:href="a00205_source.html" target="_top" xlink:title="replacements.h">
<polygon fill="white" stroke="black" points="937,-112.5 937,-131.5 1026,-131.5 1026,-112.5 937,-112.5"/>
<text text-anchor="middle" x="981.5" y="-119.5" font-family="Helvetica,sans-Serif" font-size="10.00">replacements.h</text>
</a>
</g>
</g>
<!-- Node4&#45;&gt;Node12 -->
<g id="edge12" class="edge"><title>Node4&#45;&gt;Node12</title>
<path fill="none" stroke="midnightblue" d="M626.181,-172.413C687.045,-164.912 811.008,-149.264 926.641,-132.085"/>
<polygon fill="midnightblue" stroke="midnightblue" points="927.355,-135.517 936.729,-130.579 926.322,-128.594 927.355,-135.517"/>
</g>
<!-- Node15 -->
<g id="node15" class="node"><title>Node15</title>
<g id="a_node15"><a xlink:href="a00191_source.html" target="_top" xlink:title="freetds/pushvis.h">
<polygon fill="white" stroke="black" points="582.5,-0.5 582.5,-19.5 678.5,-19.5 678.5,-0.5 582.5,-0.5"/>
<text text-anchor="middle" x="630.5" y="-7.5" font-family="Helvetica,sans-Serif" font-size="10.00">freetds/pushvis.h</text>
</a>
</g>
</g>
<!-- Node4&#45;&gt;Node15 -->
<g id="edge22" class="edge"><title>Node4&#45;&gt;Node15</title>
<path fill="none" stroke="midnightblue" d="M626.021,-176.154C722.496,-173.542 977.038,-163.752 1054.5,-132 1091.04,-117.02 1106.52,-111.657 1123.5,-76 1127.32,-67.9749 1129.49,-62.5649 1123.5,-56 1094.69,-24.4357 813.021,-14.7546 688.823,-12.0064"/>
<polygon fill="midnightblue" stroke="midnightblue" points="688.804,-8.50532 678.731,-11.7908 688.654,-15.5037 688.804,-8.50532"/>
</g>
<!-- Node16 -->
<g id="node16" class="node"><title>Node16</title>
<g id="a_node16"><a xlink:href="a00189_source.html" target="_top" xlink:title="freetds/popvis.h">
<polygon fill="white" stroke="black" points="324.5,-0.5 324.5,-19.5 416.5,-19.5 416.5,-0.5 324.5,-0.5"/>
<text text-anchor="middle" x="370.5" y="-7.5" font-family="Helvetica,sans-Serif" font-size="10.00">freetds/popvis.h</text>
</a>
</g>
</g>
<!-- Node4&#45;&gt;Node16 -->
<g id="edge24" class="edge"><title>Node4&#45;&gt;Node16</title>
<path fill="none" stroke="midnightblue" d="M550.62,-174.589C497.201,-170.333 397.238,-159.204 316.5,-132 266.008,-114.987 238.003,-121.635 210.5,-76 185.003,-33.6941 258.586,-18.9199 314.284,-13.7627"/>
<polygon fill="midnightblue" stroke="midnightblue" points="314.777,-17.2337 324.448,-12.9072 314.19,-10.2583 314.777,-17.2337"/>
</g>
<!-- Node18 -->
<g id="node18" class="node"><title>Node18</title>
<g id="a_node18"><a xlink:href="a00190_source.html" target="_top" xlink:title="freetds/proto.h">
<polygon fill="white" stroke="black" points="832.5,-112.5 832.5,-131.5 918.5,-131.5 918.5,-112.5 832.5,-112.5"/>
<text text-anchor="middle" x="875.5" y="-119.5" font-family="Helvetica,sans-Serif" font-size="10.00">freetds/proto.h</text>
</a>
</g>
</g>
<!-- Node4&#45;&gt;Node18 -->
<g id="edge23" class="edge"><title>Node4&#45;&gt;Node18</title>
<path fill="none" stroke="midnightblue" d="M626.02,-169.94C676.188,-160.501 765.401,-143.715 822.438,-132.984"/>
<polygon fill="midnightblue" stroke="midnightblue" points="823.168,-136.408 832.349,-131.119 821.874,-129.529 823.168,-136.408"/>
</g>
<!-- Node7&#45;&gt;Node7 -->
<g id="edge7" class="edge"><title>Node7&#45;&gt;Node7</title>
<path fill="none" stroke="midnightblue" d="M438.768,-131.575C450.287,-134.27 461.5,-131.078 461.5,-122 461.5,-115.759 456.2,-112.3 449.145,-111.623"/>
<polygon fill="midnightblue" stroke="midnightblue" points="448.469,-108.165 438.768,-112.425 449.008,-115.144 448.469,-108.165"/>
</g>
<!-- Node12&#45;&gt;Node5 -->
<g id="edge13" class="edge"><title>Node12&#45;&gt;Node5</title>
<path fill="none" stroke="midnightblue" d="M936.751,-113.258C933.625,-112.804 930.518,-112.379 927.5,-112 740.293,-88.4717 691.117,-103.822 504.5,-76 503.214,-75.8083 501.908,-75.6009 500.591,-75.3809"/>
<polygon fill="midnightblue" stroke="midnightblue" points="500.895,-71.8776 490.424,-73.4974 499.619,-78.7605 500.895,-71.8776"/>
</g>
<!-- Node12&#45;&gt;Node10 -->
<g id="edge15" class="edge"><title>Node12&#45;&gt;Node10</title>
<path fill="none" stroke="midnightblue" d="M992.104,-112.324C1001.96,-104.263 1016.85,-92.0765 1028.72,-82.3695"/>
<polygon fill="midnightblue" stroke="midnightblue" points="1031.18,-84.8752 1036.7,-75.8339 1026.75,-79.4575 1031.18,-84.8752"/>
</g>
<!-- Node13 -->
<g id="node13" class="node"><title>Node13</title>
<g id="a_node13"><a xlink:href="a00213_source.html" target="_top" xlink:title="tds_sysdep_public.h">
<polygon fill="white" stroke="black" points="813,-56.5 813,-75.5 924,-75.5 924,-56.5 813,-56.5"/>
<text text-anchor="middle" x="868.5" y="-63.5" font-family="Helvetica,sans-Serif" font-size="10.00">tds_sysdep_public.h</text>
</a>
</g>
</g>
<!-- Node12&#45;&gt;Node13 -->
<g id="edge14" class="edge"><title>Node12&#45;&gt;Node13</title>
<path fill="none" stroke="midnightblue" d="M963.595,-112.444C945.246,-103.675 916.495,-89.9355 895.406,-79.8579"/>
<polygon fill="midnightblue" stroke="midnightblue" points="896.853,-76.6703 886.321,-75.5164 893.835,-82.9862 896.853,-76.6703"/>
</g>
<!-- Node14 -->
<g id="node14" class="node"><title>Node14</title>
<g id="a_node14"><a xlink:href="a00206_source.html" target="_top" xlink:title="replacements/readpassphrase.h">
<polygon fill="white" stroke="black" points="546,-56.5 546,-75.5 715,-75.5 715,-56.5 546,-56.5"/>
<text text-anchor="middle" x="630.5" y="-63.5" font-family="Helvetica,sans-Serif" font-size="10.00">replacements/readpassphrase.h</text>
</a>
</g>
</g>
<!-- Node12&#45;&gt;Node14 -->
<g id="edge16" class="edge"><title>Node12&#45;&gt;Node14</title>
<path fill="none" stroke="midnightblue" d="M936.719,-113.484C933.6,-112.977 930.504,-112.478 927.5,-112 848.993,-99.5109 758.678,-85.9402 698.451,-77.0039"/>
<polygon fill="midnightblue" stroke="midnightblue" points="698.714,-73.5047 688.309,-75.5007 697.688,-80.4291 698.714,-73.5047"/>
</g>
<!-- Node12&#45;&gt;Node15 -->
<g id="edge20" class="edge"><title>Node12&#45;&gt;Node15</title>
<path fill="none" stroke="midnightblue" d="M977.713,-112.092C971.07,-97.6626 955.865,-69.4392 933.5,-56 893.392,-31.8991 765.253,-19.6689 689.059,-14.3776"/>
<polygon fill="midnightblue" stroke="midnightblue" points="688.879,-10.8576 678.666,-13.6765 688.408,-17.8417 688.879,-10.8576"/>
</g>
<!-- Node12&#45;&gt;Node16 -->
<g id="edge21" class="edge"><title>Node12&#45;&gt;Node16</title>
<path fill="none" stroke="midnightblue" d="M936.748,-113.282C933.622,-112.823 930.516,-112.39 927.5,-112 754.426,-89.6401 703.818,-125.592 536.5,-76 518.202,-70.5765 515.994,-63.6298 498.5,-56 468.765,-43.0311 433.979,-30.9926 408.182,-22.6367"/>
<polygon fill="midnightblue" stroke="midnightblue" points="409.007,-19.2261 398.416,-19.5102 406.873,-25.8928 409.007,-19.2261"/>
</g>
<!-- Node17 -->
<g id="node17" class="node"><title>Node17</title>
<g id="a_node17"><a xlink:href="a00181.html" target="_top" xlink:title="Provide poll call where missing. ">
<polygon fill="white" stroke="red" points="733.5,-56.5 733.5,-75.5 795.5,-75.5 795.5,-56.5 733.5,-56.5"/>
<text text-anchor="middle" x="764.5" y="-63.5" font-family="Helvetica,sans-Serif" font-size="10.00">fakepoll.h</text>
</a>
</g>
</g>
<!-- Node12&#45;&gt;Node17 -->
<g id="edge19" class="edge"><title>Node12&#45;&gt;Node17</title>
<path fill="none" stroke="midnightblue" d="M947.116,-112.444C908.666,-102.875 846.429,-87.3879 805.483,-77.1986"/>
<polygon fill="midnightblue" stroke="midnightblue" points="806.109,-73.7475 795.559,-74.729 804.418,-80.5404 806.109,-73.7475"/>
</g>
<!-- Node14&#45;&gt;Node15 -->
<g id="edge17" class="edge"><title>Node14&#45;&gt;Node15</title>
<path fill="none" stroke="midnightblue" d="M630.5,-56.083C630.5,-49.0059 630.5,-38.8611 630.5,-29.9865"/>
<polygon fill="midnightblue" stroke="midnightblue" points="634,-29.751 630.5,-19.7511 627,-29.7511 634,-29.751"/>
</g>
<!-- Node14&#45;&gt;Node16 -->
<g id="edge18" class="edge"><title>Node14&#45;&gt;Node16</title>
<path fill="none" stroke="midnightblue" d="M589.302,-56.4435C543.851,-47.0036 470.658,-31.802 421.591,-21.6111"/>
<polygon fill="midnightblue" stroke="midnightblue" points="422.008,-18.1232 411.505,-19.5164 420.584,-24.9769 422.008,-18.1232"/>
</g>
<!-- Node19&#45;&gt;Node15 -->
<g id="edge26" class="edge"><title>Node19&#45;&gt;Node15</title>
<path fill="none" stroke="midnightblue" d="M305.614,-57.4357C308.619,-56.9399 311.604,-56.4567 314.5,-56 404.203,-41.8534 508.552,-27.3782 572.037,-18.7922"/>
<polygon fill="midnightblue" stroke="midnightblue" points="572.808,-22.22 582.251,-17.4141 571.872,-15.2828 572.808,-22.22"/>
</g>
<!-- Node19&#45;&gt;Node16 -->
<g id="edge27" class="edge"><title>Node19&#45;&gt;Node16</title>
<path fill="none" stroke="midnightblue" d="M279.852,-56.324C297.172,-47.6641 324.015,-34.2424 344.002,-24.249"/>
<polygon fill="midnightblue" stroke="midnightblue" points="345.812,-27.2572 353.191,-19.6545 342.681,-20.9962 345.812,-27.2572"/>
</g>
<!-- Node21&#45;&gt;Node15 -->
<g id="edge30" class="edge"><title>Node21&#45;&gt;Node15</title>
<path fill="none" stroke="midnightblue" d="M411.698,-56.4435C457.149,-47.0036 530.342,-31.802 579.409,-21.6111"/>
<polygon fill="midnightblue" stroke="midnightblue" points="580.416,-24.9769 589.495,-19.5164 578.992,-18.1232 580.416,-24.9769"/>
</g>
<!-- Node21&#45;&gt;Node16 -->
<g id="edge31" class="edge"><title>Node21&#45;&gt;Node16</title>
<path fill="none" stroke="midnightblue" d="M370.5,-56.083C370.5,-49.0059 370.5,-38.8611 370.5,-29.9865"/>
<polygon fill="midnightblue" stroke="midnightblue" points="374,-29.751 370.5,-19.7511 367,-29.7511 374,-29.751"/>
</g>
<!-- Node22&#45;&gt;Node15 -->
<g id="edge33" class="edge"><title>Node22&#45;&gt;Node15</title>
<path fill="none" stroke="midnightblue" d="M1170.84,-57.8968C1166.01,-57.2085 1161.15,-56.5595 1156.5,-56 987.268,-35.6552 786.323,-21.1213 689.053,-14.6924"/>
<polygon fill="midnightblue" stroke="midnightblue" points="689.048,-11.1846 678.84,-14.022 688.589,-18.1695 689.048,-11.1846"/>
</g>
<!-- Node22&#45;&gt;Node16 -->
<g id="edge34" class="edge"><title>Node22&#45;&gt;Node16</title>
<path fill="none" stroke="midnightblue" d="M1170.56,-60.306C1155.63,-58.8043 1138.85,-57.2174 1123.5,-56 863.503,-35.382 552.325,-19.6097 426.942,-13.6215"/>
<polygon fill="midnightblue" stroke="midnightblue" points="426.969,-10.1189 416.814,-13.1398 426.636,-17.111 426.969,-10.1189"/>
</g>
<!-- Node23&#45;&gt;Node15 -->
<g id="edge36" class="edge"><title>Node23&#45;&gt;Node15</title>
<path fill="none" stroke="midnightblue" d="M163.784,-60.8076C252.323,-51.3588 467.839,-28.3591 572.098,-17.2326"/>
<polygon fill="midnightblue" stroke="midnightblue" points="572.563,-20.703 582.135,-16.1615 571.82,-13.7425 572.563,-20.703"/>
</g>
<!-- Node23&#45;&gt;Node16 -->
<g id="edge37" class="edge"><title>Node23&#45;&gt;Node16</title>
<path fill="none" stroke="midnightblue" d="M163.479,-56.4435C206.394,-47.0234 275.446,-31.8656 321.869,-21.6752"/>
<polygon fill="midnightblue" stroke="midnightblue" points="322.686,-25.0792 331.703,-19.5164 321.185,-18.242 322.686,-25.0792"/>
</g>
</g>
</svg>
