<?xml version="1.0" encoding="UTF-8" standalone="no"?>
<!DOCTYPE svg PUBLIC "-//W3C//DTD SVG 1.1//EN"
 "http://www.w3.org/Graphics/SVG/1.1/DTD/svg11.dtd">
<!-- Generated by graphviz version 2.38.0 (20140413.2041)
 -->
<!-- Title: src/tds/stream.c Pages: 1 -->
<svg width="1077pt" height="252pt"
 viewBox="0.00 0.00 1077.05 252.00" xmlns="http://www.w3.org/2000/svg" xmlns:xlink="http://www.w3.org/1999/xlink">
<g id="graph0" class="graph" transform="scale(1 1) rotate(0) translate(4 248)">
<title>src/tds/stream.c</title>
<polygon fill="white" stroke="none" points="-4,4 -4,-248 1073.05,-248 1073.05,4 -4,4"/>
<!-- Node1 -->
<g id="node1" class="node"><title>Node1</title>
<polygon fill="#bfbfbf" stroke="black" points="525.053,-224.5 525.053,-243.5 616.053,-243.5 616.053,-224.5 525.053,-224.5"/>
<text text-anchor="middle" x="570.553" y="-231.5" font-family="Helvetica,sans-Serif" font-size="10.00">src/tds/stream.c</text>
</g>
<!-- Node2 -->
<g id="node2" class="node"><title>Node2</title>
<polygon fill="white" stroke="#bfbfbf" points="389.053,-168.5 389.053,-187.5 442.053,-187.5 442.053,-168.5 389.053,-168.5"/>
<text text-anchor="middle" x="415.553" y="-175.5" font-family="Helvetica,sans-Serif" font-size="10.00">config.h</text>
</g>
<!-- Node1&#45;&gt;Node2 -->
<g id="edge1" class="edge"><title>Node1&#45;&gt;Node2</title>
<path fill="none" stroke="midnightblue" d="M545.993,-224.444C520.031,-215.399 478.885,-201.064 449.756,-190.916"/>
<polygon fill="midnightblue" stroke="midnightblue" points="450.593,-187.501 439.998,-187.516 448.29,-194.112 450.593,-187.501"/>
</g>
<!-- Node3 -->
<g id="node3" class="node"><title>Node3</title>
<polygon fill="white" stroke="#bfbfbf" points="460.553,-168.5 460.553,-187.5 514.553,-187.5 514.553,-168.5 460.553,-168.5"/>
<text text-anchor="middle" x="487.553" y="-175.5" font-family="Helvetica,sans-Serif" font-size="10.00">assert.h</text>
</g>
<!-- Node1&#45;&gt;Node3 -->
<g id="edge2" class="edge"><title>Node1&#45;&gt;Node3</title>
<path fill="none" stroke="midnightblue" d="M557.218,-224.324C544.391,-215.979 524.768,-203.212 509.613,-193.352"/>
<polygon fill="midnightblue" stroke="midnightblue" points="511.146,-190.174 500.855,-187.655 507.329,-196.042 511.146,-190.174"/>
</g>
<!-- Node4 -->
<g id="node4" class="node"><title>Node4</title>
<g id="a_node4"><a xlink:href="a00196.html" target="_top" xlink:title="Main include file for libtds. ">
<polygon fill="white" stroke="black" points="533.053,-168.5 533.053,-187.5 608.053,-187.5 608.053,-168.5 533.053,-168.5"/>
<text text-anchor="middle" x="570.553" y="-175.5" font-family="Helvetica,sans-Serif" font-size="10.00">freetds/tds.h</text>
</a>
</g>
</g>
<!-- Node1&#45;&gt;Node4 -->
<g id="edge3" class="edge"><title>Node1&#45;&gt;Node4</title>
<path fill="none" stroke="midnightblue" d="M570.553,-224.083C570.553,-217.006 570.553,-206.861 570.553,-197.986"/>
<polygon fill="midnightblue" stroke="midnightblue" points="574.053,-197.751 570.553,-187.751 567.053,-197.751 574.053,-197.751"/>
</g>
<!-- Node19 -->
<g id="node19" class="node"><title>Node19</title>
<g id="a_node19"><a xlink:href="a00187_source.html" target="_top" xlink:title="freetds/iconv.h">
<polygon fill="white" stroke="black" points="871.553,-56.5 871.553,-75.5 957.553,-75.5 957.553,-56.5 871.553,-56.5"/>
<text text-anchor="middle" x="914.553" y="-63.5" font-family="Helvetica,sans-Serif" font-size="10.00">freetds/iconv.h</text>
</a>
</g>
</g>
<!-- Node1&#45;&gt;Node19 -->
<g id="edge25" class="edge"><title>Node1&#45;&gt;Node19</title>
<path fill="none" stroke="midnightblue" d="M594.755,-224.384C638.872,-208.346 734.893,-171.9 811.553,-132 841.156,-116.592 873.407,-95.4767 893.789,-81.5477"/>
<polygon fill="midnightblue" stroke="midnightblue" points="896.022,-84.2591 902.267,-75.6999 892.048,-78.4971 896.022,-84.2591"/>
</g>
<!-- Node20 -->
<g id="node20" class="node"><title>Node20</title>
<g id="a_node20"><a xlink:href="a00193_source.html" target="_top" xlink:title="freetds/stream.h">
<polygon fill="white" stroke="black" points="976.053,-56.5 976.053,-75.5 1069.05,-75.5 1069.05,-56.5 976.053,-56.5"/>
<text text-anchor="middle" x="1022.55" y="-63.5" font-family="Helvetica,sans-Serif" font-size="10.00">freetds/stream.h</text>
</a>
</g>
</g>
<!-- Node1&#45;&gt;Node20 -->
<g id="edge28" class="edge"><title>Node1&#45;&gt;Node20</title>
<path fill="none" stroke="midnightblue" d="M603.524,-224.499C635.118,-216.103 684.002,-202.452 725.553,-188 825.842,-153.119 941.533,-103.058 994.021,-79.7906"/>
<polygon fill="midnightblue" stroke="midnightblue" points="995.646,-82.8986 1003.36,-75.6372 992.802,-76.5025 995.646,-82.8986"/>
</g>
<!-- Node5 -->
<g id="node5" class="node"><title>Node5</title>
<polygon fill="white" stroke="#bfbfbf" points="760.053,-56.5 760.053,-75.5 815.053,-75.5 815.053,-56.5 760.053,-56.5"/>
<text text-anchor="middle" x="787.553" y="-63.5" font-family="Helvetica,sans-Serif" font-size="10.00">stdarg.h</text>
</g>
<!-- Node4&#45;&gt;Node5 -->
<g id="edge4" class="edge"><title>Node4&#45;&gt;Node5</title>
<path fill="none" stroke="midnightblue" d="M608.328,-172.878C658.854,-166.628 744.738,-153.188 767.553,-132 780.251,-120.208 784.963,-100.573 786.672,-85.9633"/>
<polygon fill="midnightblue" stroke="midnightblue" points="790.195,-85.8149 787.494,-75.57 783.216,-85.2627 790.195,-85.8149"/>
</g>
<!-- Node6 -->
<g id="node6" class="node"><title>Node6</title>
<polygon fill="white" stroke="#bfbfbf" points="29.0531,-112.5 29.0531,-131.5 76.0531,-131.5 76.0531,-112.5 29.0531,-112.5"/>
<text text-anchor="middle" x="52.5531" y="-119.5" font-family="Helvetica,sans-Serif" font-size="10.00">stdio.h</text>
</g>
<!-- Node4&#45;&gt;Node6 -->
<g id="edge5" class="edge"><title>Node4&#45;&gt;Node6</title>
<path fill="none" stroke="midnightblue" d="M532.902,-169.422C529.746,-168.899 526.599,-168.416 523.553,-168 333.236,-142.033 279.691,-165.049 86.1508,-131.753"/>
<polygon fill="midnightblue" stroke="midnightblue" points="86.6812,-128.292 76.2278,-130.018 85.4756,-135.188 86.6812,-128.292"/>
</g>
<!-- Node7 -->
<g id="node7" class="node"><title>Node7</title>
<g id="a_node7"><a xlink:href="a00198_source.html" target="_top" xlink:title="time.h">
<polygon fill="white" stroke="black" points="94.5531,-112.5 94.5531,-131.5 138.553,-131.5 138.553,-112.5 94.5531,-112.5"/>
<text text-anchor="middle" x="116.553" y="-119.5" font-family="Helvetica,sans-Serif" font-size="10.00">time.h</text>
</a>
</g>
</g>
<!-- Node4&#45;&gt;Node7 -->
<g id="edge6" class="edge"><title>Node4&#45;&gt;Node7</title>
<path fill="none" stroke="midnightblue" d="M532.893,-169.483C529.739,-168.946 526.595,-168.443 523.553,-168 365.311,-144.94 323.881,-154.463 165.553,-132 160.23,-131.245 154.604,-130.326 149.135,-129.367"/>
<polygon fill="midnightblue" stroke="midnightblue" points="149.398,-125.857 138.933,-127.507 148.143,-132.744 149.398,-125.857"/>
</g>
<!-- Node8 -->
<g id="node8" class="node"><title>Node8</title>
<g id="a_node8"><a xlink:href="a00200_source.html" target="_top" xlink:title="freetds/version.h">
<polygon fill="white" stroke="black" points="175.053,-112.5 175.053,-131.5 270.053,-131.5 270.053,-112.5 175.053,-112.5"/>
<text text-anchor="middle" x="222.553" y="-119.5" font-family="Helvetica,sans-Serif" font-size="10.00">freetds/version.h</text>
</a>
</g>
</g>
<!-- Node4&#45;&gt;Node8 -->
<g id="edge8" class="edge"><title>Node4&#45;&gt;Node8</title>
<path fill="none" stroke="midnightblue" d="M532.869,-169.635C529.721,-169.065 526.584,-168.513 523.553,-168 418.215,-150.184 389.025,-148.801 280.274,-132.244"/>
<polygon fill="midnightblue" stroke="midnightblue" points="280.62,-128.757 270.205,-130.703 279.56,-135.676 280.62,-128.757"/>
</g>
<!-- Node9 -->
<g id="node9" class="node"><title>Node9</title>
<polygon fill="white" stroke="#bfbfbf" points="288.053,-112.5 288.053,-131.5 399.053,-131.5 399.053,-112.5 288.053,-112.5"/>
<text text-anchor="middle" x="343.553" y="-119.5" font-family="Helvetica,sans-Serif" font-size="10.00">tds_sysdep_public.h</text>
</g>
<!-- Node4&#45;&gt;Node9 -->
<g id="edge9" class="edge"><title>Node4&#45;&gt;Node9</title>
<path fill="none" stroke="midnightblue" d="M534.584,-168.444C495.234,-159.083 432.067,-144.056 389.239,-133.868"/>
<polygon fill="midnightblue" stroke="midnightblue" points="389.892,-130.426 379.354,-131.516 388.272,-137.236 389.892,-130.426"/>
</g>
<!-- Node10 -->
<g id="node10" class="node"><title>Node10</title>
<g id="a_node10"><a xlink:href="a00195_source.html" target="_top" xlink:title="freetds/sysdep_private.h">
<polygon fill="white" stroke="black" points="136.053,-56.5 136.053,-75.5 269.053,-75.5 269.053,-56.5 136.053,-56.5"/>
<text text-anchor="middle" x="202.553" y="-63.5" font-family="Helvetica,sans-Serif" font-size="10.00">freetds/sysdep_private.h</text>
</a>
</g>
</g>
<!-- Node4&#45;&gt;Node10 -->
<g id="edge10" class="edge"><title>Node4&#45;&gt;Node10</title>
<path fill="none" stroke="midnightblue" d="M586.178,-168.331C607.168,-155.623 639.94,-131.349 622.553,-112 616.875,-105.681 399.256,-84.9233 279.569,-73.9468"/>
<polygon fill="midnightblue" stroke="midnightblue" points="279.639,-70.4387 269.361,-73.0126 279.001,-77.4095 279.639,-70.4387"/>
</g>
<!-- Node11 -->
<g id="node11" class="node"><title>Node11</title>
<g id="a_node11"><a xlink:href="a00197_source.html" target="_top" xlink:title="freetds/thread.h">
<polygon fill="white" stroke="black" points="417.553,-112.5 417.553,-131.5 509.553,-131.5 509.553,-112.5 417.553,-112.5"/>
<text text-anchor="middle" x="463.553" y="-119.5" font-family="Helvetica,sans-Serif" font-size="10.00">freetds/thread.h</text>
</a>
</g>
</g>
<!-- Node4&#45;&gt;Node11 -->
<g id="edge11" class="edge"><title>Node4&#45;&gt;Node11</title>
<path fill="none" stroke="midnightblue" d="M553.362,-168.324C536.202,-159.664 509.607,-146.242 489.806,-136.249"/>
<polygon fill="midnightblue" stroke="midnightblue" points="491.206,-133.035 480.702,-131.655 488.052,-139.285 491.206,-133.035"/>
</g>
<!-- Node12 -->
<g id="node12" class="node"><title>Node12</title>
<g id="a_node12"><a xlink:href="a00205_source.html" target="_top" xlink:title="replacements.h">
<polygon fill="white" stroke="black" points="670.053,-112.5 670.053,-131.5 759.053,-131.5 759.053,-112.5 670.053,-112.5"/>
<text text-anchor="middle" x="714.553" y="-119.5" font-family="Helvetica,sans-Serif" font-size="10.00">replacements.h</text>
</a>
</g>
</g>
<!-- Node4&#45;&gt;Node12 -->
<g id="edge12" class="edge"><title>Node4&#45;&gt;Node12</title>
<path fill="none" stroke="midnightblue" d="M593.37,-168.444C617.385,-159.438 655.382,-145.189 682.422,-135.049"/>
<polygon fill="midnightblue" stroke="midnightblue" points="683.708,-138.305 691.843,-131.516 681.25,-131.751 683.708,-138.305"/>
</g>
<!-- Node15 -->
<g id="node15" class="node"><title>Node15</title>
<g id="a_node15"><a xlink:href="a00191_source.html" target="_top" xlink:title="freetds/pushvis.h">
<polygon fill="white" stroke="black" points="361.553,-0.5 361.553,-19.5 457.553,-19.5 457.553,-0.5 361.553,-0.5"/>
<text text-anchor="middle" x="409.553" y="-7.5" font-family="Helvetica,sans-Serif" font-size="10.00">freetds/pushvis.h</text>
</a>
</g>
</g>
<!-- Node4&#45;&gt;Node15 -->
<g id="edge22" class="edge"><title>Node4&#45;&gt;Node15</title>
<path fill="none" stroke="midnightblue" d="M532.906,-169.386C529.75,-168.871 526.601,-168.399 523.553,-168 467.886,-160.708 57.8117,-173.089 19.5531,-132 -77.8111,-27.4331 219.851,-12.516 350.898,-10.9013"/>
<polygon fill="midnightblue" stroke="midnightblue" points="351.203,-14.3985 361.167,-10.7979 351.133,-7.39889 351.203,-14.3985"/>
</g>
<!-- Node16 -->
<g id="node16" class="node"><title>Node16</title>
<g id="a_node16"><a xlink:href="a00189_source.html" target="_top" xlink:title="freetds/popvis.h">
<polygon fill="white" stroke="black" points="797.553,-0.5 797.553,-19.5 889.553,-19.5 889.553,-0.5 797.553,-0.5"/>
<text text-anchor="middle" x="843.553" y="-7.5" font-family="Helvetica,sans-Serif" font-size="10.00">freetds/popvis.h</text>
</a>
</g>
</g>
<!-- Node4&#45;&gt;Node16 -->
<g id="edge24" class="edge"><title>Node4&#45;&gt;Node16</title>
<path fill="none" stroke="midnightblue" d="M608.424,-177.621C654.567,-176.592 733.093,-168.915 787.553,-132 822.413,-108.371 836.008,-57.2144 840.957,-29.591"/>
<polygon fill="midnightblue" stroke="midnightblue" points="844.424,-30.0736 842.543,-19.6471 837.511,-28.9709 844.424,-30.0736"/>
</g>
<!-- Node18 -->
<g id="node18" class="node"><title>Node18</title>
<g id="a_node18"><a xlink:href="a00190_source.html" target="_top" xlink:title="freetds/proto.h">
<polygon fill="white" stroke="black" points="527.553,-112.5 527.553,-131.5 613.553,-131.5 613.553,-112.5 527.553,-112.5"/>
<text text-anchor="middle" x="570.553" y="-119.5" font-family="Helvetica,sans-Serif" font-size="10.00">freetds/proto.h</text>
</a>
</g>
</g>
<!-- Node4&#45;&gt;Node18 -->
<g id="edge23" class="edge"><title>Node4&#45;&gt;Node18</title>
<path fill="none" stroke="midnightblue" d="M570.553,-168.083C570.553,-161.006 570.553,-150.861 570.553,-141.986"/>
<polygon fill="midnightblue" stroke="midnightblue" points="574.053,-141.751 570.553,-131.751 567.053,-141.751 574.053,-141.751"/>
</g>
<!-- Node7&#45;&gt;Node7 -->
<g id="edge7" class="edge"><title>Node7&#45;&gt;Node7</title>
<path fill="none" stroke="midnightblue" d="M133.821,-131.575C145.341,-134.27 156.553,-131.078 156.553,-122 156.553,-115.759 151.253,-112.3 144.198,-111.623"/>
<polygon fill="midnightblue" stroke="midnightblue" points="143.522,-108.165 133.821,-112.425 144.061,-115.144 143.522,-108.165"/>
</g>
<!-- Node12&#45;&gt;Node5 -->
<g id="edge13" class="edge"><title>Node12&#45;&gt;Node5</title>
<path fill="none" stroke="midnightblue" d="M726.282,-112.324C737.391,-104.107 754.295,-91.6017 767.536,-81.8069"/>
<polygon fill="midnightblue" stroke="midnightblue" points="769.653,-84.5948 775.611,-75.8339 765.49,-78.9671 769.653,-84.5948"/>
</g>
<!-- Node12&#45;&gt;Node10 -->
<g id="edge15" class="edge"><title>Node12&#45;&gt;Node10</title>
<path fill="none" stroke="midnightblue" d="M669.811,-113.911C665.003,-113.228 660.18,-112.576 655.553,-112 490.721,-91.4681 448.769,-93.1721 283.553,-76 282.247,-75.8642 280.929,-75.7265 279.602,-75.5871"/>
<polygon fill="midnightblue" stroke="midnightblue" points="279.604,-72.0677 269.29,-74.4911 278.864,-79.0285 279.604,-72.0677"/>
</g>
<!-- Node13 -->
<g id="node13" class="node"><title>Node13</title>
<g id="a_node13"><a xlink:href="a00213_source.html" target="_top" xlink:title="tds_sysdep_public.h">
<polygon fill="white" stroke="black" points="592.053,-56.5 592.053,-75.5 703.053,-75.5 703.053,-56.5 592.053,-56.5"/>
<text text-anchor="middle" x="647.553" y="-63.5" font-family="Helvetica,sans-Serif" font-size="10.00">tds_sysdep_public.h</text>
</a>
</g>
</g>
<!-- Node12&#45;&gt;Node13 -->
<g id="edge14" class="edge"><title>Node12&#45;&gt;Node13</title>
<path fill="none" stroke="midnightblue" d="M703.788,-112.324C693.787,-104.263 678.667,-92.0765 666.623,-82.3695"/>
<polygon fill="midnightblue" stroke="midnightblue" points="668.496,-79.3841 658.514,-75.8339 664.103,-84.8343 668.496,-79.3841"/>
</g>
<!-- Node14 -->
<g id="node14" class="node"><title>Node14</title>
<g id="a_node14"><a xlink:href="a00206_source.html" target="_top" xlink:title="replacements/readpassphrase.h">
<polygon fill="white" stroke="black" points="325.053,-56.5 325.053,-75.5 494.053,-75.5 494.053,-56.5 325.053,-56.5"/>
<text text-anchor="middle" x="409.553" y="-63.5" font-family="Helvetica,sans-Serif" font-size="10.00">replacements/readpassphrase.h</text>
</a>
</g>
</g>
<!-- Node12&#45;&gt;Node14 -->
<g id="edge16" class="edge"><title>Node12&#45;&gt;Node14</title>
<path fill="none" stroke="midnightblue" d="M669.877,-113.09C616.305,-103.605 526.388,-87.6855 467.515,-77.2621"/>
<polygon fill="midnightblue" stroke="midnightblue" points="468.079,-73.8076 457.622,-75.5106 466.859,-80.7004 468.079,-73.8076"/>
</g>
<!-- Node12&#45;&gt;Node15 -->
<g id="edge20" class="edge"><title>Node12&#45;&gt;Node15</title>
<path fill="none" stroke="midnightblue" d="M669.806,-113.954C664.999,-113.263 660.177,-112.597 655.553,-112 580.201,-102.269 366.371,-132.482 315.553,-76 295.02,-53.178 333.646,-34.1987 367.419,-22.754"/>
<polygon fill="midnightblue" stroke="midnightblue" points="368.778,-25.9933 377.218,-19.5886 366.626,-19.3323 368.778,-25.9933"/>
</g>
<!-- Node12&#45;&gt;Node16 -->
<g id="edge21" class="edge"><title>Node12&#45;&gt;Node16</title>
<path fill="none" stroke="midnightblue" d="M717.555,-112.349C722.643,-98.7803 734.139,-72.3576 751.553,-56 767.153,-41.3474 788.422,-30.5253 806.58,-23.171"/>
<polygon fill="midnightblue" stroke="midnightblue" points="807.942,-26.3972 816.018,-19.5397 805.428,-19.8641 807.942,-26.3972"/>
</g>
<!-- Node17 -->
<g id="node17" class="node"><title>Node17</title>
<g id="a_node17"><a xlink:href="a00181.html" target="_top" xlink:title="Provide poll call where missing. ">
<polygon fill="white" stroke="red" points="512.553,-56.5 512.553,-75.5 574.553,-75.5 574.553,-56.5 512.553,-56.5"/>
<text text-anchor="middle" x="543.553" y="-63.5" font-family="Helvetica,sans-Serif" font-size="10.00">fakepoll.h</text>
</a>
</g>
</g>
<!-- Node12&#45;&gt;Node17 -->
<g id="edge19" class="edge"><title>Node12&#45;&gt;Node17</title>
<path fill="none" stroke="midnightblue" d="M687.458,-112.444C658.565,-103.32 612.628,-88.8133 580.448,-78.6509"/>
<polygon fill="midnightblue" stroke="midnightblue" points="581.112,-75.1903 570.522,-75.5164 579.004,-81.8654 581.112,-75.1903"/>
</g>
<!-- Node14&#45;&gt;Node15 -->
<g id="edge17" class="edge"><title>Node14&#45;&gt;Node15</title>
<path fill="none" stroke="midnightblue" d="M409.553,-56.083C409.553,-49.0059 409.553,-38.8611 409.553,-29.9865"/>
<polygon fill="midnightblue" stroke="midnightblue" points="413.053,-29.751 409.553,-19.7511 406.053,-29.7511 413.053,-29.751"/>
</g>
<!-- Node14&#45;&gt;Node16 -->
<g id="edge18" class="edge"><title>Node14&#45;&gt;Node16</title>
<path fill="none" stroke="midnightblue" d="M478.322,-56.4435C563.758,-45.8132 707.917,-27.8763 787.163,-18.0163"/>
<polygon fill="midnightblue" stroke="midnightblue" points="787.941,-21.4465 797.433,-16.7385 787.077,-14.5001 787.941,-21.4465"/>
</g>
<!-- Node19&#45;&gt;Node15 -->
<g id="edge26" class="edge"><title>Node19&#45;&gt;Node15</title>
<path fill="none" stroke="midnightblue" d="M871.497,-60.396C780.871,-50.7052 570.358,-28.1949 467.8,-17.2284"/>
<polygon fill="midnightblue" stroke="midnightblue" points="467.94,-13.7235 457.625,-16.1403 467.196,-20.6838 467.94,-13.7235"/>
</g>
<!-- Node19&#45;&gt;Node16 -->
<g id="edge27" class="edge"><title>Node19&#45;&gt;Node16</title>
<path fill="none" stroke="midnightblue" d="M903.146,-56.324C892.444,-48.1849 876.212,-35.8395 863.39,-26.0874"/>
<polygon fill="midnightblue" stroke="midnightblue" points="865.246,-23.1018 855.168,-19.8339 861.009,-28.6734 865.246,-23.1018"/>
</g>
<!-- Node20&#45;&gt;Node15 -->
<g id="edge29" class="edge"><title>Node20&#45;&gt;Node15</title>
<path fill="none" stroke="midnightblue" d="M975.841,-57.2107C972.702,-56.7742 969.584,-56.3654 966.553,-56 785.2,-34.1357 569.31,-20.0909 467.786,-14.1906"/>
<polygon fill="midnightblue" stroke="midnightblue" points="467.922,-10.6927 457.737,-13.6115 467.519,-17.6811 467.922,-10.6927"/>
</g>
<!-- Node20&#45;&gt;Node16 -->
<g id="edge30" class="edge"><title>Node20&#45;&gt;Node16</title>
<path fill="none" stroke="midnightblue" d="M994.19,-56.4435C963.815,-47.2801 915.443,-32.6876 881.737,-22.5192"/>
<polygon fill="midnightblue" stroke="midnightblue" points="882.368,-19.0538 871.784,-19.5164 880.346,-25.7555 882.368,-19.0538"/>
</g>
</g>
</svg>
