<?xml version="1.0" encoding="UTF-8" standalone="no"?>
<!DOCTYPE svg PUBLIC "-//W3C//DTD SVG 1.1//EN"
 "http://www.w3.org/Graphics/SVG/1.1/DTD/svg11.dtd">
<!-- Generated by graphviz version 2.38.0 (20140413.2041)
 -->
<!-- Title: src/replacements/iconv.c Pages: 1 -->
<svg width="1054pt" height="252pt"
 viewBox="0.00 0.00 1054.48 252.00" xmlns="http://www.w3.org/2000/svg" xmlns:xlink="http://www.w3.org/1999/xlink">
<g id="graph0" class="graph" transform="scale(1 1) rotate(0) translate(4 248)">
<title>src/replacements/iconv.c</title>
<polygon fill="white" stroke="none" points="-4,4 -4,-248 1050.48,-248 1050.48,4 -4,4"/>
<!-- Node1 -->
<g id="node1" class="node"><title>Node1</title>
<polygon fill="#bfbfbf" stroke="black" points="128,-224.5 128,-243.5 261,-243.5 261,-224.5 128,-224.5"/>
<text text-anchor="middle" x="194.5" y="-231.5" font-family="Helvetica,sans-Serif" font-size="10.00">src/replacements/iconv.c</text>
</g>
<!-- Node2 -->
<g id="node2" class="node"><title>Node2</title>
<polygon fill="white" stroke="#bfbfbf" points="0,-168.5 0,-187.5 53,-187.5 53,-168.5 0,-168.5"/>
<text text-anchor="middle" x="26.5" y="-175.5" font-family="Helvetica,sans-Serif" font-size="10.00">config.h</text>
</g>
<!-- Node1&#45;&gt;Node2 -->
<g id="edge1" class="edge"><title>Node1&#45;&gt;Node2</title>
<path fill="none" stroke="midnightblue" d="M167.88,-224.444C139.494,-215.32 94.3635,-200.813 62.7473,-190.651"/>
<polygon fill="midnightblue" stroke="midnightblue" points="63.5869,-187.244 52.9956,-187.516 61.4448,-193.909 63.5869,-187.244"/>
</g>
<!-- Node3 -->
<g id="node3" class="node"><title>Node3</title>
<polygon fill="white" stroke="#bfbfbf" points="71.5,-168.5 71.5,-187.5 125.5,-187.5 125.5,-168.5 71.5,-168.5"/>
<text text-anchor="middle" x="98.5" y="-175.5" font-family="Helvetica,sans-Serif" font-size="10.00">assert.h</text>
</g>
<!-- Node1&#45;&gt;Node3 -->
<g id="edge2" class="edge"><title>Node1&#45;&gt;Node3</title>
<path fill="none" stroke="midnightblue" d="M179.076,-224.324C163.96,-215.822 140.685,-202.729 123.029,-192.797"/>
<polygon fill="midnightblue" stroke="midnightblue" points="124.317,-189.507 113.886,-187.655 120.886,-195.608 124.317,-189.507"/>
</g>
<!-- Node4 -->
<g id="node4" class="node"><title>Node4</title>
<polygon fill="white" stroke="#bfbfbf" points="143.5,-168.5 143.5,-187.5 193.5,-187.5 193.5,-168.5 143.5,-168.5"/>
<text text-anchor="middle" x="168.5" y="-175.5" font-family="Helvetica,sans-Serif" font-size="10.00">ctype.h</text>
</g>
<!-- Node1&#45;&gt;Node4 -->
<g id="edge3" class="edge"><title>Node1&#45;&gt;Node4</title>
<path fill="none" stroke="midnightblue" d="M190.207,-224.083C186.648,-216.691 181.478,-205.953 177.076,-196.811"/>
<polygon fill="midnightblue" stroke="midnightblue" points="180.205,-195.243 172.713,-187.751 173.898,-198.279 180.205,-195.243"/>
</g>
<!-- Node5 -->
<g id="node5" class="node"><title>Node5</title>
<g id="a_node5"><a xlink:href="a00196.html" target="_top" xlink:title="Main include file for libtds. ">
<polygon fill="white" stroke="black" points="444,-168.5 444,-187.5 519,-187.5 519,-168.5 444,-168.5"/>
<text text-anchor="middle" x="481.5" y="-175.5" font-family="Helvetica,sans-Serif" font-size="10.00">freetds/tds.h</text>
</a>
</g>
</g>
<!-- Node1&#45;&gt;Node5 -->
<g id="edge4" class="edge"><title>Node1&#45;&gt;Node5</title>
<path fill="none" stroke="midnightblue" d="M239.976,-224.444C292.838,-214.497 379.695,-198.155 433.58,-188.016"/>
<polygon fill="midnightblue" stroke="midnightblue" points="434.389,-191.426 443.569,-186.137 433.094,-184.546 434.389,-191.426"/>
</g>
<!-- Node20 -->
<g id="node20" class="node"><title>Node20</title>
<g id="a_node20"><a xlink:href="a00182_source.html" target="_top" xlink:title="freetds/bytes.h">
<polygon fill="white" stroke="black" points="537.5,-168.5 537.5,-187.5 623.5,-187.5 623.5,-168.5 537.5,-168.5"/>
<text text-anchor="middle" x="580.5" y="-175.5" font-family="Helvetica,sans-Serif" font-size="10.00">freetds/bytes.h</text>
</a>
</g>
</g>
<!-- Node1&#45;&gt;Node20 -->
<g id="edge26" class="edge"><title>Node1&#45;&gt;Node20</title>
<path fill="none" stroke="midnightblue" d="M261.25,-224.655C328.55,-216.083 435.369,-202.043 527.5,-188 527.601,-187.985 527.702,-187.969 527.803,-187.954"/>
<polygon fill="midnightblue" stroke="midnightblue" points="528.086,-191.452 537.421,-186.441 526.999,-184.537 528.086,-191.452"/>
</g>
<!-- Node21 -->
<g id="node21" class="node"><title>Node21</title>
<g id="a_node21"><a xlink:href="a00187_source.html" target="_top" xlink:title="freetds/iconv.h">
<polygon fill="white" stroke="black" points="243.5,-56.5 243.5,-75.5 329.5,-75.5 329.5,-56.5 243.5,-56.5"/>
<text text-anchor="middle" x="286.5" y="-63.5" font-family="Helvetica,sans-Serif" font-size="10.00">freetds/iconv.h</text>
</a>
</g>
</g>
<!-- Node1&#45;&gt;Node21 -->
<g id="edge27" class="edge"><title>Node1&#45;&gt;Node21</title>
<path fill="none" stroke="midnightblue" d="M199.446,-224.075C214.053,-197.719 257.194,-119.878 276.712,-84.6608"/>
<polygon fill="midnightblue" stroke="midnightblue" points="279.965,-86.0113 281.751,-75.5681 273.843,-82.618 279.965,-86.0113"/>
</g>
<!-- Node6 -->
<g id="node6" class="node"><title>Node6</title>
<polygon fill="white" stroke="#bfbfbf" points="972,-56.5 972,-75.5 1027,-75.5 1027,-56.5 972,-56.5"/>
<text text-anchor="middle" x="999.5" y="-63.5" font-family="Helvetica,sans-Serif" font-size="10.00">stdarg.h</text>
</g>
<!-- Node5&#45;&gt;Node6 -->
<g id="edge5" class="edge"><title>Node5&#45;&gt;Node6</title>
<path fill="none" stroke="midnightblue" d="M519.15,-169.408C522.306,-168.888 525.453,-168.409 528.5,-168 579.421,-161.158 951.839,-166.948 989.5,-132 1001.9,-120.489 1003.3,-100.518 1002.27,-85.7423"/>
<polygon fill="midnightblue" stroke="midnightblue" points="1005.74,-85.236 1001.16,-75.6819 998.779,-86.0063 1005.74,-85.236"/>
</g>
<!-- Node7 -->
<g id="node7" class="node"><title>Node7</title>
<polygon fill="white" stroke="#bfbfbf" points="288,-112.5 288,-131.5 335,-131.5 335,-112.5 288,-112.5"/>
<text text-anchor="middle" x="311.5" y="-119.5" font-family="Helvetica,sans-Serif" font-size="10.00">stdio.h</text>
</g>
<!-- Node5&#45;&gt;Node7 -->
<g id="edge6" class="edge"><title>Node5&#45;&gt;Node7</title>
<path fill="none" stroke="midnightblue" d="M454.563,-168.444C424.826,-158.998 376.927,-143.783 344.844,-133.592"/>
<polygon fill="midnightblue" stroke="midnightblue" points="345.617,-130.165 335.026,-130.473 343.497,-136.836 345.617,-130.165"/>
</g>
<!-- Node8 -->
<g id="node8" class="node"><title>Node8</title>
<g id="a_node8"><a xlink:href="a00198_source.html" target="_top" xlink:title="time.h">
<polygon fill="white" stroke="black" points="353.5,-112.5 353.5,-131.5 397.5,-131.5 397.5,-112.5 353.5,-112.5"/>
<text text-anchor="middle" x="375.5" y="-119.5" font-family="Helvetica,sans-Serif" font-size="10.00">time.h</text>
</a>
</g>
</g>
<!-- Node5&#45;&gt;Node8 -->
<g id="edge7" class="edge"><title>Node5&#45;&gt;Node8</title>
<path fill="none" stroke="midnightblue" d="M464.469,-168.324C447.47,-159.664 421.124,-146.242 401.507,-136.249"/>
<polygon fill="midnightblue" stroke="midnightblue" points="402.988,-133.075 392.488,-131.655 399.81,-139.312 402.988,-133.075"/>
</g>
<!-- Node9 -->
<g id="node9" class="node"><title>Node9</title>
<g id="a_node9"><a xlink:href="a00200_source.html" target="_top" xlink:title="freetds/version.h">
<polygon fill="white" stroke="black" points="434,-112.5 434,-131.5 529,-131.5 529,-112.5 434,-112.5"/>
<text text-anchor="middle" x="481.5" y="-119.5" font-family="Helvetica,sans-Serif" font-size="10.00">freetds/version.h</text>
</a>
</g>
</g>
<!-- Node5&#45;&gt;Node9 -->
<g id="edge9" class="edge"><title>Node5&#45;&gt;Node9</title>
<path fill="none" stroke="midnightblue" d="M481.5,-168.083C481.5,-161.006 481.5,-150.861 481.5,-141.986"/>
<polygon fill="midnightblue" stroke="midnightblue" points="485,-141.751 481.5,-131.751 478,-141.751 485,-141.751"/>
</g>
<!-- Node10 -->
<g id="node10" class="node"><title>Node10</title>
<polygon fill="white" stroke="#bfbfbf" points="547,-112.5 547,-131.5 658,-131.5 658,-112.5 547,-112.5"/>
<text text-anchor="middle" x="602.5" y="-119.5" font-family="Helvetica,sans-Serif" font-size="10.00">tds_sysdep_public.h</text>
</g>
<!-- Node5&#45;&gt;Node10 -->
<g id="edge10" class="edge"><title>Node5&#45;&gt;Node10</title>
<path fill="none" stroke="midnightblue" d="M500.673,-168.444C520.409,-159.636 551.385,-145.812 573.993,-135.722"/>
<polygon fill="midnightblue" stroke="midnightblue" points="575.711,-138.788 583.417,-131.516 572.859,-132.396 575.711,-138.788"/>
</g>
<!-- Node11 -->
<g id="node11" class="node"><title>Node11</title>
<g id="a_node11"><a xlink:href="a00195_source.html" target="_top" xlink:title="freetds/sysdep_private.h">
<polygon fill="white" stroke="black" points="348,-56.5 348,-75.5 481,-75.5 481,-56.5 348,-56.5"/>
<text text-anchor="middle" x="414.5" y="-63.5" font-family="Helvetica,sans-Serif" font-size="10.00">freetds/sysdep_private.h</text>
</a>
</g>
</g>
<!-- Node5&#45;&gt;Node11 -->
<g id="edge11" class="edge"><title>Node5&#45;&gt;Node11</title>
<path fill="none" stroke="midnightblue" d="M443.826,-174.156C390.934,-169.291 298.836,-157.337 278.5,-132 255.781,-103.694 297.6,-86.9798 340.694,-77.6058"/>
<polygon fill="midnightblue" stroke="midnightblue" points="341.662,-80.9803 350.757,-75.5469 340.259,-74.1224 341.662,-80.9803"/>
</g>
<!-- Node12 -->
<g id="node12" class="node"><title>Node12</title>
<g id="a_node12"><a xlink:href="a00197_source.html" target="_top" xlink:title="freetds/thread.h">
<polygon fill="white" stroke="black" points="676.5,-112.5 676.5,-131.5 768.5,-131.5 768.5,-112.5 676.5,-112.5"/>
<text text-anchor="middle" x="722.5" y="-119.5" font-family="Helvetica,sans-Serif" font-size="10.00">freetds/thread.h</text>
</a>
</g>
</g>
<!-- Node5&#45;&gt;Node12 -->
<g id="edge12" class="edge"><title>Node5&#45;&gt;Node12</title>
<path fill="none" stroke="midnightblue" d="M519.156,-168.562C561.002,-159.186 628.683,-144.021 674.35,-133.789"/>
<polygon fill="midnightblue" stroke="midnightblue" points="675.32,-137.158 684.313,-131.556 673.79,-130.328 675.32,-137.158"/>
</g>
<!-- Node13 -->
<g id="node13" class="node"><title>Node13</title>
<g id="a_node13"><a xlink:href="a00205_source.html" target="_top" xlink:title="replacements.h">
<polygon fill="white" stroke="black" points="891,-112.5 891,-131.5 980,-131.5 980,-112.5 891,-112.5"/>
<text text-anchor="middle" x="935.5" y="-119.5" font-family="Helvetica,sans-Serif" font-size="10.00">replacements.h</text>
</a>
</g>
</g>
<!-- Node5&#45;&gt;Node13 -->
<g id="edge13" class="edge"><title>Node5&#45;&gt;Node13</title>
<path fill="none" stroke="midnightblue" d="M519.161,-169.488C522.314,-168.95 525.458,-168.445 528.5,-168 681.338,-145.617 723.482,-152.666 880.714,-132.018"/>
<polygon fill="midnightblue" stroke="midnightblue" points="881.293,-135.472 890.744,-130.684 880.37,-128.533 881.293,-135.472"/>
</g>
<!-- Node16 -->
<g id="node16" class="node"><title>Node16</title>
<g id="a_node16"><a xlink:href="a00191_source.html" target="_top" xlink:title="freetds/pushvis.h">
<polygon fill="white" stroke="black" points="349.5,-0.5 349.5,-19.5 445.5,-19.5 445.5,-0.5 349.5,-0.5"/>
<text text-anchor="middle" x="397.5" y="-7.5" font-family="Helvetica,sans-Serif" font-size="10.00">freetds/pushvis.h</text>
</a>
</g>
</g>
<!-- Node5&#45;&gt;Node16 -->
<g id="edge23" class="edge"><title>Node5&#45;&gt;Node16</title>
<path fill="none" stroke="midnightblue" d="M443.685,-177.765C398.098,-176.855 321.072,-169.268 268.5,-132 244.746,-115.161 242.346,-104.04 234.5,-76 221.455,-29.3788 287.409,-15.591 339.315,-11.8388"/>
<polygon fill="midnightblue" stroke="midnightblue" points="339.714,-15.321 349.481,-11.2154 339.286,-8.33407 339.714,-15.321"/>
</g>
<!-- Node17 -->
<g id="node17" class="node"><title>Node17</title>
<g id="a_node17"><a xlink:href="a00189_source.html" target="_top" xlink:title="freetds/popvis.h">
<polygon fill="white" stroke="black" points="736.5,-0.5 736.5,-19.5 828.5,-19.5 828.5,-0.5 736.5,-0.5"/>
<text text-anchor="middle" x="782.5" y="-7.5" font-family="Helvetica,sans-Serif" font-size="10.00">freetds/popvis.h</text>
</a>
</g>
</g>
<!-- Node5&#45;&gt;Node17 -->
<g id="edge25" class="edge"><title>Node5&#45;&gt;Node17</title>
<path fill="none" stroke="midnightblue" d="M519.148,-169.398C522.305,-168.88 525.453,-168.405 528.5,-168 634.535,-153.918 919.677,-191.601 1008.5,-132 1038.39,-111.943 1059.63,-83.5849 1036.5,-56 1011.77,-26.4994 905.695,-16.3269 838.691,-12.8272"/>
<polygon fill="midnightblue" stroke="midnightblue" points="838.856,-9.33115 828.697,-12.3392 838.515,-16.3228 838.856,-9.33115"/>
</g>
<!-- Node19 -->
<g id="node19" class="node"><title>Node19</title>
<g id="a_node19"><a xlink:href="a00190_source.html" target="_top" xlink:title="freetds/proto.h">
<polygon fill="white" stroke="black" points="786.5,-112.5 786.5,-131.5 872.5,-131.5 872.5,-112.5 786.5,-112.5"/>
<text text-anchor="middle" x="829.5" y="-119.5" font-family="Helvetica,sans-Serif" font-size="10.00">freetds/proto.h</text>
</a>
</g>
</g>
<!-- Node5&#45;&gt;Node19 -->
<g id="edge24" class="edge"><title>Node5&#45;&gt;Node19</title>
<path fill="none" stroke="midnightblue" d="M519.183,-169.627C522.332,-169.059 525.469,-168.509 528.5,-168 635.65,-150.005 665.398,-149.548 776.463,-132.125"/>
<polygon fill="midnightblue" stroke="midnightblue" points="777.054,-135.575 786.385,-130.557 775.961,-128.661 777.054,-135.575"/>
</g>
<!-- Node8&#45;&gt;Node8 -->
<g id="edge8" class="edge"><title>Node8&#45;&gt;Node8</title>
<path fill="none" stroke="midnightblue" d="M392.768,-131.575C404.287,-134.27 415.5,-131.078 415.5,-122 415.5,-115.759 410.2,-112.3 403.145,-111.623"/>
<polygon fill="midnightblue" stroke="midnightblue" points="402.469,-108.165 392.768,-112.425 403.008,-115.144 402.469,-108.165"/>
</g>
<!-- Node13&#45;&gt;Node6 -->
<g id="edge14" class="edge"><title>Node13&#45;&gt;Node6</title>
<path fill="none" stroke="midnightblue" d="M945.783,-112.324C955.336,-104.263 969.78,-92.0765 981.284,-82.3695"/>
<polygon fill="midnightblue" stroke="midnightblue" points="983.644,-84.9577 989.03,-75.8339 979.13,-79.6076 983.644,-84.9577"/>
</g>
<!-- Node13&#45;&gt;Node11 -->
<g id="edge16" class="edge"><title>Node13&#45;&gt;Node11</title>
<path fill="none" stroke="midnightblue" d="M890.748,-113.286C887.622,-112.826 884.516,-112.391 881.5,-112 710.633,-89.8226 666.908,-93.5144 495.5,-76 494.194,-75.8665 492.875,-75.7309 491.548,-75.5934"/>
<polygon fill="midnightblue" stroke="midnightblue" points="491.546,-72.074 481.235,-74.5095 490.815,-79.0357 491.546,-72.074"/>
</g>
<!-- Node14 -->
<g id="node14" class="node"><title>Node14</title>
<g id="a_node14"><a xlink:href="a00213_source.html" target="_top" xlink:title="tds_sysdep_public.h">
<polygon fill="white" stroke="black" points="804,-56.5 804,-75.5 915,-75.5 915,-56.5 804,-56.5"/>
<text text-anchor="middle" x="859.5" y="-63.5" font-family="Helvetica,sans-Serif" font-size="10.00">tds_sysdep_public.h</text>
</a>
</g>
</g>
<!-- Node13&#45;&gt;Node14 -->
<g id="edge15" class="edge"><title>Node13&#45;&gt;Node14</title>
<path fill="none" stroke="midnightblue" d="M923.289,-112.324C911.724,-104.107 894.125,-91.6017 880.339,-81.8069"/>
<polygon fill="midnightblue" stroke="midnightblue" points="882.112,-78.7729 871.933,-75.8339 878.057,-84.4791 882.112,-78.7729"/>
</g>
<!-- Node15 -->
<g id="node15" class="node"><title>Node15</title>
<g id="a_node15"><a xlink:href="a00206_source.html" target="_top" xlink:title="replacements/readpassphrase.h">
<polygon fill="white" stroke="black" points="537,-56.5 537,-75.5 706,-75.5 706,-56.5 537,-56.5"/>
<text text-anchor="middle" x="621.5" y="-63.5" font-family="Helvetica,sans-Serif" font-size="10.00">replacements/readpassphrase.h</text>
</a>
</g>
</g>
<!-- Node13&#45;&gt;Node15 -->
<g id="edge17" class="edge"><title>Node13&#45;&gt;Node15</title>
<path fill="none" stroke="midnightblue" d="M890.845,-113.32C835.832,-103.86 742.173,-87.7527 681.071,-77.2448"/>
<polygon fill="midnightblue" stroke="midnightblue" points="681.63,-73.7896 671.182,-75.544 680.444,-80.6883 681.63,-73.7896"/>
</g>
<!-- Node13&#45;&gt;Node16 -->
<g id="edge21" class="edge"><title>Node13&#45;&gt;Node16</title>
<path fill="none" stroke="midnightblue" d="M890.744,-113.315C887.619,-112.848 884.514,-112.404 881.5,-112 724.757,-90.9899 678.909,-121.663 527.5,-76 509.228,-70.4893 506.518,-64.6383 489.5,-56 467.862,-45.017 443.149,-32.9554 424.788,-24.0864"/>
<polygon fill="midnightblue" stroke="midnightblue" points="426.087,-20.8272 415.559,-19.6387 423.048,-27.1331 426.087,-20.8272"/>
</g>
<!-- Node13&#45;&gt;Node17 -->
<g id="edge22" class="edge"><title>Node13&#45;&gt;Node17</title>
<path fill="none" stroke="midnightblue" d="M936.658,-112.238C937.956,-98.5177 938.319,-71.8909 924.5,-56 903.079,-31.3669 868.257,-20.0853 838.459,-14.9774"/>
<polygon fill="midnightblue" stroke="midnightblue" points="838.986,-11.5173 828.573,-13.4715 837.931,-18.4375 838.986,-11.5173"/>
</g>
<!-- Node18 -->
<g id="node18" class="node"><title>Node18</title>
<g id="a_node18"><a xlink:href="a00181.html" target="_top" xlink:title="Provide poll call where missing. ">
<polygon fill="white" stroke="red" points="724.5,-56.5 724.5,-75.5 786.5,-75.5 786.5,-56.5 724.5,-56.5"/>
<text text-anchor="middle" x="755.5" y="-63.5" font-family="Helvetica,sans-Serif" font-size="10.00">fakepoll.h</text>
</a>
</g>
</g>
<!-- Node13&#45;&gt;Node18 -->
<g id="edge20" class="edge"><title>Node13&#45;&gt;Node18</title>
<path fill="none" stroke="midnightblue" d="M906.978,-112.444C876.434,-103.28 827.792,-88.6876 793.897,-78.5192"/>
<polygon fill="midnightblue" stroke="midnightblue" points="794.472,-75.0376 783.888,-75.5164 792.461,-81.7424 794.472,-75.0376"/>
</g>
<!-- Node15&#45;&gt;Node16 -->
<g id="edge18" class="edge"><title>Node15&#45;&gt;Node16</title>
<path fill="none" stroke="midnightblue" d="M586.007,-56.4435C547.176,-47.0826 484.844,-32.0561 442.582,-21.868"/>
<polygon fill="midnightblue" stroke="midnightblue" points="443.369,-18.4576 432.827,-19.5164 441.729,-25.2626 443.369,-18.4576"/>
</g>
<!-- Node15&#45;&gt;Node17 -->
<g id="edge19" class="edge"><title>Node15&#45;&gt;Node17</title>
<path fill="none" stroke="midnightblue" d="M647.011,-56.4435C674.096,-47.3591 717.09,-32.9388 747.369,-22.7831"/>
<polygon fill="midnightblue" stroke="midnightblue" points="748.74,-26.0148 757.108,-19.5164 746.514,-19.3781 748.74,-26.0148"/>
</g>
<!-- Node21&#45;&gt;Node16 -->
<g id="edge28" class="edge"><title>Node21&#45;&gt;Node16</title>
<path fill="none" stroke="midnightblue" d="M304.334,-56.324C322.216,-47.6247 349.975,-34.1202 370.546,-24.113"/>
<polygon fill="midnightblue" stroke="midnightblue" points="372.249,-27.1765 379.71,-19.6545 369.187,-20.8819 372.249,-27.1765"/>
</g>
<!-- Node21&#45;&gt;Node17 -->
<g id="edge29" class="edge"><title>Node21&#45;&gt;Node17</title>
<path fill="none" stroke="midnightblue" d="M329.594,-57.301C332.604,-56.8372 335.595,-56.3981 338.5,-56 477.401,-36.9649 641.775,-22.3562 726.212,-15.4268"/>
<polygon fill="midnightblue" stroke="midnightblue" points="726.67,-18.9012 736.352,-14.6001 726.101,-11.9243 726.67,-18.9012"/>
</g>
</g>
</svg>
