#define favicon_width 32
#define favicon_height 32
static unsigned char favicon_bits[] = {
   0x00, 0x00, 0x00, 0x00, 0x00, 0x00, 0x00, 0x00, 0x00, 0x00, 0x00, 0x00,
   0x00, 0x00, 0x00, 0x00, 0x00, 0x00, 0x00, 0x00, 0x00, 0x00, 0x00, 0x00,
   0x76, 0xdb, 0x81, 0x2a, 0xfe, 0xfb, 0xb1, 0x7f, 0x30, 0x18, 0x81, 0x61,
   0x30, 0xf8, 0xb7, 0x61, 0x30, 0xd8, 0xb7, 0x61, 0x30, 0x18, 0xb6, 0x61,
   0x30, 0x18, 0xf6, 0x7f, 0x30, 0x18, 0xb7, 0x7f, 0x30, 0x18, 0x00, 0x00,
   0x00, 0x1c, 0x95, 0x2a, 0x00, 0x00, 0x00, 0x00, 0x00, 0x00, 0x00, 0x00,
   0x00, 0x00, 0x00, 0x00, 0x00, 0x00, 0x00, 0x00, 0x00, 0x00, 0x00, 0x00,
   0x00, 0x00, 0x00, 0x00, 0x00, 0x00, 0x00, 0x00, 0x00, 0x00, 0x00, 0x00,
   0x00, 0x00, 0x00, 0x00, 0x00, 0x00, 0x00, 0x00, 0x00, 0x00, 0x00, 0x00,
   0x00, 0x00, 0x00, 0x00, 0x00, 0x00, 0x00, 0x00, 0x00, 0x00, 0x00, 0x00,
   0x00, 0x00, 0x00, 0x00, 0x00, 0x00, 0x00, 0x00 };
